/* XPM */
static char *_VDFsmall[] = {
/* columns rows colors chars-per-pixel */
"50 54 256 2 ",
"   c #1E2C25",
".  c #202527",
"X  c #242C2D",
"o  c #262A2D",
"O  c #223426",
"+  c #262930",
"@  c #2A2E30",
"#  c #2B3234",
"$  c #303335",
"%  c #34363B",
"&  c #373939",
"*  c #447C27",
"=  c #46693F",
"-  c #537F3A",
";  c #312841",
":  c #383442",
">  c #3E3847",
",  c #3F3949",
"<  c #473E4E",
"1  c #493F4F",
"2  c #5C3943",
"3  c #4D3F56",
"4  c #4D375A",
"5  c #4D4D4D",
"6  c #4C5D4E",
"7  c #4B4050",
"8  c #5E4755",
"9  c #545454",
"0  c #585052",
"q  c #62545A",
"w  c #526845",
"e  c #5B6256",
"r  c #63664F",
"t  c #72794B",
"y  c #646858",
"u  c #5F6060",
"i  c #636464",
"p  c #65686A",
"a  c #66636A",
"s  c #6F7071",
"d  c #757576",
"f  c #7B7B7B",
"g  c #B53E00",
"h  c #BF3E02",
"j  c #843E25",
"k  c #C23F05",
"l  c #CB3803",
"z  c #CB3D0A",
"x  c #BF4101",
"c  c #89402D",
"v  c #BC5A38",
"b  c #AF603B",
"n  c #B66B3D",
"m  c #C24201",
"M  c #CD4401",
"N  c #CC4208",
"B  c #D24600",
"V  c #D94700",
"C  c #D54901",
"Z  c #DC4C01",
"A  c #D24209",
"S  c #DD5E1E",
"D  c #E34D01",
"F  c #E94E00",
"G  c #F64E00",
"H  c #EC5100",
"J  c #E5540B",
"K  c #F55401",
"L  c #FA5500",
"P  c #FD5802",
"I  c #FE5E0A",
"U  c #EB5718",
"Y  c #E65C14",
"T  c #FD600E",
"R  c #FD6212",
"E  c #FF6B12",
"W  c #FE6618",
"Q  c #FF6A1D",
"!  c #DB682E",
"~  c #DB6326",
"^  c #CB783E",
"/  c #E06124",
"(  c #EB682A",
")  c #FF6D20",
"_  c #FF732A",
"`  c #ED6730",
"'  c #E76F37",
"]  c #FF7730",
"[  c #FE7935",
"{  c #FD7E3B",
"}  c #A76154",
"|  c #B46253",
" . c #379203",
".. c #3B9F05",
"X. c #2EA105",
"o. c #3AA600",
"O. c #32A907",
"+. c #3DAC00",
"@. c #3EB600",
"#. c #37B800",
"$. c #38BD00",
"%. c #3FA421",
"&. c #40AF04",
"*. c #47AE0B",
"=. c #40B600",
"-. c #42BC00",
";. c #4BBE0E",
":. c #4BB311",
">. c #4FBD15",
",. c #4FB319",
"<. c #4B832D",
"1. c #4D9E3D",
"2. c #51A822",
"3. c #55A628",
"4. c #52A13F",
"5. c #52A337",
"6. c #59B432",
"7. c #38C000",
"8. c #45C400",
"9. c #49C705",
"0. c #47CA00",
"q. c #49CC01",
"w. c #4DC20A",
"e. c #4BD301",
"r. c #46DD00",
"t. c #4CDA00",
"y. c #50D200",
"u. c #51DE02",
"i. c #4DC011",
"p. c #47E200",
"a. c #4FE100",
"s. c #4DE900",
"d. c #46F100",
"f. c #49F000",
"g. c #5E9742",
"h. c #569E49",
"j. c #58A448",
"k. c #AEAD08",
"l. c #B0AE06",
"z. c #BAB905",
"x. c #AABF1E",
"c. c #B8BB1A",
"v. c #9A9030",
"b. c #A4943E",
"n. c #A5A336",
"m. c #B9A837",
"M. c #B6B438",
"N. c #CCBB0D",
"B. c #CEBE10",
"V. c #FF813D",
"C. c #B3C70E",
"Z. c #BDCD0D",
"A. c #B8C911",
"S. c #C3C101",
"D. c #C9C600",
"F. c #CBCA01",
"G. c #C1C70D",
"H. c #C3C90C",
"J. c #C7C70A",
"K. c #D1CE00",
"L. c #DBCF00",
"P. c #D2D000",
"I. c #D9D700",
"U. c #DDDA02",
"Y. c #C6C316",
"T. c #DEDA14",
"R. c #E1DF02",
"E. c #E3E101",
"W. c #E9E701",
"Q. c #ECEA00",
"!. c #F5EC05",
"~. c #F2F000",
"^. c #FDFB01",
"/. c #FFFF0B",
"(. c #ECE310",
"). c #C7CA36",
"_. c #B5A243",
"`. c #FF8343",
"'. c #FF894A",
"]. c #FF935A",
"[. c #B7C941",
"{. c #B0C252",
"}. c #B3C459",
"|. c #B5C661",
" X c #0F08D6",
".X c #150AD9",
"XX c #1C12DA",
"oX c #2117D9",
"OX c #241BDC",
"+X c #291FDC",
"@X c #2D24DD",
"#X c #3027DC",
"$X c #332ADD",
"%X c #3D33DF",
"&X c #3E36E0",
"*X c #463EE0",
"=X c #4A42E0",
"-X c #564EE4",
";X c #5952E3",
":X c #6A63E6",
">X c #6F6AE8",
",X c #8079EA",
"<X c #828283",
"1X c #8C8C8C",
"2X c #979797",
"3X c #9C9C9D",
"4X c #9E9EA1",
"5X c #A2A2A4",
"6X c #A9A8A7",
"7X c #A6A6A9",
"8X c #ABABAE",
"9X c #AFAFB1",
"0X c #B3B3B5",
"qX c #B6B6B9",
"wX c #BABABC",
"eX c #BEBEC1",
"rX c #8581EB",
"tX c #8A85EC",
"yX c #908CED",
"uX c #9A96ED",
"iX c #A29FEF",
"pX c #A4A1F0",
"aX c #A9A6F1",
"sX c #B4B2F3",
"dX c #C0BDF4",
"fX c #C3C3C4",
"gX c #C7C7C9",
"hX c #C7C8C8",
"jX c #CBCBCC",
"kX c #CFCFD0",
"lX c #D4D4D4",
"zX c #D5D7D8",
"xX c #DCDCDC",
"cX c #C2C0F5",
"vX c #CDCCF7",
"bX c #D0CFF7",
"nX c #D3D2F7",
"mX c #D7D9F7",
"MX c #D6D5F8",
"NX c #D9D6F9",
"BX c #D7D9F8",
"VX c #DADBF8",
"CX c #E0DEF9",
"ZX c #DEE1F9",
"AX c #E3E3E3",
"SX c #E7E7E8",
"DX c #EAEAEA",
"FX c #EFEFF0",
"GX c #E2E4F9",
"HX c #EBEBFB",
"JX c #E5E9F9",
"KX c #EEF0FB",
"LX c #F2F2F3",
"PX c #F7F9FC",
"IX c #FCFCFC",
"UX c None",
/* pixels */
"UXUXUXUXUXUXUXUXUXUXUXUXUXUXUXUXUXUXUXUXUXUXUXUXUXUXUXUXUXUXUXUXUXUXUXUXUXUXUXUXUXUXUXUXUXUXUXUXUXUX",
"UXUXUXUXDXAXDXAXAXAXSXAXxXzXlXjXjXhXfXfXwXUXUXUXUXUXUXUXUXUXUXUXUXUXUXUXUXUXUXUXUXUXUXUXUXUXUXUXUXUX",
"UXUXDXAXAXAXAXAXAXxXxXzXlXkXjXhXwXwXqXqXqX8X8XUXUXUXUXUXUXUXUXUXUXUXUXUXUXUXUXUXUXUXUXUXUXUXUXUXUXUX",
"UXDXxXAXAXAXAXxXzXzXkXjXhXfXeXwXwXqXqX8X7X7X5XUXUXUXUXUXUXUXUXUXUXUXUXUXUXUXUXUXUXUXUXUXUXUXUXUXUXUX",
"UXAXAXAXAXxXxXlXkXjXhXhXeXeXwX0X8X8X7X7X7X7X5XqXUXUXUXUXUXUXUXUXUXUXUXUXUXUXUXUXUXUXUXUXUXUXUXUXUXUX",
"UXjXAXxXxXlXlXjXhXhXeXeXwX9X9X8X8X7X7X5X7X7XwXjXUXUXUXUXUXUXUXUXUXUXUXUXUXUXUXUXUXUXUXUXUXUXUXUXUXUX",
"UXjXlXAXxXxXlXjXwX0X9X7X7X4X4X3X4XqXqXeXjXAXlXjXUXUXUXUXUXUXUXUXUXUXUXUXUXUXUXUXUXUXUXUXUXUXUXUXUXUX",
"UXjXlXAXxXlXjXlXxXxXAXDXDXDXZXzXxXjXjXxXxXAXlXjXUXUXUXUXUXUXUXUXUXUXUXUXUXUXUXUXUXUXUXUXUXUXUXUXUXUX",
"UXjXlXAXxXzXkXhXfXwX0X7X4X7X0XeXfXhXlXlXzXAXlXhXUXUXUXUXUXUXUXUXUXUXUXUXUXUXUXUXUXUXUXUXUXUXUXUXUXUX",
"UXjXlXAXzXzXkXhXeXwX0X8X7X8X0XwXfXhXkXlXxXAXlXhXUXUXUXUXUXUXUXUXUXUXUXUXUXUXUXUXUXUXUXUXUXUXUXUXUXUX",
"UX9XxXAXxXzXkXgXeXwX0X8X5X9X0XwXfXhXlXlXAXxXSX3XUXUXUXUXUXUXUXUXUXUXUXUXUXUXUXUXUXUXUXUXUXUXUXUXUXUX",
"UX8Xy zXJXzXgXgXeXwX0X8X5X8XeXwXfXhXjXlXLXfX5 zXUXUXUXUXUXUXUXUXUXUXUXUXUXUXUXUXUXUXUXUXUXUXUXUXUXUX",
"UXhXAXd 9 1XqXkXkXjXwX0X9XeXfXjXkXhX8Xf 9 2XAXfXUXUXUXUXUXUXUXUXUXUXUXUXUXUXUXUXUXUXUXUXUXUXUXUXUXUX",
"UXjXlXAXAXjX5X} f f f f d f f <X<X1X8XzXSXxXlXjXUXUXUXUXUXUXUXUXUXUXUXUXUXUXUXUXUXUXUXUXUXUXUXUXUXUX",
"UXjXlXAXxXlXjXhXwXwXeXfXfXfXeXqXwXhXkXlXxXAXlXjXUXUXUXUXUXUXUXUXUXUXUXUXUXUXUXUXUXUXUXUXUXUXUXUXUXUX",
"UXjXlXAXxXlXkXhXfXwX0X8X7X8X0XwXfXhXlXlXxXxXlXhXUXUXUXUXUXUXUXUXUXUXUXUXUXUXUXUXUXUXUXUXUXUXUXUXUXUX",
"UXqXxXAXxXlXkXhXfXwXqX8X5X8XqXwXfXhXkXlXxXxXSX2XUXUXUXUXUXUXUXUXUXUXUXUXUXUXUXUXUXUXUXUXUXUXUXUXUXUX",
"UX8Xa lXLXjXjXhXfXqX9X6X7X8XqXwXfXhXkXkXIXfX5 lXUXUXUXUXUXUXUXUXUXUXUXUXUXUXUXUXUXUXUXUXUXUXUXUXUXUX",
"UXfXxXd 9 1XqXgXlXjXwXqX8XqXfXkXzXhX6X} 0 2XxXhXUXUXUXUXUXUXUXUXUXUXUXUXUXUXUXUXUXUXUXUXUXUXUXUXUXUX",
"UXjXlXSXAXkX3X<Xd d f f d d f d h.1X8XmXSXxXlXkXUXUXUXUXUXUXUXUXUXUXUXUXUXUXUXUXUXUXUXUXUXUXUXUXUXUX",
"UXjXlXAXxXlXjXhXwXwXfXfXfXhXfXwXgXdXkXlXxXAXlXhXUXUXUXUXUXUXUXUXUXUXUXUXUXUXUXUXUXUXUXUXUXUXUXUXUXUX",
"UXjXlXAXxXlXkXhXfXwXqX9X7X9XqXwXeXgXkXzXxXxXlXjXUXUXUXUXUXUXUXUXUXUXUXUXUXUXUXUXUXUXUXUXUXUXUXUXUXUX",
"UX5XlXAXxXlXjXhXfXqXqX6X5X8XqXwXeXjXkXlXAXxXAXUXUXUXUXUXUXUXUXUXUXUXUXUXUXUXUXUXUXUXUXUXUXUXUXUXUXUX",
"UX. 1XFXxXlXkXhXeXqXqX8X5X8XqXwXfXgXkXkXSXxXa UXUXUXUXUXUXUXUXUXUXUXUXUXUXUXUXUXUXUXUXUXUXUXUXUXUXUX",
"UXUX@ @ d qXhXxXjXwXqX5X5X7XqXwXlXlXfX6Xu @ UXUXUXUXUXUXUXUXUXUXUXUXUXUXUXUXUXUXUXUXUXUXUXUXUXUXUXUX",
"UXUXUXUX# X # & 9 p s d d d s i 5 % # X # UXUXUXUXUXUXUXUXUXUXUXUXUXUXUXUXUXUXUXUXUXUXUXUXUXUXUXUXUX",
"UXUXUXUXUXUXUXUXUXUXUXUXUXUXUXUXUXUXUXUXUXUXUXUXUXUXUXUXUXUXUXUXUXUXUXUXUXUXUXUXUXUXUXUXUXUXUXUXUXUX",
"UXUXUXUXUXUXUXUXUXUXUXUXUXUXUXUXUXUXUXUXUXUXUXUXUXUXUXUXUXUXUXUXUXUXUXUXUXUXUXUXUXUXUXUXUXUXUXUXUXUX",
"UXUXUXUXUXUXUXUXUXUXUXUXUXUXUXUXUXUXUXUXUXUXUXUXUXUXUXUXUXUXUXUXUXUXUXUXUXUXUXUXUXUXUXUXUXUXUXUXUXUX",
"UXUXUXUXuXUXUXUXUXUXUXUXUXUXUXUXUXUXUXUXUXUXUXUXUXUXUXUXUX'.'.V.`.`.`.`.[ _ Q R I P L F D Z C UXUXUX",
"UXUXUXUXIXUXUXUXUXUXUXUXUXUXUXUXUXUXUXUXUXUXUXUXUXUXUX].`.'.`.`.`.`.[ _ ) Q T P L H D C M m g k x UX",
"UXUXUXuXGXUXUXUXUXUXUXUXUXUXUXUXUXUXUXUXUXUXUXUXUXUXUX`.`.`.`.`.[ _ ) R I P K H Z C M m g k A N k UX",
"UXUXUXtXVXUXUXUXUXUXUXUXUXUXUXUXVXZXUXUXUXUXUXUXUXUXUX'.`.V.[ _ Q R I P K F D B M m h k N N A N M UX",
"UXUXPX:XMXJXUXUXUXUXUXUXUXUXUXaXaXnXGXUXUXUXUXUXUXUXUXT V.[ ) T I P P H D Z M m g m A z z N M J R UX",
"UXUXHX XsXMXBXZXUXUXUXUXUXUXUXiX.XyXvXVXUXUXUXUXUXUXUXR [ { ] _ ] ] ( Y Z B B D U ` / W I Q `.[ R UX",
"UXUXKX@XXX:XaXbXHXHXHXHXHXHXGX,XoX+X:XbXVXUXUXUXUXUXUXR _ V._ Q L K J S ! ' ' ! ~ J G L Q _ `._ T UX",
"UXUXHX#X@X$XOXXX.XXXXXXXXXXXXXOX#X@X#X&XVXVXUXUXUXUXUXR ] V._ Q I K D C m x m m C D L T Q _ V._ T UX",
"UXUXbX,X$X@X@X@X@X@X@X@X@X@X@X@X@X@X@X&X@XvXUXUXUXUXUXR ] { _ Q I L D B x k m x C D L T Q _ V.] I UX",
"UXUXJXKXXX@X@X@X@X@X@X@X@X@X@X@X@X@X@X$X$X$XUXUXUXUXUXv V.[ _ Q P K D B x h m m C D L T Q _ { `.b UX",
"UXUXUXMXcXXX#X@X@X@X@X#X@X#X@X@X@X@X@X$X*XUXUXUXUXUXUXY.2 ^ V.E T K D B m h h m C D H T E V.n 8 T.UX",
"UXUXUXUXbXbX-XoXOXOX+X+X+XOX@X@X@X@X@X=XUXUXUXUXUXUXUXQ./.M.y i j | l A m x x x N z } j p t )./.W.UX",
"UXUXUXUXUXVXMXNXsXpXuXuXuXuXuX>X+X@X=XUXUXUXUXUXUXUXUX~.^.^././.(.F.A.C.{.}.}.[.C.Z.L.~././.^./.Q.UX",
"UXUXUXUXUXUXUXUXVXVXBXVXBXVXVXtXXX;XUXUXUXUXUXUXUXUXUXQ.^./.^.Q.(.E.P.F.z.k.l.z.F.I.E.W.W.^.^.^.Q.UX",
"UXUXUXUXUXUXUXUXUXUXUXUXUXUXUXtX=XUXUXUXUXUXUXUXUXUXUXE.^.^.^.~.Q.E.I.K.J.J.J.D.K.I.E.Q.~.^.^.^.Q.UX",
"UXUXUXUXUXUXUXUXUXUXUXUXUXUXUXUXUXUXUXUXUXUXUXUXUXUXUXM././.^.Q.W.E.U.K.D.Z.N.D.P.U.E.Q.~.^.^.^.n.UX",
"UXUXUXUXUXUXUXUXUXUXUXUXUXUXUXUXUXUXUXUXUXUXUXUXUXUXUX*.q G././.R.U.I.K.D.N.z.D.K.I.U.E././.c.0 w.UX",
"UXUXUXUXUXUXUXUXUXUXUXUXUXUXUXUXUXUXUXUXUXUXUXUXUXUXUXq.s.5.6 r b.m.B.D.J.H.Z.Z.J.B._.v.e w 6.a.q.UX",
"UXUXUXUXUXUXUXUXUXUXUXUXUXUXUXUXUXUXUXUXUXUXUXUXUXUXUXq.t.u.r.t.q.#.X.h.h.1.h.h.2.O.$.e.r.t.t.t.q.UX",
"UXUXUXUXUXUXUXUXUXUXUXUXUXUXUXUXUXUXUXUXUXUXUXUXUXUXUXq.t.a.e.e.0.8.-.&... . ...&.-.8.0.e.e.a.t.q.UX",
"UXUXUXUXUXUXUXUXUXUXUXUXUXUXUXUXUXUXUXUXUXUXUXUXUXUXUXq.t.a.e.e.0.8.-.=.+.o.o.+.=.-.8.0.e.t.u.t.0.UX",
"UXUXUXUXUXUXUXUXUXUXUXUXUXUXUXUXUXUXUXUXUXUXUXUXUXUXUX,.t.u.t.e.0.8.-.=.+.o.o.+.=.-.8.q.e.t.u.p.h.UX",
"UXUXUXUXUXUXUXUXUXUXUXUXUXUXUXUXUXUXUXUXUXUXUXUXUXUXUX; <.i.f.e.8.8.-.=.+.o.o.+.@.-.8.8.q.d.i.w . UX",
"UXUXUXUXUXUXUXUXUXUXUXUXUXUXUXUXUXUXUXUXUXUXUXUXUXUXUXUX  : 3 <.2.:.;.7.$.#.#.$.#.i.:.3.* 4 % UXUXUX",
"UXUXUXUXUXUXUXUXUXUXUXUXUXUXUXUXUXUXUXUXUXUXUXUXUXUXUXUXUXUXUXO + : , < 7 7 7 7 < , : o O UXUXUXUXUX"
};
