/* XPM */
static char *makeVDFsmall[] = {
/* columns rows colors chars-per-pixel */
"50 56 239 2 ",
"   c #3B7770",
".  c #DB6500",
"X  c #D8620E",
"o  c #D27E0E",
"O  c #EF6602",
"+  c #F07701",
"@  c #F17B00",
"#  c #E7701E",
"$  c #CD7133",
"%  c #E86F20",
"&  c #8A7352",
"*  c #8F7956",
"=  c #8F795A",
"-  c #937D5D",
";  c #508C49",
":  c #BAB408",
">  c #AAA318",
",  c #B3A62C",
"<  c #E19400",
"1  c #ED9104",
"2  c #F19400",
"3  c #E29D1F",
"4  c #C4A800",
"5  c #CCBD00",
"6  c #D9B503",
"7  c #D4BE11",
"8  c #DCB11A",
"9  c #EAA802",
"0  c #F9A008",
"q  c #EAB100",
"w  c #E7B70D",
"e  c #E4BA1D",
"r  c #EA9E36",
"t  c #D4BA29",
"y  c #CBA03B",
"u  c #E3B82D",
"i  c #F4BF21",
"p  c #8EC207",
"a  c #A2C300",
"s  c #AEC205",
"d  c #A7CE07",
"f  c #A7D311",
"g  c #BCD418",
"h  c #90E715",
"j  c #BAEC04",
"k  c #9DC231",
"l  c #B3CE30",
"z  c #B9C53A",
"x  c #C3C007",
"c  c #D9C000",
"v  c #CCD103",
"b  c #CEDE01",
"n  c #D0DC04",
"m  c #DADF0F",
"M  c #C9C91C",
"N  c #E9C10F",
"B  c #EFD117",
"V  c #D7E100",
"C  c #D9E704",
"Z  c #D6CD2C",
"A  c #DDDC32",
"S  c #E7C837",
"D  c #F1CC3F",
"F  c #B0BE4C",
"G  c #968161",
"H  c #9A8563",
"J  c #9E8966",
"K  c #9B866A",
"L  c #9E8A6B",
"P  c #A38F6B",
"I  c #A5916E",
"U  c #A8956E",
"Y  c #BA936B",
"T  c #A59273",
"R  c #A99675",
"E  c #AC9A75",
"W  c #AC9A7B",
"Q  c #B29F7D",
"!  c #B3A27E",
"~  c #B9A67E",
"^  c #E88C45",
"/  c #EA9E47",
"(  c #F7B346",
")  c #E7A856",
"_  c #E8B157",
"`  c #E6BC50",
"'  c #F3BE52",
"]  c #D79F6C",
"[  c #D3B460",
"{  c #D3A178",
"}  c #CBBA7B",
"|  c #F8B462",
" . c #E3B273",
".. c #A6CE50",
"X. c #ADCD73",
"o. c #B9D07E",
"O. c #D6C94E",
"+. c #DDDA47",
"@. c #E2D847",
"#. c #DEDF65",
"$. c #C2C877",
"%. c #E6C962",
"&. c #E7D366",
"*. c #E6DC6B",
"=. c #F0D47B",
"-. c #75BAA6",
";. c #AF9D82",
":. c #B19F85",
">. c #B5A482",
",. c #B7A986",
"<. c #BDAC86",
"1. c #B7A78C",
"2. c #BDAD8A",
"3. c #C2B28B",
"4. c #CDB788",
"5. c #CABA8F",
"6. c #D1BE85",
"7. c #D6B38C",
"8. c #DCBB8F",
"9. c #C4B592",
"0. c #C6B996",
"q. c #CCBC95",
"w. c #C6B89A",
"e. c #CCBE9A",
"r. c #D1BB91",
"t. c #D3BA9D",
"y. c #EBA68C",
"u. c #E7A794",
"i. c #E7B69A",
"p. c #C5B2A6",
"a. c #CFBFA3",
"s. c #C8B9AE",
"d. c #D4B3A1",
"f. c #D0BFA5",
"g. c #EBBCA4",
"h. c #F3BFA4",
"j. c #CFC98D",
"k. c #D1CC85",
"l. c #D8CD81",
"z. c #D4C88E",
"x. c #DEDE8A",
"c. c #CEC097",
"v. c #CEC19C",
"b. c #D1C39C",
"n. c #DAC39E",
"m. c #DFCE9A",
"M. c #C1D096",
"N. c #DDDA9F",
"B. c #F4C383",
"V. c #F1C889",
"C. c #F8C893",
"Z. c #F4CA9F",
"A. c #CDC0A2",
"S. c #D3C5A3",
"D. c #DBC2A1",
"F. c #D6C9A5",
"G. c #D9CDA6",
"H. c #D3C4AB",
"J. c #D6CAAA",
"K. c #D9CDAC",
"L. c #D1D5A8",
"P. c #DBD0AE",
"I. c #CDC3B6",
"U. c #D3C3B2",
"Y. c #D6CBB2",
"T. c #DACEB2",
"R. c #D4C4BB",
"E. c #D8C7BF",
"W. c #D4CFBA",
"Q. c #CFD6B3",
"!. c #DCD2B5",
"~. c #DDDCB6",
"^. c #DFD5B9",
"/. c #F2C4A4",
"(. c #F5C8A6",
"). c #F7CBAA",
"_. c #F6D0A7",
"`. c #F9D1A2",
"'. c #EDC8BB",
"]. c #F7CCBC",
"[. c #E0D6B7",
"{. c #E0D7BB",
"}. c #E3DBBD",
"|. c #E8DFBF",
" X c #FBD2BB",
".X c #E7E0BF",
"XX c #E8E0BF",
"oX c #D3C6C5",
"OX c #D5CFC5",
"+X c #DBCFC0",
"@X c #DAD3C6",
"#X c #DCDAC6",
"$X c #DCD5CA",
"%X c #DED9CD",
"&X c #DFDAD5",
"*X c #E9CDC4",
"=X c #F3C2C0",
"-X c #F4CAC1",
";X c #E1D7C1",
":X c #E4DBC4",
">X c #E9DEC2",
",X c #E4D6CB",
"<X c #E5DDCB",
"1X c #E8DFCB",
"2X c #F5D1C4",
"3X c #FBD4C5",
"4X c #F7D5CE",
"5X c #F7D9C9",
"6X c #FADBCB",
"7X c #E0D6D7",
"8X c #E6DED2",
"9X c #E9DFD3",
"0X c #E6DFD8",
"qX c #E8DDD8",
"wX c #F9D6D4",
"eX c #FBDDD2",
"rX c #E9E1C4",
"tX c #E7E0CD",
"yX c #E8E1CB",
"uX c #E7E1D2",
"iX c #E9E1D3",
"pX c #E4E0DB",
"aX c #EAE3DC",
"sX c #FDE1D5",
"dX c #FCE3DD",
"fX c #E4DDE5",
"gX c #E9DFE2",
"hX c #FFDFE0",
"jX c #EAE3E2",
"kX c #FEE5E2",
"lX c #FDEAE5",
"zX c #FCE5EF",
"xX c #FEEDEB",
"cX c #FEF1EE",
"vX c #FDECFE",
"bX c #FEF3F2",
"nX c #FFF9F7",
"mX c #FFFAFD",
"MX c None",
/* pixels */
"MXMXMXMXMXMXMXMXMXMXMXMXMXMXMXMXMXMXMXMXMXMXMXMXMXMXMXMXMXMXMXMXMXMXMXMXMXMXMXMXMXMXMXMXMXMXMXMXMXMX",
"MXMXMXMXMXMXMXMXMXMXMXMXMXMXMXMXMXMXMXMXMXMXMXMXMXMXMXMXMXMXMX{.!.!.|.!.[.{.^.^.|.Y.W = - H MXMXMXMX",
"MXMXMXMXMXMX{.{.^.|.{.^.{.|.^.^.{.{.|.^.^.^.^.|.|.^.^.|.^.|.|.|.|.|.:XXX:X|.|.^.|.;.& = * & - MXMXMX",
"MXMXMXMXMXT.{.:X<X8XuX8X9X8X<X<X<X8X<X<X<XyXyXyXuXuXuXuX0X0XuX0XaXaXaXiXtX<X|.|.H.- K G - G * H MXMX",
"MXMXMXMX>X|.:X<XiXiXiXaXaXiXaXpXaXaXaXiXaXaXpXaXiXaXaXaXaXaXiXaXuXaXuXaXyXrXXXXX1.L K K H H H G :.MX",
"MXMXMXrX|.:X:XyXtXiXiXiXtXiXiXuXiXiXiXuXiXiXuXuXiXiXuXuXuXiXiXtXuXuXtXtXyXrX|.:XR T E W I J K J R MX",
"MXMXMXrXXXrXrXrXrXrXrXrXrXtX:XrXrXrX:XrXrXrX:X:XrXrXrXrXrXyXtXrXyX:XyX:X:XXX|.|.0.e.>.H I E P I R MX",
"MXMXMXrXXXXXXXXX:XXXXXXXXXXX|.|.|.|.XX|.XX|.|.|.|.XX:X^.|.^.|.|.rX^.|.|.^.|.|.:XW.S.K G K E E U E MX",
"MXMXMX>X|.|.{.|.|.|.{.|.|.|.^.|.^.|.^.|.^.|.{.|.^.|.|.|.~.|.^.^.|.!.~.|.!.^.!.:XJ.0.I E U :.Q E Q MX",
"MXMXMX>X{.{.[.{.!.^.^.!.^.^.^.^.^.^.^.^.^.!.^.!.!.W.!.!.T.!.!.!.!.!.T.Y.P.!.!.!.A.9.! ! Q ,.>.Q ! MX",
"MXMXMXMX{.[.[.[.T.T.T.T.T.K.T.Y.Y.W.J.Y.J.Y.K.J.J.J.J.J.J.J.H.F.S.H.H.J.F.J.F.J.A.,.3.3.3.5.3.~ <.MX",
"MXMXMXMXMXT.D.K.J.J.J.J.J.J.J.J.F.F.F.H.S.S.S.S.S.A.v.A.v.v.v.v.v.e.v.e.e.v.b.b.S.>.b.t.w.S.3.<.3.MX",
"MXMXMXMXMXMXP.G.J.K.K.T.H.H.H.H.H.H.H.H.H.H.K.H.S.H.S.S.A.v.e.e.e.q.q.q.q.q.q.c.v.T.S.b.L.K.5.3.MXMX",
"MXMXMXMXMXMXMXMXMXMXMXMXH.a.a.a.A.S.H.H.H.U.U.U.U.U.U.s.U.H.f.H.f.a.a.e.e.e.q.0.q.e.J.D.D.q.5.q.MXMX",
"MXMXMXMXMXMXMXMXMXMXMX^.{.!.|.^.|.:X:X1XtX1XiX9X9X8X<X<X<X,X@X{.!.T.K.F.H.A.F.v.e.q.q.e.q.5.c.MXMXMX",
"MXMXMXMXMXMXMXMXMXMXMX|.|.!.{.|.:XtXiXiXaXaXaXjXaXaXaXaXuXiX1X<X#X|.!.!.P.K.D.F.S.b.b.c.c.5.c.MXMXMX",
"MXMXMXMXMXMXMXMXMXMXMX^.^.^.:X:X<XiXiXaXaXaXjXjXaXjXjXaXaXaXaXtX:X#X!.P.P.K.J.F.b.b.b.c.q.5.MXMXMXMX",
"MXMXMXMXMXMXMXMXMXMX^.!.^.|.:X<X<XiXaXaXaXjXjXaXjXaXaXjXaXaXaXiX<X,X^.!.L.D.D.F.F.b.c.c.q.q.MXMXMXMX",
"MXMXMXMXMXMXMXMXMXMX^.^.|.^.:X1X9XaXaXaXjXaXaXjXaXjXaXaXjXaXaXiX8X<X{.!.!.K.F.F.b.b.b.c.q.b.MXMXMXMX",
"MXMXMXMXMXMXMXMXMX{.^.^.|.:X<X9XiXaXaXaXaXaXaXaXaXaXaXjXaXaXaXaX0X<X:X^.T.K.F.S.b.b.c.c.t.MXMXMXMXMX",
"MXMXMXMXMXMXMXMXMX{.^.{.^.z.[ t.,XaXpXaXaXaXaXaXaXaXaXaXaXaX4.> -.OX<X^.!.F.F.b.F.b.b.c.b.MXMXMXMXMX",
"MXMXMXMXMXMXMXMX{.^.^.^.,Xz.6 2 Y U.+X<X8X8X0X0X0X0X0X0XuXjX, x ;   X.,XP.P.F.F.b.b.c.c.MXMXMXMXMXMX",
"MXMXMXMXMXMXMXMX^.^.^.|.:X8X$.q ( B. .8.7.d.p.p.s.R.oXU.I.H.s : 4 6 %.@XP.L.F.F.F.b.c.b.MXMXMXMXMXMX",
"MXMXMXMXMXMXMX^.^.^.^.^.>X9X[.u ' /.(.(.6X Xh.i.g.-XeXeX*Xy C V B 6.+X{.T.K.D.S.b.b.b.F.MXMXMXMXMXMX",
"MXMXMXMXMXMXMX{.{.!.{.^.<X<X0X@.D sXxX4X/.-X4XwX2X-X4XlXxXM b N q.0X<X^.T.K.F.S.v.q.q.MXMXMXMXMXMXMX",
"MXMXMXMXMXMXMX{.!.[.{.|.<X8XjX#.t sXcXbXbXdXkXdXlXbXeXsXK.h b } 0X<X@X^.K.J.F.F.b.q.MXMXMXMXMXMXMXMX",
"MXMXMXMXMXMX{.^.{.{.{.#X:X8XgXx.w C.bXbXbXbXxXbXxXxXlXhXz j O.&X<X<X,X^.K.F.F.b.b.b.MXMXMXMXMXMXMXMX",
"MXMXMXMXMXMX{.^.!.!.{.,X<X<X0XG.e | kXbXbXkXxXlXlXlXnX'.m Z <XuX<X<X^.!.K.K.F.S.b.S.MXMXMXMXMXMXMXMX",
"MXMXMXMXMX:X{.^.!.{.{.:X<X8XpX^.8 `.3XxXcXxXxXkXbXcXmXk.v T.8X8X<X@X{.T.L.D.F.F.b.T.MXMXMXMXMXMXMXMX",
"MXMXMXMXMX{.!.^.^.^.{.:X<XuXiX#Xe V.eXeXlXbXbXlXxXcXvXA F 8X8X8X<X|.^.K.K.F.S.b.F.MXMXMXMXMXMXMXMXMX",
"MXMXMXMXMX{.{.[.^.{.{.#X<X8X<XfXD _ eXsXkXxXbXmXnXmX_.d L.8X8X<X<X@X!.K.K.K.F.S.J.MXMXMXMXMXMXMXMXMX",
"MXMXMXMX,X[.{.!.^.^.:X<X<X<X<XjX&.3 6XlXdXxXbXbXnXvX+.k #X8X8X<X:X{.!.K.K.F.F.b.MXMXMXMXMXMXMXMXMXMX",
"MXMXMXMX{.{.{.!.{.{.|.:X<X<X8X8Xm.9 ).lXlXlXcXcXmX Xf o.8X8X<X<X@X^.!.J.K.D.F.F.MXMXMXMXMXMXMXMXMXMX",
"MXMXMXMX{.[.!.^.{.{.@X:X<X8X8X8X,Xi / kXlXxXbXcXvX*.p Q.8X8X8X,X|.!.!.K.L.D.F.T.MXMXMXMXMXMXMXMXMXMX",
"MXMXMX:X{.!.!.^.^.,X{.,X<X<X<X<XaXO.1 ].lXcXcXmX6Xg ..#X8X8X<X<X:X!.P.K.L.K.F.MXMXMXMXMXMXMXMXMXMXMX",
"MXMXMX,X[.!.{.^.^.{.:X<X<X8X<X<XaXD.2 ^ kXxXbXvX=.a M.aX<X<X<X:X^.!.P.K.D.F.J.MXMXMXMXMXMXMXMXMXMXMX",
"MXMXMX{.[.^.{.^.^.^.#X:X<X<X<X8X1X8Xr @ y.xXbX3X7 l E.uXyXyX<X:X|.!.P.K.F.F.!.MXMXMXMXMXMXMXMXMXMXMX",
"MXMXMX{.!.{.^.^.@X,X:X<X<X8X<X<XtXiXD.+ # u.=X) 5 $.qX9X<X<X:X@X^.!.P.P.F.F.MXMXMXMXMXMXMXMXMXMXMXMX",
"MXMX:X{.{.!.{.{.|.,X<X,X<X<X<X<X<X1XiX] O % $ < t Y.iX<X<X<X<X|.^.T.K.J.F.P.MXMXMXMXMXMXMXMXMXMXMXMX",
"MXMX{.!.!.{.[.^.#X^.:X<X<X<X<X<X1XtX1X<X{ X . o r.iX<X<X<X#X:X#X^.!.!.K.D.!.MXMXMXMXMXMXMXMXMXMXMXMX",
"MXMX|.^.!.^.!.|.|.@X:X<X<X<X<X<X<XyXyXyXyX@Xt.T.<X<X<X<X<X<X:X^.[.!.K.K.F.^.MXMXMXMXMXMXMXMXMXMXMXMX",
"MXMX^.^.^.^.^.^.{.:X:X:X:X<X<X:X<XyXyXyXtXtX1XrX<X<X<X<X<X<X:X:X!.!.K.K.P.MXMXMXMXMXMXMXMXMXMXMXMXMX",
"MXMXJ.^.^.^.^.,X,X@X:X:X:X>X:X1XyXyXyXyXtXtXrXtXtX<X<X<X:X:X:X^.!.!.P.K.!.MXMXMXMXMXMXMXMXMXMXMXMXMX",
"MXMX^.^.!.^.^.{.^.|.|.@X:X:X:X:XrXrXyXyXrXtXtXtXtX:X:X<X<X#X:X^.[.P.K.K.K.MXMXMXMXMXMXMXMXMXMXMXMXMX",
"MX{.^.^.!.!.^.^.^.:X:X^.:X:X|.:XrXrXrXrXrXyXyX:XrXrX<X:X:X:X:X^.!.!.K.D.J.2.0.T - L MXMXMXMXMXMXMXMX",
"MX{.!.{.|.^.^.!.^.^.^.^.|.{.|.|.XX:X:XrXrXrXrXrX<X:X:X<X:X:X^.^.P.P.P.P.F.v.2.H H H ;.MXMXMXMXMXMXMX",
"MX{.{.[.^.!.^.!.^.^.^.|.^.|.{.|.|.XXXXrXrXrX:XrX:X:X:X:X:X^.|.^.!.P.P.P.F.F.W P I P R MXMXMXMXMXMXMX",
"MX{.{.!.^.^.^.~.!.|.!.|.^.^.|.|.XXXXXXXXrXrX|.|.rXXX:X:X:X^.^.~.!.P.K.P.A.v.0.>.R R W MXMXMXMXMXMXMX",
"MX{.^.^.^.!.@X^.^.^.^.^.|.|.^.XXXXrXXXrXXXXX|.|.|.^.#X|.^.^.^.!.P.P.G.!.v.c.P.! R >.>.MXMXMXMXMXMXMX",
"MX{.!.^.!.!.!.!.^.^.^.^.^.^.|.:X^.|.|.:XXX|.:X^.|.|.|.^.|.^.^.^.!.P.P.!.2.2.c.,.>.,.,.MXMXMXMXMXMXMX",
"MXMX!.^.!.T.!.E.T.^.^.!.^.^.^.^.^.^.:X|.^.^.^.^.^.{.^.^.^.^.!.!.P.P.J.!.2.E 2.0.0.9.9.MXMXMXMXMXMXMX",
"MXMX^.T.Y.Y.J.Y.Y.Y.Y.Y.Y.E.!.!.^.!.!.^.^.^.^.^.!.W.^.!.Y.W.!.T.P.P.D.!.0.T 2.F.S.q.A.MXMXMXMXMXMXMX",
"MXMXMX^.^.^.^.!.!.!.!.Y.T.!.!.!.P.!.P.!.!.L.T.T.J.Y.J.Y.Y.J.J.J.J.J.J.F.L.F.e.e.b.F.W.MXMXMXMXMXMXMX",
"MXMXMXMXMX^.^.^.!.|.{.|.|.|.|.rXXXrXrXrXrXXX{.|.|.!.^.!.!.T.!.K.P.K.K.F.!.K.P.D.D.P.MXMXMXMXMXMXMXMX",
"MXMXMXMXMXMXMXMXMXMXMXMXMXMXMXMXMXMXMXMXMXMXMXMXMX|.|.|.|.^.|.!.!.P.P.F.F.P.G.F.G.MXMXMXMXMXMXMXMXMX",
"MXMXMXMXMXMXMXMXMXMXMXMXMXMXMXMXMXMXMXMXMXMXMXMXMXMXMXMXMXMXMXMXMXMXMXMXMXMXMXMXMXMXMXMXMXMXMXMXMXMX"
};
