/* XPM */
const static char *VDCsmall[] = {
/* columns rows colors chars-per-pixel */
"50 50 256 2 ",
"   c #1E2729",
".  c #1C2922",
"X  c #242C2E",
"o  c #29352F",
"O  c #272E30",
"+  c #292E32",
"@  c #2C3133",
"#  c #2E3833",
"$  c #343E37",
"%  c #35353F",
"&  c #4A363F",
"*  c #53383B",
"=  c #375826",
"-  c #3D443E",
";  c #447B25",
":  c #486E32",
">  c #5E6135",
",  c #777527",
"<  c #78712E",
"1  c #606334",
"2  c #3E3B44",
"3  c #3C354E",
"4  c #4C3544",
"5  c #433F49",
"6  c #4A3757",
"7  c #4A3B52",
"8  c #473653",
"9  c #433A64",
"0  c #553E78",
"q  c #3D4241",
"w  c #36475F",
"e  c #374862",
"r  c #2A4675",
"t  c #314470",
"y  c #414446",
"u  c #45414B",
"i  c #484A48",
"p  c #454949",
"a  c #534A41",
"s  c #5F4446",
"d  c #4F564A",
"f  c #50574B",
"g  c #525A4D",
"h  c #4D4156",
"j  c #504B58",
"k  c #4F5255",
"l  c #545255",
"z  c #5A5F54",
"x  c #53565A",
"c  c #5A5E58",
"v  c #575B5E",
"b  c #624842",
"n  c #6D544D",
"m  c #71574B",
"M  c #765E4F",
"N  c #645D5A",
"B  c #665D55",
"V  c #516246",
"C  c #5A774A",
"Z  c #5F794C",
"A  c #596450",
"S  c #78604E",
"D  c #797447",
"F  c #7A6453",
"G  c #484D66",
"H  c #454E6C",
"J  c #5C4D64",
"K  c #49506A",
"L  c #4C5567",
"P  c #584C77",
"I  c #5B4E7A",
"U  c #5F5578",
"Y  c #65596B",
"T  c #5C647C",
"R  c #676561",
"E  c #676965",
"W  c #65646D",
"Q  c #6A666D",
"!  c #706D6E",
"~  c #74766F",
"^  c #6F6D79",
"/  c #6B6270",
"(  c #726C7A",
")  c #74667B",
"_  c #777A79",
"`  c #893918",
"'  c #B53E01",
"]  c #B93F00",
"[  c #853C22",
"{  c #C33E03",
"}  c #CA3E03",
"|  c #C63F0E",
" . c #B74003",
".. c #BD4101",
"X. c #894B3B",
"o. c #C54300",
"O. c #CC4402",
"+. c #CE4803",
"@. c #CE4108",
"#. c #D24601",
"$. c #D94500",
"%. c #D64900",
"&. c #DB4B01",
"*. c #D1420A",
"=. c #D8440D",
"-. c #CE4313",
";. c #D14010",
":. c #DB4715",
">. c #DD4B1C",
",. c #C05319",
"<. c #C35417",
"1. c #E34D00",
"2. c #E94F00",
"3. c #E35105",
"4. c #EB5103",
"5. c #F55401",
"6. c #FB5500",
"7. c #FE5A05",
"8. c #F75509",
"9. c #FE5E0B",
"0. c #FF6306",
"q. c #FE610D",
"w. c #FE6515",
"e. c #F0661F",
"r. c #FE6719",
"t. c #FF6A1C",
"y. c #D1652A",
"u. c #C66533",
"i. c #E46B2B",
"p. c #FF6E22",
"a. c #F9622A",
"s. c #FF7126",
"d. c #FF752D",
"f. c #F77730",
"g. c #FF7731",
"h. c #FF7A35",
"j. c #FF7D39",
"k. c #847F4A",
"l. c #AE734F",
"z. c #B17C5B",
"x. c #8F6F6E",
"c. c #946F6C",
"v. c #DA7F5A",
"b. c #3AA400",
"n. c #32AC00",
"m. c #3CAB00",
"M. c #3FB300",
"N. c #419705",
"B. c #409C0D",
"V. c #438D1A",
"C. c #42821E",
"Z. c #439119",
"A. c #4DA70E",
"S. c #43A20E",
"D. c #41B700",
"F. c #42BB00",
"G. c #4BAE14",
"H. c #51B713",
"J. c #53B41E",
"K. c #438220",
"L. c #498F22",
"P. c #4E9625",
"I. c #5CAC2C",
"U. c #5BB427",
"Y. c #5DB32B",
"T. c #5CB925",
"R. c #66AF38",
"E. c #62B232",
"W. c #6AB63C",
"Q. c #3EC600",
"!. c #3EC900",
"~. c #3DD400",
"^. c #45C400",
"/. c #46CA00",
"(. c #49CC01",
"). c #4EC50E",
"_. c #53CF0F",
"`. c #45D300",
"'. c #4BD400",
"]. c #4EDC00",
"[. c #4FD209",
"{. c #4CE200",
"}. c #49EE00",
"|. c #50E201",
" X c #4BF100",
".X c #5CCB21",
"XX c #678D51",
"oX c #6C8A5C",
"OX c #658251",
"+X c #77826F",
"@X c #9E9D19",
"#X c #ACA90A",
"$X c #BDBD09",
"%X c #BFBD16",
"&X c #888A2D",
"*X c #9B992A",
"=X c #8A8D30",
"-X c #8C8E3D",
";X c #959638",
":X c #ADA937",
">X c #C0BE00",
",X c #FF823C",
"<X c #C4BF25",
"1X c #C1BC33",
"2X c #C5C300",
"3X c #C9C700",
"4X c #CDCB00",
"5X c #C1C30F",
"6X c #D0CE00",
"7X c #D4D200",
"8X c #D8D600",
"9X c #DCDA00",
"0X c #D6D50A",
"qX c #C6C418",
"wX c #CED018",
"eX c #D3D313",
"rX c #E1DD00",
"tX c #E2DF1D",
"yX c #E3E100",
"uX c #E9E700",
"iX c #E7E800",
"pX c #EDEB00",
"aX c #E7E50C",
"sX c #ECEB0B",
"dX c #F0EE00",
"fX c #F4F201",
"gX c #F8F600",
"hX c #FEFC01",
"jX c #E6E417",
"kX c #9D995A",
"lX c #B5B04C",
"zX c #A8A85B",
"xX c #B1AD59",
"cX c #ADB05E",
"vX c #818760",
"bX c #A29F6E",
"nX c #A6A26F",
"mX c #A8A46C",
"MX c #FF8443",
"NX c #FF8B46",
"BX c #FF894B",
"VX c #FF8E53",
"CX c #FF9153",
"ZX c #FF945A",
"AX c #FF9964",
"SX c #FF9D6A",
"DX c #5E4481",
"FX c #624E82",
"GX c #5F6783",
"HX c #5E7592",
"JX c #676F8D",
"KX c #6B6D83",
"LX c #777580",
"PX c #797783",
"IX c #7A7882",
"UX c None",
/* pixels */
"UXUXUXUXUXUXUXUXUXUXVXMXZXVXBXMXMXBXMXMXMXMXMXj.j.g.d.d.t.t.r.r.9.9.7.6.7.7.5.6.UXUXUXUXUXUXUXUXUXUX",
"UXUXUXUXUXUXUXVXVXBXBXBXMXj.MXMXMXMXMXMXMXj.g.g.d.p.t.t.t.q.9.7.7.6.6.5.2.1.1.1.&.1.&.UXUXUXUXUXUXUX",
"UXUXUXUXUXBXZXMXMXMXMXMXBXMXMXMXMXBXj.j.h.g.g.p.p.r.r.w.9.9.7.6.6.5.5.3.1.1.&.#.O.o.o.#.UXUXUXUXUXUX",
"UXUXUXUXAXBXMXMXMXMXMXBXMXMXMXMXj.j.j.g.d.p.p.t.r.w.9.9.6.6.6.5.4.1.&.&.#.#.O.o.o...' ' { ..UXUXUXUX",
"UXUXUXSXMXMXMXMXMXMXMXMXMXMXMXj.j.g.d.p.p.r.r.w.9.9.7.6.6.5.2.1.1.&.&.#.O.o.o.' ' ' { @.@.@.' UXUXUX",
"UXUXUXMXMXMXMXMXMXMXMXMXMXj.h.g.d.s.p.r.r.w.9.7.6.6.5.5.2.1.1.&.#.#.O.O.....' ' { O.@.@.@.@.] UXUXUX",
"UXUXUXBXMXMXBXMXMXMXj.j.h.d.d.p.p.r.r.w.9.9.7.6.6.5.4.1.1.&.&.#.O.o.o.] ] ' { @.} @.@.} @.@.] UXUXUX",
"UXUXUXh.MXMXMXMXMXj.j.d.d.d.t.r.r.w.9.6.6.6.6.5.2.1.1.&.#.#.O.O.o.' ' ] } } @.@.=.@.@.=.@.{ #.UXUXUX",
"UXUXUX7.BXBXj.j.g.g.p.d.t.r.r.w.9.7.7.6.5.5.2.2.1.&.#.#.O.o.o...' ] | @.@.@.@.@.} O.=.} ..o.q.UXUXUX",
"UXUXUX9.9.j.BXj.d.p.t.r.r.w.9.7.7.6.5.5.2.1.1.&.#.#.O.o.o. .' ' o.@.@.@.@.@.=.} =.@.] #.3.t.7.UXUXUX",
"UXUXUX7.r.p.h.,Xj.h.d.p.9.6.6.6.5.5.4.3.1.&.#.#.O.O.....' ' { O.@.;.;.@.;.{ #.2.&.1.e.d.d.w.q.UXUXUX",
"UXUXUX7.r.p.g.MXh.d.d.h.j.h.d.w.5.&.&.#.#.#.o.o.] ] ] } =.:.:.>.>.o.&.6.t.w.7.7.r.MXMXh.s.w.7.UXUXUX",
"UXUXUX9.w.s.g.MXj.d.p.t.t.t.p.h.BXCXZXZXZXCXCXCXCXVXCXCXBXCXCXCXBXj.s.w.w.w.p.g.g.h.MXg.s.w.7.UXUXUX",
"UXUXUX7.w.s.h.MXj.g.d.t.t.9.9.6.5.3.&.&.3.4.9.9.9.0.q.8.4.3.%.&.1.5.5.9.9.r.p.s.g.j.MXj.s.w.7.UXUXUX",
"UXUXUX7.r.s.g.MXj.g.s.t.r.9.9.6.5.4.3.%.+... .' | -.'  ...+.%.3.2.6.6.9.9.r.r.s.d.j.j.j.s.r.9.UXUXUX",
"UXUXUX9.w.s.g.MXh.d.s.p.t.9.9.6.5.4.3.#.#.O.' ' { @. . .+.+.#.3.2.5.6.9.9.r.p.p.g.j.MXj.s.r.7.UXUXUX",
"UXUXUX9.r.s.g.MXh.d.p.p.t.q.9.6.5.4.1.#.#.+. .] { O...' o.O.#.3.2.5.6.7.q.r.t.s.g.j.MXh.s.w.7.UXUXUX",
"UXUXUX7.w.s.g.MXj.d.d.t.t.q.7.6.7.3.3.#.#.O. . .{ @.' ] O.O.#.1.4.5.6.9.9.t.p.p.d.j.MXh.s.r.7.UXUXUX",
"UXUXUXq.r.s.g.MXj.d.s.p.w.9.7.6.5.2.1.&.#.O.] ] { @.' ] O.O.&.1.2.5.6.q.9.t.p.d.g.j.MXg.s.r.q.UXUXUX",
"UXUXUXc.q.f.d.MXj.d.s.t.t.q.9.6.5.4.1.#.O.O.] ] { @.'  .o.#.#.1.4.5.6.7.9.t.t.p.d.j.MXg.s.q.x.UXUXUX",
"UXUXUX*Xp a.MXMXj.d.s.t.t.9.7.6.6.2.1.#.#.O.] ..{ @.] ] o.+.&.1.4.5.7.7.q.t.t.s.d.j.MX,Xv.y :XUXUXUX",
"UXUXUXfX*Xr [ z.g.,Xd.p.t.9.9.6.5.2.1.&.#.O.] ] { } ' ] o.+.#.1.4.5.7.7.9.t.e.d.,Xg.l.X.t :XfXUXUXUX",
"UXUXUXuXfXyXE x a R u.d.t.r.9.6.5.1.1.#.#.O.' ] { @.] ] o.O.#.1.3.5.5.w.r.t.d.u.c a x ~ dXfXuXUXUXUX",
"UXUXUXuXfXfXhXeXkXD K w ^ X...y.i.6.1.2.1.$.{ { { } { { #.1.2.1.8.i.y. .` HXe L k.zXtXhXfXdXuXUXUXUX",
"UXUXUXpXdXgXhXhXhXgXjX<X@XvXJXT G 4 4 * b m M F F F F M n b * 4 4 K KX_ *X#XqXjXhXhXhXhXgXdXpXUXUXUX",
"UXUXUXuXpXgXhXhXhXgXfXfXfXpXyXyXuXuXrX7X<XlXmXbXbXbXmXxX1X6XrXuXfXfXyXyXiXfXgXfXgXhXhXhXgXpXuXUXUXUX",
"UXUXUXuXdXgXhXhXhXhXgXfXdXpXyXyXrXrX8X8X9X9XrX9X0XeX9X9XrX9X6X8X9X9XyXyXiXfXfXgXhXhXhXhXgXdXyXUXUXUX",
"UXUXUXuXdXgXhXhXhXhXgXfXfXpXpXyXrXrX8X7X6X6X2X2X>X>X2X2X2X6X6X8X9XyXyXuXpXfXfXfXhXhXhXhXfXdXpXUXUXUX",
"UXUXUXuXdXgXhXhXhXhXgXdXdXpXpXyXrX9X8X7X6X4X2X2X>X>X2X2X6X6X8X8X9XyXyXuXpXdXfXgXhXhXhXhXgXdXuXUXUXUX",
"UXUXUXuXdXfXhXhXhXhXgXfXdXpXuXyXrXrX8X7X6X4X2X2X>X>X2X2X2X6X7X8X9XyXyXuXpXdXfXgXgXhXhXhXgXdXuXUXUXUX",
"UXUXUXdXsXhXhXhXhXhXgXfXdXpXuXyXrX9X8X7X6X4X2X2X>X>X2X2X4X6X7X8X9XrXyXuXpXdXfXgXhXhXhXhXfXpXfXUXUXUX",
"UXUXUX_ hXsXhXhXhXhXgXfXdXpXuXyXyX9X8X7X6X6X2X2X>X>X2X2X4X6X6X8X9XyXyXuXpXdXfXgXhXhXhXhXfXhXPXUXUXUX",
"UXUXUXN.9 5XhXhXhXhXfXfXfXpXpXyXyX9X8X7X4X4X2X2X>X>X2X2X4X4X7X8X9XyXyXiXpXdXfXgXhXhXhXhX%X9 A.UXUXUX",
"UXUXUX'.S.0 > ;XhXhXgXpXpXpXyXyXyX9X8X7X6X6X2X2X>X>X2X2X4X6X7X8X9XyXyXiXpXdXpXgXhXhX-X> P G./.UXUXUX",
"UXUXUX/.'./.Z g 3 ! 2XaXsXfXfXpXyX9X7X7X6X4X2X2X>X>X2X2X3X4X7X8X9XyXiXdXpXsXaX$XQ 3 A OX~.(./.UXUXUX",
"UXUXUX(.'.'.|.'.I.: FXI B , =XmXeXyXfXyXyX8X7X4X3X3X6X6X8XyXiXpXyXwXcX&X< N U U ; E.[.{.'.'./.UXUXUX",
"UXUXUX(.(.'.{.|.|.|./.M.S.XX_ g q u q x W ( LXPXIXIXPX_ ( W k 2 q q A +XP.b.M.'.].|.|.].'.'.(.UXUXUX",
"UXUXUX/.'.'.'.|.{.'.'.'.'./.!.!.`.M.Q.H.E.R.Y.I.Y.T.Y.E.W.T.^././.`./.Q./.'.'.'.'.|.|.].'.'.(.UXUXUX",
"UXUXUX(.'.'.'.|.{.'.'.'.'.(././.^.^.F.F.M.M.m.m.b.b.b.m.M.M.M.M.^.^.^.(./.'.'.'.'.|.|.{.'.'./.UXUXUX",
"UXUXUX/.(.'.|.|.|.].'.'.(.(./.^.^.F.F.F.M.M.m.m.b.n.m.m.M.M.F.F.F.^././.(.'.'.'.'.|.|.'.'.(.(.UXUXUX",
"UXUXUX(.'.].{.|.|.'.'.'.'.(.(.^.^.F.F.D.M.M.m.b.b.b.m.m.m.M.D.F.F.^.^.(.`.'.'.'.{.|.|.].'.'.(.UXUXUX",
"UXUXUX(.'.'.'.|.|.'.'.'.'.'.(.^.^.^.F.F.M.M.m.m.b.b.b.m.M.M.D.D.^.^.^.^.(.'.'.'.|.'.|.].'.'./.UXUXUX",
"UXUXUX.X(.'.'.|.|.'.'.'.'.(.(.^.^.F.F.D.M.M.m.m.b.b.m.m.m.D.D.F.F.^./.(.(.'.'.'.'.{.|.].'.(.).UXUXUX",
"UXUXUX= [.'.{.|.{.'.{.'.(.(.(.^.^.F.F.F.M.M.m.b.b.b.m.m.m.D.D.F.F.^.^././.'.'.'.].|.|.].'._.j UXUXUX",
"UXUXUX+ c J.}.'.].{.'.'.'.(././.^.F.F.D.M.D.m.b.b.b.m.m.m.D.D.F.F.^.^.(./.'.'.'.].'.|. XG.Y . UXUXUX",
"UXUXUXUXX i / /.|.'.'.'.(./.(.^.^.^.F.D.M.D.m.m.b.b.m.m.m.D.D.F.^.^.^.^./.`.'.'.'.|.Q.Y i   UXUXUXUX",
"UXUXUXUX@ X $ 6 V L.U.~.{.`.(.^.^.F.D.D.D.m.b.b.b.b.b.m.m.M.D.F.F.^.^.(.`.{./.Y.L.A 8 $ X UXUXUXUXUX",
"UXUXUXUXUXUXX o @ u l g g oXn././.^.F.D.D.D.D.b.b.b.b.m.D.D.F.F.^./.(.n.oXg g l q + O O UXUXUXUXUXUX",
"UXUXUXUXUXUXUXUX@ O   # - y h 7 J ( C C.V.V.V.V.V.Z.Z.V.V.V.K.C ) J 7 h q - o   X @ UXUXUXUXUXUXUXUX",
"UXUXUXUXUXUXUXUXUXUXUXX X X X @ @ @ @ % 2 5 5 5 u 5 5 5 2 2 % + @ @ @ O X O O UXUXUXUXUXUXUXUXUXUXUX"
};
