/* XPM */
const static char *cascade[] = {
/* columns rows colors chars-per-pixel */
"24 21 202 2",
"   c #000100",
".  c #020300",
"X  c #030301",
"o  c gray1",
"O  c #050503",
"+  c #060606",
"@  c #070707",
"#  c #090A02",
"$  c #0D0E06",
"%  c gray3",
"&  c #08080A",
"*  c #0B0B09",
"=  c gray4",
"-  c #0B0B0B",
";  c #0C0C0A",
":  c #0C0C0C",
">  c gray5",
",  c #0F0F0D",
"<  c gray6",
"1  c #0E0E10",
"2  c #0F1103",
"3  c #0F100B",
"4  c #101207",
"5  c #10100E",
"6  c #11110F",
"7  c #12130D",
"8  c #12130E",
"9  c #14150D",
"0  c #101010",
"q  c #111111",
"w  c #131311",
"e  c gray7",
"r  c #131313",
"t  c #131315",
"y  c #141510",
"u  c #151513",
"i  c #151610",
"p  c #151611",
"a  c #161711",
"s  c #161712",
"d  c gray8",
"f  c #161614",
"g  c gray9",
"h  c #181914",
"j  c #191A15",
"k  c #1A1A18",
"l  c #1D1D1B",
"z  c #1D1D1D",
"x  c #1D1D1F",
"c  c #1E1E1E",
"v  c #1D1C21",
"b  c #20201E",
"n  c #212123",
"m  c #232323",
"M  c #242520",
"N  c #252525",
"B  c #252527",
"V  c #272727",
"C  c #242328",
"Z  c gray16",
"A  c #2A2A2A",
"S  c #2C2C2E",
"D  c #302F34",
"F  c gray21",
"G  c #70706E",
"H  c #71716F",
"J  c #73746F",
"K  c gray44",
"L  c #717171",
"P  c #717173",
"I  c #727270",
"U  c #737371",
"Y  c #727272",
"T  c gray45",
"R  c #727177",
"E  c #727274",
"W  c #737375",
"Q  c #737277",
"!  c #747472",
"~  c #747474",
"^  c gray46",
"/  c #747476",
"(  c #767676",
")  c #747378",
"_  c gray48",
"`  c #A5A6A1",
"'  c gray65",
"]  c #A7A7A7",
"[  c #A6A6A8",
"{  c #A9A9A7",
"}  c #A9AAA5",
"|  c #AAABA6",
" . c #ABACA7",
".. c gray66",
"X. c #A9A9A9",
"o. c #A9A9AB",
"O. c #AAAAA8",
"+. c #ABABA9",
"@. c #AAAAAA",
"#. c gray67",
"$. c #AAA9AF",
"%. c #AAAAAC",
"&. c #ABABAD",
"*. c #ACADA8",
"=. c #ACACAA",
"-. c #ADADAB",
";. c #ADAEA9",
":. c #ACACAC",
">. c gray68",
",. c #ADADAF",
"<. c #AEAEAE",
"1. c #AFAFAF",
"2. c #AAA9B1",
"3. c #AEAEB0",
"4. c #B0B1AC",
"5. c #B0B0B2",
"6. c #DCDDD7",
"7. c gray85",
"8. c #DADADC",
"9. c #DCDCDA",
"0. c #DDDED9",
"q. c #DCDCDE",
"w. c #DDDDDF",
"e. c #DEDEDC",
"r. c gray87",
"t. c #DFDFDF",
"y. c #DBDAE0",
"u. c #DEDEE0",
"i. c #DFDFE1",
"p. c #E4E8CF",
"a. c #E2E5D0",
"s. c #E3E6D3",
"d. c #E3E6D5",
"f. c #E4E7D2",
"g. c #E4E6D9",
"h. c #E4E5DF",
"j. c #E5E7DC",
"k. c #E5E8D3",
"l. c #E5E9D2",
"z. c #E7EBD0",
"x. c #E6EAD3",
"c. c #E7EBD2",
"v. c #E5E8D5",
"b. c #E5E8D7",
"n. c #E6E9D4",
"m. c #E6E9D6",
"M. c #E7EAD5",
"N. c #E7EAD7",
"B. c #E6E8DA",
"V. c #E6E8DB",
"C. c #E7E9DB",
"Z. c #E7EAD9",
"A. c #E7E9DC",
"S. c #E8EBD6",
"D. c #E8ECD3",
"F. c #E9EDD2",
"G. c #E8ECD5",
"H. c #E9ECD7",
"J. c #E9EDD6",
"K. c #EAEED5",
"L. c #EAEED7",
"P. c #EBEFD6",
"I. c #E8EBD8",
"U. c #E8EBDA",
"Y. c #E8EADC",
"T. c #E8EADD",
"R. c #E9EBDD",
"E. c #E8EADF",
"W. c #E9EBDE",
"Q. c #E9ECD9",
"!. c #E9ECDB",
"~. c #EAEDD8",
"^. c #EAEDDA",
"/. c #EBEED9",
"(. c #EBEFD8",
"). c #EBEEDB",
"_. c #EAECDE",
"`. c #EAECDF",
"'. c #EBEDDF",
"]. c #EBEEDD",
"[. c #ECEFDA",
"{. c #ECEFDC",
"}. c #ECEFDE",
"|. c #ECF0D7",
" X c #EEF2DB",
".X c #EDF0DD",
"XX c #EDF0DF",
"oX c #EEF1DE",
"OX c #EFF2DD",
"+X c gray88",
"@X c #E0E0E2",
"#X c #E1E1E3",
"$X c #E1E0E5",
"%X c #E3E3E5",
"&X c #E8E9E1",
"*X c #E9EBE0",
"=X c #EBEDE0",
"-X c #EBEDE2",
";X c #ECEEE0",
":X c #ECEEE1",
">X c #EEF1E0",
",X c #EFF1E3",
/* pixels */
"/.x.K.x.K./.s.K./.N.N.K.H.H.:Xj.H.K.N.Z.N.c./.Z.",
"Z.N././.E.&X].E.&Xj.].E.].H.N.K.E.N.K.].].c.K.:X",
"].;XN.W.  = a a a l j 8 $ 2 s.P.].N.K.H.H.K.N.j.",
"].N.].E.a q.u.w.i.7.u.%Xw.$ E.K.&XN./.].Z./.K.Z.",
"N.K.N.Z.j u.8.%X0.e.@Xq.$X= 6.&Xh. Xs./.E./.a.].",
"N.K. Xd.a u.B A b b C v C x x 0   N.K.s.:XZ. Xx.",
"/.K.s.,Xa t.S T ( ( G _ T H / P g N.K./.E.].N.M.",
"Z././.j., i.D T / / T H G T T T = ].x./.j.E./.N.",
"N./.H.H.s @XV H 0 @ = 0 o = @ : t a q O /./.Z./.",
"/.N.H.H.3 %XF G @ X.1.@.<.' 1.#.,.O.[ r N.N.].K.",
"N./.].:X9 e.n / @ @.#.X.#.#.#.#.o.| -.: /./.].N.",
"/.N.H.j.9 q.Z / g #.@.#.#.#.X.#.#.4.[ , Z.M.]./.",
"/.b.E.].4 a m Q : #.#.#.@.#.#.<.-.| 3.: N.N.j.K.",
"H./.H.H.E.:Xa / x @.#.X.X.<.X.#.5.` -.3 ]./.].K.",
"x. Xj.H.H.E.8 / : @.#.#.1.X.@.#.[ +.#., N.K.W./.",
"P.s.E.].H.H.  & b #.#.@.@.X.<.#.#.+.O.= /.N.j.K.",
"K.H.H.E./.H.H.H.1 o.,.o.o.o.,.o.+.+.| # H./.N.N.",
"H.H.H.H.H.H.H.H., +.O.-.-.O.-.O.2.2.2.8 W.H./.K.",
"H.H.H./.H./.H.H.+ & e = e g r 0 t e +   Z./.N.N.",
"H.H.H.E.H.E.H.H.Z././.Z.H.]./.H.K./.].Z./.x.].H.",
"H.H.H.H.H.E.K.H.N././.Z.Z.].].Z./.Z.H././.s./.E."
};
