/* XPM */
static char *cascade[] = {
/* columns rows colors chars-per-pixel */
"20 20 166 2",
"   c #050002",
".  c #000B03",
"X  c #000C0A",
"o  c #0B0001",
"O  c #000A15",
"+  c #001204",
"@  c #00130B",
"#  c #001A0D",
"$  c #001011",
"%  c #00131A",
"&  c #001C13",
"*  c #150000",
"=  c #1B0100",
"-  c #000920",
";  c #000D2B",
":  c #001525",
">  c #001821",
",  c #001D30",
"<  c #002013",
"1  c #00211D",
"2  c #002022",
"3  c #00262B",
"4  c #003926",
"5  c #220000",
"6  c #2B0000",
"7  c #241102",
"8  c #340000",
"9  c #3D0000",
"0  c #450000",
"q  c #4A0000",
"w  c #520000",
"e  c #610000",
"r  c #64243C",
"t  c #762E31",
"y  c #76333C",
"u  c #4F504B",
"i  c #6B4054",
"p  c #02FEE7",
"a  c #06FBE9",
"s  c #0CFDEC",
"d  c #01FFF4",
"f  c #02FDFC",
"g  c #09F7F7",
"h  c #0CFBF5",
"j  c #0BFDFD",
"k  c #1DEFEE",
"l  c #1AECFF",
"z  c #16F3EE",
"x  c #15FCEC",
"c  c #19F6EB",
"v  c #1BF9E2",
"b  c #16F2F3",
"n  c #15F3FF",
"m  c #10F9F6",
"M  c #1AF5FF",
"N  c #18F9F3",
"B  c #18F8F8",
"V  c #2EE1CE",
"C  c #2EEDDE",
"Z  c #21F0DE",
"A  c #2CF1DD",
"S  c #37E8DE",
"D  c #3EE6D9",
"F  c #3AEBD7",
"G  c #38EDDE",
"H  c #27EFE4",
"J  c #2BEBEB",
"K  c #23EAFF",
"L  c #2BEEFF",
"P  c #24F5E5",
"I  c #24F3E9",
"U  c #20F7F2",
"Y  c #23F0FF",
"T  c #61BCB5",
"R  c #5BC9BC",
"E  c #79C0BA",
"W  c #49D2C2",
"Q  c #4BDFCF",
"!  c #4AD4D6",
"~  c #53DCD4",
"^  c #55DCDF",
"/  c #59DFD4",
"(  c #4ADEE0",
")  c #5BD8EE",
"_  c #42E6DA",
"`  c #43E9DB",
"'  c #4CEADC",
"]  c #50E4D6",
"[  c #44E4E4",
"{  c #5DEFE2",
"}  c #57E3F4",
"|  c #64C9C5",
" . c #6EE4D6",
".. c #76E4D7",
"X. c #8D2725",
"o. c #9D2934",
"O. c #AB1E00",
"+. c #BB1F09",
"@. c #B61B23",
"#. c #A02712",
"$. c #B0250E",
"%. c #B72A0E",
"&. c #AD2525",
"*. c #A12434",
"=. c #A93123",
"-. c #B4202C",
";. c #BC2931",
":. c #863544",
">. c #8C3B42",
",. c #C81008",
"<. c #CE1213",
"1. c #D40C0C",
"2. c #D91111",
"3. c #C42029",
"4. c #C9716D",
"5. c #CC7D6A",
"6. c #D77B6C",
"7. c #AD8D5A",
"8. c #BC8163",
"9. c #B78A73",
"0. c #BA9964",
"q. c #BD9B6B",
"w. c #CF8C72",
"e. c #CF9772",
"r. c #D6866D",
"t. c #D88166",
"y. c #DB836B",
"u. c #DE9477",
"i. c #DC947C",
"p. c #D1A67D",
"a. c #E88E76",
"s. c #DE8780",
"d. c #E38C83",
"f. c #EC9584",
"g. c #E19892",
"h. c #D6F0E7",
"j. c #DCFBEB",
"k. c #DBFEFE",
"l. c #E2F1DE",
"z. c #F8E8C4",
"x. c #F4E0D7",
"c. c #FFFADC",
"v. c #EEEEEC",
"b. c #E6E5F5",
"n. c #EFFBEF",
"m. c #E0F6F3",
"M. c #E5FFF6",
"N. c #E4FFFF",
"B. c #EEF5FB",
"V. c #EFFAF4",
"C. c #EBFEFE",
"Z. c #F2EEEF",
"A. c #FFE3F1",
"S. c #FEEEFE",
"D. c #F0FFEC",
"F. c #FAF7E6",
"G. c #FFF2EB",
"H. c #FDFDE4",
"J. c #FEFDEB",
"K. c #F3F4FC",
"L. c #F5FBF1",
"P. c #F3FEFE",
"I. c #FFF7F4",
"U. c #FEF4FE",
"Y. c #FEFDF2",
"T. c #FDFDFD",
/* pixels */
"I.x.J.J.D.V.T.U.U.U.Z.T.T.P.T.K.T.I.T.T.",
"Y.Y.H.J.J.Y.U.U.A.U.G.F.Y.T.K.T.U.T.T.T.",
"V.l.  * = 8 6 6 8 5 = * H.J.T.U.T.T.T.T.",
"C.T.7 9.w.r.6.i.8.p.q.* z.H.T.T.T.T.T.T.",
"T.S.5 g.6.a.u.e.p.7.q.= c.J.P.P.T.T.T.T.",
"U.U.8 s.q w 0 0 9 9 0 9 8 =   P.P.P.T.T.",
"T.I.6 y.e O.%.+.,.1.2.<.3.o.6 T.P.P.T.T.",
"P.J.6 t.e $.#.=.&.;.@.@.o.:.o P.C.C.P.T.",
"C.L.5 d.w X.* . @ # X X $ % > > > X P.T.",
"j.Y.5 4.e >.. | F C _ _ ` _ [ ^ T 1 C.B.",
"H.H.5 f.w t X / P x P P v v P G  .& k.P.",
"J.c.5 5.w y 3 ! k g b z p a a Z W # C.P.",
"C.n.* 6 q r O ) L n L M j f j U ] < N.C.",
"C.P.Y.G.8 i , } K n l n f f f b ' < k.N.",
"U.T.G.J.= u & S B j M M f f f N ` < k.C.",
"U.S.T.Y.o . 4 V c h m m f f f c Q # k.N.",
"T.T.T.T.P.N.& { C c s a f d f I ..+ N.C.",
"v.T.T.P.C.C.> | ~ D C P J J J ( T # C.M.",
"K.P.K.T.T.P.O O % % > : : ; ; - X X P.P.",
"m.P.P.T.U.T.b.P.C.C.N.C.K.T.S.U.T.h.P.V."
};
