/* XPM */
static char *cascade[] = {
/* columns rows colors chars-per-pixel */
"24 21 132 2",
"   c #010101",
".  c #020202",
"X  c gray1",
"o  c gray2",
"O  c #050507",
"+  c #080806",
"@  c gray3",
"#  c #090909",
"$  c gray4",
"%  c gray5",
"&  c #0C0C0E",
"*  c #0D0D0F",
"=  c #0E0E0E",
"-  c gray6",
";  c #0E0E10",
":  c #0E0F11",
">  c #101010",
",  c #111111",
"<  c #111113",
"1  c #131112",
"2  c gray7",
"3  c #131313",
"4  c #121214",
"5  c #131416",
"6  c #141213",
"7  c gray8",
"8  c #151515",
"9  c #141416",
"0  c #161614",
"q  c #161616",
"w  c gray9",
"e  c #171918",
"r  c #181818",
"t  c #191919",
"y  c gray10",
"u  c #1B1B1B",
"i  c #1E1E1E",
"p  c gray12",
"a  c #202020",
"s  c gray14",
"d  c #252525",
"f  c gray15",
"g  c #282828",
"h  c #2D2D2D",
"j  c #2C2C2E",
"k  c #313131",
"l  c #323232",
"z  c #737371",
"x  c gray45",
"c  c #727274",
"v  c #737375",
"b  c #757577",
"n  c #AAAAAA",
"m  c gray67",
"M  c #ACACAC",
"N  c #DBDAD6",
"B  c gray85",
"V  c #DADADA",
"C  c #DBDCDE",
"Z  c #DDDBDC",
"A  c #DCDCDA",
"S  c #DDDDDB",
"D  c gainsboro",
"F  c #DDDDDD",
"G  c #DCDCDE",
"H  c #DDDDDF",
"J  c #DDDFDE",
"K  c #DEDEDC",
"L  c #DFDFDD",
"P  c gray87",
"I  c #DFDFDF",
"U  c #DBDAE2",
"Y  c #DBDFE0",
"T  c #DBDFE2",
"R  c #DDDCE2",
"E  c #DDDEE0",
"W  c #DEDEE0",
"Q  c #DFDFE1",
"!  c #DFDEE3",
"~  c #DFDEE4",
"^  c #DEE0DF",
"/  c #DFE1E0",
"(  c #DFE0E2",
")  c #DDE1E4",
"_  c #E0DBDF",
"`  c #E0DEDF",
"'  c #E3DFDC",
"]  c #E3DFDE",
"[  c #E1DCE2",
"{  c #E0DEE1",
"}  c #E1DFE0",
"|  c #E1DFE2",
" . c #E2DDE3",
".. c #E0DFE4",
"X. c #E0DFE5",
"o. c #E1DEE5",
"O. c #E1DFE4",
"+. c #E3DEE4",
"@. c #E4DDE5",
"#. c #E5DEE5",
"$. c #E0E0DE",
"%. c #E1E0DE",
"&. c gray88",
"*. c #E1E1E1",
"=. c #E0E0E2",
"-. c #E1E1E3",
";. c #E1E3E0",
":. c #E1E3E2",
">. c #E2E0E1",
",. c #E2E2E0",
"<. c #E2E2E2",
"1. c gray89",
"2. c #E0E1E5",
"3. c #E1E0E5",
"4. c #E1E0E6",
"5. c #E2E1E6",
"6. c #E2E1E7",
"7. c #E3E1E6",
"8. c #E2E2E4",
"9. c #E3E3E5",
"0. c #E3E4E6",
"q. c #E4E2E7",
"w. c #E6E1E5",
"e. c #E6E5E3",
"r. c #E4E4E4",
"t. c #E4E4E6",
"y. c #E7E7E5",
"u. c #E7E7E7",
"i. c #E4E3E8",
"p. c #E7E7E9",
"a. c #E6E8E7",
"s. c #EAEAEA",
/* pixels */
"..4.................` ..! ..! ....4.........4...",
"....................-.4.........` -.! 4.! 4.! ..",
"Q G -.s.X + q q q q y 6 = % 4.-.-.-.%.L -.-.-.Q ",
"7...N -.7 A Q L C -.C L C % u.A L -.-.-.-.L Q ` ",
"@...` -.7 L C C L C L C L = N C u.-.C L C C ....",
"[ ..] -.0 C f h f p f a f u u 2 X -.L y.A ` -...",
"..! C u.y ] h c v b c v v v c v 5 u.-.C L u.....",
"~ 4.:.C , K k z x x x x x x x x = L ] C u.-.....",
"4.^ C 1.e Q g c 2 O = = o # + = 9 2 < O G ` ....",
"7.w.C :.2 L l z o M M m n m n M m m n < u.C ..4.",
"` ` 4.L 2 ^ g z + n n m n m n m m m m - C -.4...",
"` ` -.4.q C f v q m M n m M m m m m m - L %.....",
"-.L L C - q s c = n m M M n m m M m m = C Q ..! ",
"N ] -.s.C L q z u m M m m m n m m m m 2 C u.! ..",
"y.L A 1.] C 2 x = n n M m n M m m M M 4 C 1.4.! ",
"-.L -.-.u.C X O p n m m m m m m m n m = %.1.....",
"^ Q u.N -.-.u.Q % M m m m n M n M n n + C 4.4.Q ",
"Q 4.C a.C L L C , M m m n M M M n M n 2 L u.! ..",
"..#...-.C 1.-.-.o + = = , y , 6 7 2 # X -.4.4.Q ",
"..` ` -.-.] -.-.-.-.-.-.-.-.L L L L -.L L -.Q 7.",
"C s.C C -.-.L -.4.4.-.` 4.4.4.` ....! ..-...6.U "
};
