/* XPM */
static char *cube[] = {
/* columns rows colors chars-per-pixel */
"20 20 42 1",
"  c black",
". c #010101",
"X c #020202",
"o c gray1",
"O c #040404",
"+ c gray2",
"@ c #060606",
"# c #070707",
"$ c gray3",
"% c gray4",
"& c #0B0B0B",
"* c #0C0C0C",
"= c gray5",
"- c gray6",
"; c #111111",
": c gray7",
"> c gray8",
", c #151515",
"< c #1B1B1B",
"1 c #D8D8D8",
"2 c gray90",
"3 c #E9E9E9",
"4 c #ECECEC",
"5 c gray93",
"6 c #EEEEEE",
"7 c #EFEFEF",
"8 c gray94",
"9 c #F1F1F1",
"0 c gray95",
"q c #F3F3F3",
"w c #F4F4F4",
"e c gray96",
"r c #F6F6F6",
"t c gray97",
"y c #F8F8F8",
"u c #F9F9F9",
"i c gray98",
"p c #FBFBFB",
"a c gray99",
"s c #FDFDFD",
"d c #FEFEFE",
"f c gray100",
/* pixels */
"aaapaaaaaaapea2aaeap",
"aaaap9aaaeaaa5apeeaa",
"p9aaaaeaaaapeaaaaaae",
"aa9aa :   $:   ++1aa",
"apaa +eaaaa2aep -aap",
"9aa  +- $  $,+ $ aaa",
"aa2-aa9apaaaee$e$aea",
"a9a+paaaaappaa a aaa",
"aaa+aaaappaaaa a aaa",
"aap+aaaaaaapaa,a aaa",
"aaa aaaaaeaaa5+9 aaa",
"aaa+aaaaapaaap$a+aaa",
"aaa+aaaaaaa5aa p aaa",
"aaa+aaaaapaaaa a aaa",
"aap aaaaaa9aap<9 aaa",
"aaa+aaaaaaeaaa -+aaa",
"paa-9aaaaaaaaa -aaaa",
"aa2$:   :  - +-9aaaa",
"aaa9paaaeap9aa9aaaaa",
"a9aaapapaaaaaaaaaaaa"
};
