/* XPM */
static char *eye[] = {
/* columns rows colors chars-per-pixel */
"16 16 184 2",
"   c #0D0000",
".  c #0C0200",
"X  c #0F0000",
"o  c #0D0A05",
"O  c #080A09",
"+  c #110000",
"@  c #140300",
"#  c #1E0000",
"$  c #1D0C02",
"%  c #1C130C",
"&  c #191611",
"*  c #1C1914",
"=  c #230D00",
"-  c #2C0800",
";  c #2F0C00",
":  c #27160C",
">  c #2A1406",
",  c #321C0E",
"<  c #2C231C",
"1  c #342113",
"2  c #342A21",
"3  c #363837",
"4  c #383530",
"5  c #431F07",
"6  c #55351E",
"7  c #44372F",
"8  c #4D3729",
"9  c #4E3B2D",
"0  c #5A3A23",
"q  c #5B3B24",
"w  c #544236",
"e  c #50463D",
"r  c #5A4739",
"t  c #60412D",
"y  c #63432E",
"u  c #614432",
"i  c #6F4F3A",
"p  c #6F503C",
"a  c #704D37",
"s  c #70513D",
"d  c #504D48",
"f  c #514D4A",
"g  c #5D534A",
"h  c #6E5340",
"j  c #765947",
"k  c #7F5F48",
"l  c #797B7A",
"z  c #8B6C58",
"x  c #8A705F",
"c  c #87766C",
"v  c #8E7D73",
"b  c #947966",
"n  c #92837C",
"m  c #9E887A",
"M  c #9B8E86",
"N  c #95928D",
"B  c #AF9E94",
"V  c #B89E8D",
"C  c #B6A498",
"Z  c #B6A7A0",
"A  c #BEB1A9",
"S  c #BEBBB6",
"D  c #BABCBB",
"F  c #CAB09F",
"G  c #C0C2BF",
"H  c #E4CAB9",
"J  c #D5C8C0",
"K  c #D4D6D5",
"L  c #DAD6D5",
"P  c #DEDDD9",
"I  c #E2D1C7",
"U  c #E4D9D3",
"Y  c #E6D9D1",
"T  c #E7DDD4",
"R  c #F9DFCE",
"E  c #EAE1DA",
"W  c #F0E1DA",
"Q  c #F3E4DD",
"!  c #FFEEDD",
"~  c #FFF0DF",
"^  c #E6E2E1",
"/  c #E7E3E0",
"(  c #E6ECEC",
")  c #E8E3E0",
"_  c #E9E5E6",
"`  c #EBE7E8",
"'  c #EAECE9",
"]  c #EDECEA",
"[  c #EEEFEA",
"{  c #EDEFEC",
"}  c #EDF3F3",
"|  c #F0E8E6",
" . c #F5E8E0",
".. c #F6EEEB",
"X. c #FAEDE5",
"o. c #FEECE0",
"O. c #FFEFE1",
"+. c #F0F2EF",
"@. c #F1F3EE",
"#. c #F2F1ED",
"$. c #F7F0EA",
"%. c #F4F3EF",
"&. c #F5F4EF",
"*. c #FFF3E0",
"=. c #FBF0EA",
"-. c #FBF4EE",
";. c #FDF3EA",
":. c #FDF4EF",
">. c #FFF4EE",
",. c #FFF7EE",
"<. c #FFF9E8",
"1. c #FFFBED",
"2. c #FFFBEF",
"3. c #F0F2F1",
"4. c #F1F3F0",
"5. c #F3F2F0",
"6. c #F5F1F0",
"7. c #F5F1F2",
"8. c #F4F3F1",
"9. c #F7F3F0",
"0. c #F4F2F5",
"q. c #F5F4F0",
"w. c #F6F5F1",
"e. c #F6F7F2",
"r. c #F7F6F2",
"t. c #F6F4F7",
"y. c #F7F7F5",
"u. c #F4F8F7",
"i. c #F6F8F5",
"p. c #F6FAF9",
"a. c #FBF3F0",
"s. c #F9F5F2",
"d. c #F8F6F7",
"f. c #FAF6F7",
"g. c #FCF4F2",
"h. c #FDF5F3",
"j. c #FAF9F4",
"k. c #FAF9F5",
"l. c #FAF9F7",
"z. c #FBFAF5",
"x. c #FBFAF6",
"c. c #FFF8F2",
"v. c #FCF8F7",
"b. c #FDF9F6",
"n. c #FCFBF6",
"m. c #FCFBF7",
"M. c #FFFBF4",
"N. c #FFFBF5",
"B. c #FEFAF7",
"V. c #FFFCF4",
"C. c #FFFDF4",
"Z. c #FFFCF6",
"A. c #F9FBF8",
"S. c #FBFAF8",
"D. c #FAFCF9",
"F. c #F8FEFE",
"G. c #FAFEFD",
"H. c #FAFFFF",
"J. c #FBFFFE",
"K. c #FBFFFF",
"L. c #FCFAFB",
"P. c #FEFAF9",
"I. c #FEFAFB",
"U. c #FDFBFE",
"Y. c #FCFEFB",
"T. c #FDFFFA",
"R. c #FEFDF9",
"E. c #FFFDF8",
"W. c #FFFCFA",
"Q. c #FFFDFA",
"!. c #FFFDFB",
"~. c #FFFEF8",
"^. c #FFFEFA",
"/. c #FFFEFB",
"(. c #FFFFFA",
"). c #FFFFFB",
"_. c #FCFFFF",
"`. c #FFFDFC",
"'. c #FFFDFE",
"]. c #FEFFFD",
"[. c #FFFEFD",
"{. c #FFFFFD",
"}. c #FEFFFF",
"|. c #FFFEFF",
/* pixels */
"&.).%.].].].0.U.].t.d.].].).I.j.",
").P ).l.L v.].I._ ` ].B.] ].&.).",
"].8.8.).].I.-.).U.].| ).&.&.[ ).",
"D.).).).:.>.M Z n Q =.).).).D.i.",
"].' ).$.7 $ 1 X = X : A B.l.x.H.",
"p.G f % v O.F h r x m   < B.].p.",
"H.3 N ,.O.<.t k ; i R 1.g o K ].",
"H.l * C.1.~ y - - 6 ~ 1.;.d O F.",
"].} & e 1.~ i 5 = 0 ! 1.T 4 D ].",
"} ].S   w <.z 0 a i ;.C 2 ).].( ",
"H.].%.E @ + V b j H 8 c B.).t.H.",
"p.].H.l.H B 9 > , r I Y >.).{ H.",
"].@.8.).I.B.X.Q W C.U $.).l.+.].",
"t.).).B.^ :.).I.)...g.I.E ].).@.",
"l.).#.].].7.f.7.d.].^ ].].P ).).",
").j.].B.f.].].U.U.].U.].%.).C.l."
};
