/* XPM */
static char *home[] = {
/* columns rows colors chars-per-pixel */
"20 20 66 1",
"  c black",
". c #010101",
"X c #020202",
"o c gray1",
"O c #040404",
"+ c gray2",
"@ c #060606",
"# c #070707",
"$ c gray3",
"% c #090909",
"& c gray4",
"* c #0B0B0B",
"= c #0C0C0C",
"- c gray5",
"; c #0E0E0E",
": c gray6",
"> c #111111",
", c gray7",
"< c #131313",
"1 c #151515",
"2 c gray9",
"3 c #181818",
"4 c #191919",
"5 c #1B1B1B",
"6 c #202020",
"7 c LightGray",
"8 c #D5D5D5",
"9 c #D7D7D7",
"0 c #D8D8D8",
"q c gray85",
"w c #DADADA",
"e c gray86",
"r c gainsboro",
"t c #DDDDDD",
"y c #DFDFDF",
"u c gray88",
"i c #E2E2E2",
"p c gray89",
"a c #E4E4E4",
"s c gray90",
"d c #E6E6E6",
"f c #E7E7E7",
"g c gray91",
"h c #E9E9E9",
"j c #EAEAEA",
"k c gray92",
"l c #ECECEC",
"z c gray93",
"x c #EEEEEE",
"c c #EFEFEF",
"v c gray94",
"b c #F1F1F1",
"n c gray95",
"m c #F3F3F3",
"M c #F4F4F4",
"N c gray96",
"B c #F6F6F6",
"V c gray97",
"C c #F8F8F8",
"Z c #F9F9F9",
"A c gray98",
"S c #FBFBFB",
"D c gray99",
"F c #FDFDFD",
"G c #FEFEFE",
"H c gray100",
/* pixels */
"HcAAHcHmBHpAHjHHBAAH",
"7BAHmAHBHBHAcAciHAHH",
"HAH9HHmmHcHHAHHHAHHA",
"cHyc  pHA >AHBmBHAAA",
"jHHH =Hp&   HHHHHHHA",
"HBHH@ B3=HH  BBHHHHA",
"cAmB &  yjAc= HmHAAA",
"HHAA   HHpHAH  HHHHH",
"HHiB& mAHHAcHH  AHHm",
"miH  mAHAmHHimH@ HcA",
"HH  HmHB    =Hcp &c9",
"c 3BpAyH@AHH&mHHH &H",
"Hp&AmHmH HHB&Apm9@mH",
"pA HmBHm=ymH ApHH Hp",
"HH AmABB HHH HBm93Ai",
"Hp@ABH9H@HjH2yHmA2jA",
"HB jHHAB HAm=HHpA2Hm",
"HB=2  =    6 =>&> pH",
"iHmHHHHAHAmHHjBmHcHm",
"HiHBB9yABH9HBHjHcHcH"
};
