/* XPM */
static char *lightbulb[] = {
/* columns rows colors chars-per-pixel */
"24 21 73 1",
"  c #020202",
". c #030305",
"X c #040404",
"o c gray2",
"O c #040406",
"+ c #060606",
"@ c #070707",
"# c gray3",
"$ c #090909",
"% c #09090B",
"& c gray4",
"* c #0B0B0B",
"= c #0A0A0C",
"- c gray5",
"; c #0D0D0F",
": c #0E0E0E",
"> c gray6",
", c #0E0E10",
"< c gray7",
"1 c #131315",
"2 c #1B1B1B",
"3 c #D5D5D5",
"4 c #DADADA",
"5 c gray86",
"6 c #DBDBDD",
"7 c #DCDCDA",
"8 c gainsboro",
"9 c #DDDDDD",
"0 c #DCDCDE",
"q c #DDDDDF",
"w c #DFDFDD",
"e c gray87",
"r c #DFDFDF",
"t c #DEDDE3",
"y c #DEDEE0",
"u c #DFDFE1",
"i c #DFDEE3",
"p c #DFDEE4",
"a c #E0DFE4",
"s c #E0DFE5",
"d c #E0E0DE",
"f c #E1E1DF",
"g c gray88",
"h c #E1E1E1",
"j c #E0E0E2",
"k c #E1E1E3",
"l c #E2E2E2",
"z c gray89",
"x c #E1E0E5",
"c c #E1E0E6",
"v c #E2E1E6",
"b c #E2E2E4",
"n c #E3E3E5",
"m c #E4E4E2",
"M c #E4E4E4",
"N c gray90",
"B c #E4E4E6",
"V c #E5E5E7",
"C c #E6E6E4",
"Z c #E6E6E6",
"A c #E6E6E8",
"S c #E9E9E9",
"D c #E9E9EB",
"F c #ECECEC",
"G c #EEEEEE",
"H c #F4F4F4",
"J c gray96",
"K c #F6F6F6",
"L c gray99",
"P c #FDFDFD",
"I c #FEFEFE",
"U c #FEFEFF",
"Y c gray100",
/* pixels */
"aaaaicixixixixixiixxixii",
"xiaapiciipipcicijiicxiii",
"Bxifffffxffzjzfxfjzwxz6B",
"paffBBfzjNX1+=9fjjNjjixi",
"ppifB9j9+=,II=1XwwCwfxix",
"ixjzfzfX+IIIIII&+59jfixc",
"ipij96x&IIIIIIII2wzjxiic",
"ipfif9@&IIIIIIIIXX9jzjix",
"pxpfNN&IIIIIIIIII%wjfixx",
"iixiB9&IIIIIIIIIIXjfjxxx",
"iiixfj+=IIIIIIII-Xwwjxjx",
"xxpNf5NXIIIIIIIIXBfzwxii",
"ipxx9fi +IIIIII+XBzwfixi",
"xiiBf9ff-++-&& -jB5zjBix",
"pxiA4NfAf.JJJG-GCjCjjxii",
"iiij9if3N& #+&&f5Bwfjxii",
"xixD6BNBjXzwzz-wBjBjwxii",
"ixi6NfjfC2X=XXXSwjBzjiix",
"xijBffw5jCw+XBzzwzwfjiii",
"ixjfjfwjjwjwjwjwjwjwzjqB",
"fxjffxzjjjfzzjxfwzjjwjB6"
};
