/* XPM */
static char *lightbulb[] = {
/* columns rows colors chars-per-pixel */
"20 20 231 2",
"   c black",
".  c #000100",
"X  c #000005",
"o  c #030007",
"O  c #030600",
"+  c #040000",
"@  c #060000",
"#  c #040500",
"$  c #060700",
"%  c #070600",
"&  c #010009",
"*  c #040A00",
"=  c #040B00",
"-  c #060E00",
";  c #080000",
":  c #080200",
">  c #080300",
",  c #080500",
"<  c #0A0400",
"1  c #0E0100",
"2  c #0E0700",
"3  c #080800",
"4  c #090900",
"5  c #080A00",
"6  c #0B0A00",
"7  c #080C00",
"8  c #090F00",
"9  c #0B0D00",
"0  c #0D0800",
"q  c #0D0A00",
"w  c #0C0D00",
"e  c #0D0C00",
"r  c gray5",
"t  c #000010",
"y  c #040012",
"u  c #040017",
"i  c #090013",
"p  c #0C0912",
"a  c #0A1000",
"s  c #10060E",
"d  c #120A00",
"f  c #110D00",
"g  c #120C00",
"h  c #160B00",
"j  c #101200",
"k  c #161400",
"l  c #131900",
"z  c #181500",
"x  c #1E1A00",
"c  c #111111",
"v  c #151515",
"b  c #201600",
"n  c #201C00",
"m  c #292206",
"M  c #EFF800",
"N  c #EFF21D",
"B  c #F2F400",
"V  c #F4F305",
"C  c #F1FA00",
"Z  c #F3F800",
"A  c #F6FF04",
"S  c #F6FF08",
"D  c #FAF000",
"F  c #F8F009",
"G  c #F9FB00",
"H  c #FFF907",
"J  c #FFFF02",
"K  c #FFFF03",
"L  c #FFFE05",
"P  c #FBFF0C",
"I  c #FCF90E",
"U  c #FCFC08",
"Y  c #FFFF0B",
"T  c #FFF51B",
"R  c #FFFE13",
"E  c #FFFF13",
"W  c #FFFF17",
"Q  c #FEF81C",
"!  c #FFFF18",
"~  c #EDEB38",
"^  c #E7F526",
"/  c #ECF020",
"(  c #E8F32D",
")  c #E9F031",
"_  c #F3F12C",
"`  c #F6FC26",
"'  c #FCF221",
"]  c #FAFF2F",
"[  c #FCFE2F",
"{  c #FFFF2E",
"}  c #F0FC30",
"|  c #FCFF30",
" . c #FFFF32",
".. c #FFFF33",
"X. c #FCFF35",
"o. c #FFFF34",
"O. c #FFFF35",
"+. c #FFFF39",
"@. c #E7E545",
"#. c #ECE94C",
"$. c #E2E45D",
"%. c #E5E85D",
"&. c #ECF044",
"*. c #E9F259",
"=. c #EBF058",
"-. c #F7FB4F",
";. c #F4F059",
":. c #E2ED60",
">. c #E6F069",
",. c #F8F66D",
"<. c #FAFF62",
"1. c #FBFF64",
"2. c #FCFF63",
"3. c #FFFA6E",
"4. c #F1F676",
"5. c #F8FF77",
"6. c #E8EBDA",
"7. c #FFFFCC",
"8. c #F4F8DD",
"9. c #FFFFD6",
"0. c #FAF9DD",
"q. c #FCFFDF",
"w. c #FFFFDD",
"e. c #E7E7E7",
"r. c #ECEDE5",
"t. c #EFEFE7",
"y. c #E9E9E9",
"u. c #E9EFED",
"i. c #EEF2F1",
"p. c #E9F2FB",
"a. c #EFF1FF",
"s. c #EEFBFF",
"d. c #F5EFEF",
"f. c #F9EEEA",
"g. c #F1E9F4",
"h. c #F0EAF4",
"j. c #F1EFF2",
"k. c #F4E8F6",
"l. c #F7ECF2",
"z. c #F6EDFF",
"x. c #F6F3EA",
"c. c #F6F3EE",
"v. c #FDF3EA",
"b. c #FFF9E6",
"n. c #FFFFE1",
"m. c #FFFFE3",
"M. c #FFFFE6",
"N. c #F8F9E9",
"B. c #F8FAED",
"V. c #FFFFE8",
"C. c #FFFFEA",
"Z. c #FFFCEE",
"A. c #FFFFEC",
"S. c gray94",
"D. c #F2F0F3",
"F. c #F3F2F0",
"G. c #F3F3F3",
"H. c #F6F2F1",
"J. c #F7F3F0",
"K. c #F4F4F4",
"L. c #F4F6F5",
"P. c #F6F4F5",
"I. c #F6F6F6",
"U. c gray97",
"Y. c #F1F3FF",
"T. c #F1F6FC",
"R. c #F6F3FA",
"E. c #F5F0FF",
"W. c #F7F9FF",
"Q. c #F7FBFC",
"!. c #F7FFFF",
"~. c #FBF7F4",
"^. c #F9F5FF",
"/. c #FAF6FF",
"(. c #FFF2FF",
"). c #FCF7FB",
"_. c #FCF7FE",
"`. c #FFF6FF",
"'. c #F8F8F6",
"]. c #F8FAF5",
"[. c #FCF9F2",
"{. c #FDF9F6",
"}. c #FFFAF4",
"|. c #FFFAF6",
" X c #FDFDF1",
".X c #FCFFF3",
"XX c #FFFFF1",
"oX c #FCFDF5",
"OX c #FFFDF4",
"+X c #FFFFF4",
"@X c #FFFFF6",
"#X c #F8F8F8",
"$X c #F9F9F9",
"%X c #FBFBF9",
"&X c gray98",
"*X c GhostWhite",
"=X c #FAFBFD",
"-X c #FBFAFF",
";X c #FBFFFD",
":X c #FBFEFF",
">X c #FBFFFF",
",X c #FEF9FF",
"<X c #FFF9FF",
"1X c #FEFBFF",
"2X c #FFFAFF",
"3X c #FFFBFF",
"4X c #FCFFFB",
"5X c #FFFFF8",
"6X c #FFFEFA",
"7X c #FFFEFB",
"8X c #FFFFFA",
"9X c #FFFFFB",
"0X c gray99",
"qX c #FDFDFD",
"wX c #FCFCFE",
"eX c #FDFCFF",
"rX c #FDFDFF",
"tX c #FCFFFD",
"yX c #FCFEFF",
"uX c #FCFFFF",
"iX c #FEFDFF",
"pX c #FFFCFF",
"aX c #FFFDFE",
"sX c #FFFDFF",
"dX c #FEFFFD",
"fX c #FFFEFC",
"gX c #FFFFFD",
"hX c #FEFEFE",
"jX c #FEFFFF",
"kX c #FFFEFF",
"lX c gray100",
/* pixels */
"A.x.3XY.!.s.!.!.Q.pXt.Z.pXpXa.:XpXpXpXpX",
"A.6XpX:Xp.!.!.:X*XpXpX+X+Xr.pX:XpXpXpXpX",
"6X[.G.Q.:Xu.Z.6.6Xl.pXf.n.n.Z.].pXpXpXpX",
"pXpX6XpXQ.pXM.9.< b 1 h 7.9.N.Q.pXpXpXpX",
"c.pX%XpXpXpX> 2 n #.;.g x % pXpXpXpXpXpX",
"pX:X:XpXpX@ 2 3._ O.] ~ ,.2 @ z.pXpXpXpX",
"*X*XpXJ.+Xg @.O.I F ' +.] =.m `.pXpXpXpX",
"3Xz.pXZ.@ z [ B L E T Q S ( % + 6XpXpXpX",
"pXpXpXM.e %.[ G K D R R M ] >.9 C.pXpXpX",
"*XpX6X0.6 $.O.Z L Y H Y M ] :.= M.pXpXpX",
"q.C.H.6Xg k ) ! E V R P A ^ a % +XpXpXpX",
"w.C.).g.|.% *.} / O.N ` O.1.% %XpXpXpXpX",
"|.d.pXpX+XO = 5.<.&.-.2.4.* e pXpXpXpXpX",
"3X3X*XpXB.8.l = 6 9 j 6 % g [.P.pXpXpXpX",
"(.g.6X+X:X%Xi.+ C.M.b.v.s g.pX6X6XpXpXpX",
"3X3Xc.+X%Xa.:Xy & o y y u 3XG.6XpXpXpXpX",
"3Xj.6X6XL.:XpX+ :XpXpXT.p pXpX].pXpXpXpX",
"pXG.Q.Q.pXpXy.v + c + r + %XpXpXpXpXpXpX",
").pXpX].pXP.pXy.pX+ + Q.pXQ.G.pXpXpXpXpX",
"pXpXpX%XpX6X:X:X].pXpXpXpXpXG.pXpXpXpXpX"
};
