/* XPM */
const static char *magnify[] = {
/* columns rows colors chars-per-pixel */
"24 21 165 2",
"   c black",
".  c #000100",
"X  c #010103",
"o  c #020200",
"O  c #010005",
"+  c #020106",
"@  c #0C0D07",
"#  c #0E0E0E",
"$  c #0C0B10",
"%  c #0F1008",
"&  c #13140C",
"*  c #1A1B13",
"=  c #33342F",
"-  c #353439",
";  c #38373D",
":  c #3C3D37",
">  c #3D3E36",
",  c #3C3D38",
"<  c #3D3D3B",
"1  c #3E3F39",
"2  c #3D3C41",
"3  c #565752",
"4  c #595A54",
"5  c #5B5C57",
"6  c #676862",
"7  c #6A6B63",
"8  c #696A65",
"9  c #6A6B65",
"0  c gray46",
"q  c #747476",
"w  c #7E7F77",
"e  c #78787A",
"r  c #7C7D78",
"t  c #7E8073",
"y  c #808179",
"u  c #81817F",
"i  c #838383",
"p  c #8D8F82",
"a  c #898989",
"s  c #8A8A88",
"d  c #8A8A8C",
"f  c #8B8B8D",
"g  c #989A8F",
"h  c #9B9E8D",
"j  c #9A9B93",
"k  c #989896",
"l  c #999997",
"z  c #9C9E91",
"x  c #9D9E99",
"c  c #AAABA3",
"v  c #ABABA9",
"b  c #ABABAD",
"n  c #AEAEB0",
"m  c #B4B6AB",
"M  c #B6B8AD",
"N  c #B1B1B3",
"B  c #B2B2B4",
"V  c #B3B3B5",
"C  c #B6B6B6",
"Z  c #BCBEB1",
"A  c #BABAB8",
"S  c gray73",
"D  c #BABABC",
"F  c #BBBBBD",
"G  c #BFBFBD",
"H  c #C2C2C0",
"J  c gray76",
"K  c #C2C2C4",
"L  c #C3C2C7",
"P  c #C4C4C2",
"I  c #C7C7C9",
"U  c #CECFC7",
"Y  c #CBCBCB",
"T  c #CACACC",
"R  c #CBCBCD",
"E  c gray80",
"W  c #CCCCCE",
"Q  c #CDCDCF",
"!  c #CECED0",
"~  c #CFD0CB",
"^  c #D1D3C6",
"/  c #D0D1C9",
"(  c #D2D3CD",
")  c #DADCCE",
"_  c #D0D0D2",
"`  c #D2D1D6",
"'  c #D5D5D5",
"]  c #D7D7D7",
"[  c #D6D6D8",
"{  c #DDDFD2",
"}  c #D8D8DA",
"|  c #DADADC",
" . c #DCDCDA",
".. c #DDDDDD",
"X. c gray87",
"o. c #DFE1D3",
"O. c #EAEFCF",
"+. c #E0E2D5",
"@. c #E0E2D7",
"#. c #E4E7D4",
"$. c #E5E7DA",
"%. c #E6E7DF",
"&. c #E4E8D1",
"*. c #E5E8D3",
"=. c #E5E9D2",
"-. c #E7EBD0",
";. c #E6EAD3",
":. c #E5E8D5",
">. c #E5E8D7",
",. c #E6E9D4",
"<. c #E6E9D6",
"1. c #E7EAD5",
"2. c #E7EBD4",
"3. c #E7EAD7",
"4. c #E6E9D8",
"5. c #E6E8DA",
"6. c #E6E8DB",
"7. c #E7E9DB",
"8. c #E7EAD9",
"9. c #E7E9DC",
"0. c #E7E9DE",
"q. c #E8EBD6",
"w. c #E9EDD2",
"e. c #E8ECD5",
"r. c #E9EDD4",
"t. c #E9ECD7",
"y. c #E9EDD6",
"u. c #EAEED5",
"i. c #EAEED7",
"p. c #EBEFD6",
"a. c #E8EBD8",
"s. c #E8EBDA",
"d. c #E8EADC",
"f. c #E8EADD",
"g. c #E9EBDD",
"h. c #E8EADF",
"j. c #E9EBDE",
"k. c #E9ECD9",
"l. c #E9ECDB",
"z. c #EAEDD8",
"x. c #EAEDDA",
"c. c #EBEED9",
"v. c #EBEFD8",
"b. c #EBEEDB",
"n. c #EAEDDC",
"m. c #EAECDE",
"M. c #EAECDF",
"N. c #EBEDDF",
"B. c #EBEEDD",
"V. c #ECEFDA",
"C. c #ECEFDC",
"Z. c #ECEFDE",
"A. c #EDF1D6",
"S. c #EDF0DB",
"D. c #EEF2DB",
"F. c #EDF0DD",
"G. c #EEF1DC",
"H. c #EEF1DE",
"J. c #E9EBE0",
"K. c #E9EAE5",
"L. c #EBEDE0",
"P. c #ECEEE0",
"I. c #ECEEE1",
"U. c #EDEFE2",
"Y. c #ECEDE5",
/* pixels */
"s.3.k.V.q.k.q.k.V.q.=.V.t.=.k.k.k.k.k.k.k.k.k.k.",
"C.k.3.t.q.k.k.C.3.q.V.3.t.V.3.V.k.k.k.k.k.k.k.k.",
"q.t.k.t.q.3.n.s.I.f.$.n.4.k.k.q.k.k.k.k.k.k.k.k.",
"V.=.t.t.C.s.o.z r 4 6 / 4.s.s.q.k.k.k.k.k.k.k.k.",
"k.t.s.k.#.^ @.U ' ] v 9 r U.k.V.k.k.k.k.k.k.k.k.",
"3.D.3.s.{ J.K. .| T Q C 5 M s.q.k.k.k.k.k.k.k.k.",
"k.3.n.n.g ~ X.[ _ W F F u > C.s.k.k.k.k.k.k.k.k.",
"q.k.n.f.r  .} ` Y T B b k % f.s.k.k.k.k.k.k.k.k.",
"w.t.C.f.3 [ ! Q P A P W d # Y.s.s.q.k.k.3.k.3.q.",
"t.q.k.f.7 v K L A J ..I q = f.t.V.q.3.k.3.C.D.q.",
"k.k.3.s.Z 9 G B b ..B f # c *.O.=.k.t.t.t.3.k.k.",
"n.3.p.t.3.w 4 i l s 0 $ +   I.w.D.t.w.t.t.t.q.3.",
"f.k.k.=.V.f.m > & @ 1 e ; +   f.4.H.3.D.t.t.k.3.",
"4.q.t.V.t.s.s.I.I.f.o./ s -     f.n.k.3.w.k.k.k.",
"k.k.3.q.k.#.C.q.4.H.t.3.J.x <     Y.4.H.t.t.t.k.",
"q.k.k.k.3.H.=.t.n.3.=.A.s.L.j 1     f.4.D.=.k.k.",
"k.k.k.k.k.k.k.k.t.w.q.k.t.k.n.h 2   * n.3.t.t.k.",
"k.k.k.k.k.k.k.k.t.t.t.3.H.4.k.k.x > p n.k.t.3.k.",
"k.k.k.k.k.k.k.k.q.s.H.k.3.k.k.k.f.) k.k.t.t.k.t.",
"k.k.k.k.k.k.k.k.k.k.s.k.t.t.t.k.t.t.k.n.4.k.t.t.",
"k.k.k.k.k.k.k.k.k.k.q.V.t.t.k.k.2.t.k.n.k.k.t.t."
};
