/* XPM */
static char *pause_[] = {
/* columns rows colors chars-per-pixel */
"24 17 38 1",
"  c black",
". c #000002",
"X c #010103",
"o c #000004",
"O c #000005",
"+ c #010005",
"@ c #010006",
"# c #000106",
"$ c #000008",
"% c #010008",
"& c #02000D",
"* c #00000E",
"= c #E7EBD0",
"- c #E7EBD4",
"; c #E8EBD6",
": c #E9EDD4",
"> c #E8ECD5",
", c #EAECD4",
"< c #E9EDD6",
"1 c #E9ECD7",
"2 c #EAECD6",
"3 c #EBEDD7",
"4 c #EBEFD6",
"5 c #EAEED7",
"6 c #E6E9D8",
"7 c #E7EAD9",
"8 c #E6E8DA",
"9 c #E7E9DB",
"0 c #E9EAD8",
"q c #E9ECD9",
"w c #E8EDD9",
"e c #EBEFD8",
"r c #EBEEDB",
"t c #E9EBDD",
"y c #EBEEDD",
"u c #EAECDF",
"i c #ECF1D1",
"p c #E9EBE0",
/* pixels */
"qqqqqqqq=iq-;i3=qqqqqqqq",
"qqqqqqqq3u8ru8q3qqqqqqqq",
"qqqqqqqqi8u;;u8iqqqqqqqq",
"qqqqqqqq8u8ii8pwqqqqqqqq",
"qqqqqqqq+*+w8+*+qqqqqqqq",
"qqqqqqqq$*+wq+*$qqqqqqqq",
"qqqqqqqq+++qq$++qqqqqqqq",
"qqqqqqqq+++-q+++qqqqqqqq",
"qqqqqqqqXXX33XXXqqqqqqqq",
"qqqqqqqqXXX:-XXXqqqqqqqq",
"qqqqqqqqXXX-:XXXqqqqqqqq",
"qqqqqqqqXXX3:XXXqqqqqqqq",
"qqqqqqqqXX+q3+XXqqqqqqqq",
"qqqqqqq0XX+q-+XXqqqqqqqq",
"qqqqqqqqqqqqqqqqqqqqqqqq",
"qqqqqqqqqqqqqqqqqqqqqqqq",
"qqqqqqqqqqqqqqqqqqqqqqqq",
};
