/* XPM */
static char *planes[] = {
/* columns rows colors chars-per-pixel */
"24 21 145 2",
"   c black",
".  c #000002",
"X  c #010200",
"o  c gray1",
"O  c #020204",
"+  c #030504",
"@  c #050304",
"#  c #040402",
"$  c #040404",
"%  c gray2",
"&  c #040406",
"*  c #040605",
"=  c #050706",
"-  c #060606",
";  c #070707",
":  c gray3",
">  c #090909",
",  c #08080A",
"<  c #09090B",
"1  c gray4",
"2  c #0B0B0B",
"3  c #0A0A0C",
"4  c #0C0C0C",
"5  c gray5",
"6  c #0C0C0E",
"7  c #0E0E0E",
"8  c gray6",
"9  c #131313",
"0  c #131315",
"q  c gray8",
"w  c #1B1B19",
"e  c gray10",
"r  c #1B1B1B",
"t  c gray11",
"y  c #222222",
"u  c #232323",
"i  c #232325",
"p  c #727270",
"a  c #737371",
"s  c #727272",
"d  c gray45",
"f  c #727274",
"g  c #737375",
"h  c #747474",
"j  c #838383",
"k  c #898989",
"l  c #89898B",
"z  c gray54",
"x  c #8B8B8B",
"c  c #8B8B8D",
"v  c #8E8E8E",
"b  c gray57",
"n  c gray58",
"m  c gray64",
"M  c #C3C1C2",
"N  c #C2C2C0",
"B  c gray76",
"V  c #C3C3C3",
"C  c #C1C2C4",
"Z  c #C2C2C4",
"A  c #C3C3C5",
"S  c #C5C1C2",
"D  c gray85",
"F  c #DADAD8",
"G  c #DBDBDD",
"H  c #DADCDB",
"J  c #DDDBDC",
"K  c gainsboro",
"L  c #DDDDDD",
"P  c #DCDDDF",
"I  c #DFDFDD",
"U  c gray87",
"Y  c #DFDFDF",
"T  c #DADDE4",
"R  c #DCDBE1",
"E  c #DCDBE3",
"W  c #DFD9E7",
"Q  c #DDDEE0",
"!  c #DDDEE2",
"~  c #DDDEE3",
"^  c #DFDDE0",
"/  c #DEDDE2",
"(  c #DEDDE3",
")  c #DFDCE3",
"_  c #DFDDE2",
"`  c #DEDEE0",
"'  c #DFDFE1",
"]  c #DEDFE3",
"[  c #DFDEE3",
"{  c #DEDFE4",
"}  c #DFDEE4",
"|  c #DBE4E1",
" . c #DDE3E3",
".. c #DFE1E0",
"X. c #DFE0E2",
"o. c #DDE0E5",
"O. c #DFE0E4",
"+. c #DFE0E5",
"@. c #DFE2EB",
"#. c #E0DFDB",
"$. c #E0DFDD",
"%. c #E1DFE2",
"&. c #E3DEE2",
"*. c #E0DDE4",
"=. c #E0DFE4",
"-. c #E0DFE5",
";. c #E1DEE5",
":. c #E1DFE4",
">. c #E3DCE4",
",. c #E4DFE3",
"<. c #E4DFE5",
"1. c #E4DFE6",
"2. c #E5DDEA",
"3. c #E1E1DF",
"4. c #E1E2DD",
"5. c #E0E2DF",
"6. c gray88",
"7. c #E1E1E1",
"8. c #E0E0E2",
"9. c #E1E1E3",
"0. c #E2E0E3",
"q. c #E3E3E1",
"w. c #E2E2E2",
"e. c gray89",
"r. c #E1E0E5",
"t. c #E0E1E6",
"y. c #E1E0E6",
"u. c #E2E0E5",
"i. c #E2E2E4",
"p. c #E3E3E5",
"a. c #E3E2E7",
"s. c #E4E0E1",
"d. c #E4E3E1",
"f. c #E5E0E6",
"g. c #E4E2E5",
"h. c #E5E3E6",
"j. c #E4E4E4",
"k. c gray90",
"l. c #E6E6E6",
"z. c #E7E7E7",
"x. c #E1E1ED",
"c. c #E2E2EC",
"v. c #E2E6E9",
"b. c #EFEFED",
"n. c #EEEEEE",
/* pixels */
"=.[ [ =.y.[ =.[ =.=.=.=.-.[ =.=.y.[ [ =.[ =.[ y.",
"=.=.y.[ { y.=.=.[ =.=.=.y.=.=.=.[ y.=.=.=.=.[ [ ",
"w.w.w.K w.$.$.b.8 k.D w.8 1 y.w.d.@ [ [ y.H y.w.",
"[ [ =.[ w.w.z.y 0 K k.y z 8 d.y.@ @ [ v.[ [ y.[ ",
"[ [ =.y.w.K e d 0 p.8 n z : K 1 N + g.H ,.=.[ [ ",
"[ [ y.-.w.w p d w K e j z : w.8 M + ,.d.&.=.=.[ ",
"[ [ [ } w.e d d i y.0 l c 6 p.3 M + 2.Y [ =.[ =.",
"[ [ [ } w.y d g u K w z z 9 Y 8 M : W | [ y.=.[ ",
"=.[ =.y.w.y d d u Y 8 z z 6 z.+ N . c. .{ { [ =.",
"=.[ =.=.q.e d d w q.9 z z 2 w.2 M : [ K y.{ =.[ ",
"=.[ [ y.w.e d d t K 8 z z , w.: V . g.[ d.[ [ [ ",
"y.[ y.y.Y i d d t Y , z z 1 q.: M # [ [ I y.w.=.",
"y.[ =.=.Y y g d 9 k.* x z 1 k.* M + [ [ $.=.=.[ ",
"w.[ =.=.w.y d d r d.2 j z 1 w.: Z . c.=.w.=.=.w.",
"-.=.=.=.$.y d d e K ; z z 1 K : M * [ g.P { [ [ ",
"-.=.=.=.w.e d h e g.8 z z 1 z.* Z . } ,.=.=.y.{ ",
"-.-.=.=.w.e d d y w.: z v : d.O Z * y.[ [ =.=.=.",
"-.y.=.[ [ 9 d e n.w.: z b * w.1 M @ [ K ,.=.=.[ ",
"y.y.y.[ w.* , $.w.K * m 5 [ w.@ @ D @.K g.[ } -.",
"y.Y w.w.w.* Y w.w.K 9 * K d.K 9 Y Y w.w.[ y.w.y.",
"[ w.w.K w.[ w.K w.q.w.K k.w.w.K [ k.K K y.w.y.w."
};
