/* XPM */
static char *planes[] = {
/* columns rows colors chars-per-pixel */
"20 20 124 2",
"   c #020500",
".  c #030C01",
"X  c #00090E",
"o  c #090200",
"O  c #0B000C",
"+  c #0B0B00",
"@  c #000219",
"#  c #0E0010",
"$  c #001401",
"%  c #001A00",
"&  c #0C1300",
"*  c #0E1211",
"=  c #190300",
"-  c #1D0B00",
";  c #121615",
":  c #000321",
">  c #002200",
",  c #002A04",
"<  c #002A13",
"1  c #003007",
"2  c #003C00",
"3  c #240012",
"4  c #290015",
"5  c #30001B",
"6  c #260027",
"7  c #2B002E",
"8  c #2D0032",
"9  c #31002F",
"0  c #3A0023",
"q  c #3C002C",
"w  c #330035",
"e  c #320039",
"r  c #3C0032",
"t  c #3D003D",
"y  c #3B0041",
"u  c #41002D",
"i  c #430035",
"p  c #45003B",
"a  c #4B003A",
"s  c #0ED169",
"d  c #20D574",
"f  c #2DDA7E",
"g  c #1FEA81",
"h  c #3BDD8A",
"j  c #22E680",
"k  c #25E78E",
"l  c #22E98A",
"z  c #29E785",
"x  c #2FE28E",
"c  c #2BEB8C",
"v  c #29E590",
"b  c #2CEA92",
"n  c #34E48C",
"m  c #30EA89",
"M  c #3AF491",
"N  c #49D58C",
"B  c #4DD88B",
"V  c #5CDF9D",
"C  c #41FB96",
"Z  c #65C597",
"A  c #9B3984",
"S  c #973799",
"D  c #A71985",
"F  c #A62395",
"G  c #AC299B",
"H  c #A4339D",
"J  c #A53C98",
"K  c #BB3F9D",
"L  c #AC2FA4",
"P  c #B32EA6",
"I  c #B432AC",
"U  c #B23BAC",
"Y  c #B832A3",
"T  c #BE34AB",
"R  c #B63FB3",
"E  c #964395",
"W  c #B349AE",
"Q  c #B741B1",
"!  c #BF49B7",
"~  c #C330A5",
"^  c #C535AE",
"/  c #C440AE",
"(  c #CB45B6",
")  c #F1EB7D",
"_  c #8ABCA3",
"`  c #BDFFDB",
"'  c #F3DB83",
"]  c #EDEF8C",
"[  c #E5F483",
"{  c #EEF281",
"}  c #EAF08B",
"|  c #F6E699",
" . c #FFF18E",
".. c #E4EFA0",
"X. c #F2EFAC",
"o. c #DFEAD9",
"O. c #D2F8DF",
"+. c #DDFAF5",
"@. c #FFDFFF",
"#. c #EAFFD6",
"$. c #F3F3CF",
"%. c #F1FFD4",
"&. c #FEFFDC",
"*. c #E3E1EE",
"=. c #EFE3E3",
"-. c #EBEDEC",
";. c #ECF8EE",
":. c #E5FDF0",
">. c #E2FDFD",
",. c #EEF9FF",
"<. c #F1EEFF",
"1. c #FFE1FF",
"2. c #FEEBFE",
"3. c #F1F5E4",
"4. c #FFF2EB",
"5. c #FDFCE4",
"6. c #FEFEEB",
"7. c #F2F5F4",
"8. c #F5F2FE",
"9. c #F4FAF6",
"0. c #F3FCFC",
"q. c #FFF3FF",
"w. c #FDFDF3",
"e. c #FDFDFD",
/* pixels */
"4.w.6.:.,.e.1.3 q.9.` % : q.#.%.  e.e.e.",
"w.4.o.0.<.2.p 4 e.O.2 Z @ e.&..   q.e.e.",
"0.e.e.e.2.7 A 5 e.% B V X e.o X.  e.e.e.",
"+.,.e.q.9 J K 0 <., f h . w.- | o e.e.e.",
">.>.*.2.q / D i e.> f M $ 6.= ' o e.e.e.",
">.,.q.@.p ^ ~ q 8.1 g s , $.-  .o e.e.e.",
"0.0.2.2.i P T q e.% c C % &.+ )   e.e.e.",
"e.e.q.2.t I P t 2.< c d $ &.& {   e.e.e.",
"w.e.e.2.r U Q e q.$ n n $ 5.$ {   e.e.e.",
"4.w.=.2.p L U e q.$ v n $ 5.$ [   e.e.e.",
"5.w.w.q.r G Q 8 q.$ b b $ 6.. }   e.e.e.",
"w.3.e.2.u ( U 8 q.$ k b $ 6.. ]   e.e.e.",
"w.w.e.1.a Y H y q.$ l c $ 6.+ ]   e.e.e.",
";.0.0.q.q F W 7 q.% l c $ 5.+ ]   e.e.e.",
"e.0.,.q.w ( S y q.$ z m $ 5.. }   e.e.e.",
"e.e.0.q.6 E 8 1.q.$ N B . 6.. ..  e.e.e.",
"0.e.e.e.O O e.q.e.  _ % 0.e.    e.e.e.e.",
"e.e.e.7.X e.-.e.7.;   e.7.7.* e.e.e.e.e.",
"e.-.e.e.7.e.e.9.e.e.-.e.e.e.7.e.e.e.e.e.",
"e.e.9.e.e.e.7.e.0.e.e.e.0.9.e.e.e.e.e.e."
};
