/* XPM */
const static char *playreverse[] = {
/* columns rows colors chars-per-pixel */
"24 17 95 2",
"   c black",
".  c #000002",
"X  c gray1",
"o  c #040500",
"O  c #040402",
"+  c #000004",
"@  c #000005",
"#  c #010005",
"$  c #020204",
"%  c #010006",
"&  c #000007",
"*  c #010008",
"=  c #000009",
"-  c #00000B",
";  c #02000B",
":  c #040309",
">  c #04030B",
",  c #00000C",
"<  c #00000E",
"1  c #08070D",
"2  c #43414C",
"3  c #46454D",
"4  c #4D4C51",
"5  c #605F67",
"6  c #67666B",
"7  c #767676",
"8  c #76757B",
"9  c #75747C",
"0  c #78777F",
"q  c #7B7A80",
"w  c #7B7984",
"e  c #878789",
"r  c #8A8A88",
"t  c #9F9F9F",
"y  c #A7A7A5",
"u  c #A4A4A6",
"i  c #A7A6AB",
"p  c #B2B3AB",
"a  c #ABAAB0",
"s  c #B2B2B4",
"d  c #BBBCB7",
"f  c #BCBCBA",
"g  c #BABABC",
"h  c #C0C1BC",
"j  c #C2C3BE",
"k  c #E6EAD1",
"l  c #E5E8D3",
"z  c #E7EBD2",
"x  c #E6E9D4",
"c  c #E7EBD4",
"v  c #E7EAD5",
"b  c #E6E9D6",
"n  c #E7EAD7",
"m  c #E8ECD3",
"M  c #E8EBD6",
"N  c #E9EDD4",
"B  c #E8ECD5",
"V  c #E9EDD6",
"C  c #E9ECD7",
"Z  c #EBEFD6",
"A  c #EAEED7",
"S  c #E4E5DD",
"D  c #E4E5DF",
"F  c #E6E9D8",
"G  c #E7EAD9",
"H  c #E7E9DC",
"J  c #E8EBD8",
"K  c #E8EBDA",
"L  c #E9ECD9",
"P  c #EAEDD8",
"I  c #EBEFD8",
"U  c #EBEED9",
"Y  c #E9ECDB",
"T  c #EAEDDA",
"R  c #EBEEDB",
"E  c #ECEFDA",
"W  c #E8EADC",
"Q  c #E8EADD",
"!  c #E9EBDD",
"~  c #EAEDDC",
"^  c #EBEEDD",
"/  c #EAECDE",
"(  c #EBEDDF",
")  c #ECEFDC",
"_  c #ECEFDE",
"`  c #ECF0D7",
"'  c #ECF0D9",
"]  c #EDF1DA",
"[  c #EDF0DD",
"{  c #EDF0DF",
"}  c #EAEBE3",
"|  c #EAECE1",
" . c #ECEEE1",
".. c #ECEDE5",
"X. c #F2F4E9",
/* pixels */
"L L L L L L L L W ( K _ L L l I K P K P K P K P ",
"L L L L L L L L W _ K Z b M M Z P K P K P K P K ",
"L L L L L L L L L b l Z ` b I b K P K P K P K P ",
"L L L L L L L L L I L b M Z ( W P K P K P K P K ",
"L L L L L L L L M Z b Z _ ..y e K P K P K P K P ",
"L L L L L L L L W F ( W p 7 = = P K P K P K P K ",
"W M Z M c c l Z M  .t w < = > & K P K P K P K P ",
"I b M K M ( _ K y 6 1 . & . . o P K P K P K P K ",
"Z M Z L W S j r = & . . . o . . K P K P K P K P ",
"M M M M W X.S d q 4 & . . . & . P K P K P K P K ",
"K I M I c M _ L g i 0 2 > & . . K P K P K P K P ",
"K K M I P c c P W | f a 8 3 : . P K P K P K P K ",
"K K K c M I K M c ] b | j s 8 5 K P K P K P K P ",
"I M P M M I K W ( K M P M _ | f P K P K P K P K ",
"K T K P K P K P K P K P K P K P K P K P K P K P ",
"T K P K P K P K P K P K P K P K P K P K P K P K ",
"K P K P K P K P K P K P K P K P K P K P K P K P ",
};
