/* XPM */
static char *probe[] = {
/* columns rows colors chars-per-pixel */
"24 21 67 1",
"  c black",
". c #010100",
"X c #010101",
"o c #000002",
"O c #010103",
"+ c #020202",
"@ c gray1",
"# c #010005",
"$ c #020204",
"% c #040404",
"& c #040406",
"* c #060606",
"= c #070707",
"- c #060608",
"; c #070709",
": c gray3",
"> c #090909",
", c #09090B",
"< c gray4",
"1 c #0A0A0C",
"2 c #0B0B0D",
"3 c #0C0C0C",
"4 c gray5",
"5 c #0C0C0E",
"6 c #0D0D0F",
"7 c #0E0E0E",
"8 c gray6",
"9 c #131313",
"0 c gray10",
"q c #1B1B1D",
"w c #DAD9DE",
"e c #DBDBDD",
"r c #DBDADF",
"t c #DDDDDD",
"y c #DCDCDE",
"u c #DDDDDF",
"i c gray87",
"p c #DFDFDF",
"a c #DCDBE0",
"s c #DCDBE1",
"d c #DDDCE1",
"f c #DDDCE2",
"g c #DEDDE2",
"h c #DEDDE3",
"j c #DEDEE0",
"k c #DFDFE1",
"l c #DFDEE3",
"z c #DFDEE4",
"x c #E0DFE4",
"c c #E0DFE5",
"v c gray88",
"b c #E1E1E1",
"n c #E0E0E2",
"m c #E1E1E3",
"M c #E1E0E5",
"N c #E1E0E6",
"B c #E2E1E6",
"V c #E2E1E7",
"C c #E2E2E4",
"Z c #E3E3E5",
"A c #E3E2E7",
"S c #E4E4E4",
"D c #E4E4E6",
"F c #E6E5EA",
"G c #E6E5EB",
"H c #E6E6E8",
"J c gray93",
/* pixels */
"xllxlnxxxxnxxlxxNlllNlNN",
"xNxxNlxxxxlNxxxxnNNllNnN",
"nnnnnnvlNxlnnnnnkvnnnuun",
"xxllllxllNllAunAlNlNlNNl",
"xlllNNwxAl...9.8.5Nlllll",
"lNllllHlwNr.....1$nNllkl",
"llllNrllNNll.1;%.8unllzN",
"lllluAllnpH.<.....nkllNl",
"llllNnlSun....8...lzllzl",
"lxllNwNNk8::.q$...NNzlll",
"lllllNlu...;$.8N..nlllzl",
"llnNNNN..0.%5$llN.llNzNl",
"lxxlll;.1.1.$lAlNNnNlxnl",
"lNlNl$9..;..lAflrNllxxxl",
"lNlx$;..8.;NllzAlNlllNll",
"lzxx5..$&.lAAArlnlNlNxNl",
"lxNlN...*DnluNAlsNfxlzxl",
"lxkNnu8.DnuNNxllAlGfzlAl",
"lNlnnSeJunNllxllllrxNNll",
"zkNknnnNnnnNllllflxlnnzl",
"lnSunnSnknnNNlNklNlneDln"
};
