/* XPM */
static char *probe[] = {
/* columns rows colors chars-per-pixel */
"20 20 39 1",
"  c black",
". c #010101",
"X c #020202",
"o c gray1",
"O c #040404",
"+ c gray2",
"@ c #070707",
"# c gray3",
"$ c #090909",
"% c gray4",
"& c gray5",
"* c #0E0E0E",
"= c gray6",
"- c #101010",
"; c #111111",
": c #131313",
"> c #181818",
", c #191919",
"< c #E6E6E6",
"1 c #E9E9E9",
"2 c #EAEAEA",
"3 c gray92",
"4 c #ECECEC",
"5 c gray93",
"6 c #EFEFEF",
"7 c #F1F1F1",
"8 c gray95",
"9 c #F4F4F4",
"0 c gray96",
"q c #F6F6F6",
"w c gray97",
"e c #F8F8F8",
"r c #F9F9F9",
"t c gray98",
"y c #FBFBFB",
"u c gray99",
"i c #FDFDFD",
"p c #FEFEFE",
"a c gray100",
/* pixels */
"aaaaaaaaa7aa6aa6aaaa",
"aaaaaaaaaa7ra6aaaaaa",
"aaaaaaaawaa7aa1aaaaa",
"aaaaaaaaarr* - *aaaa",
"aaaaaaaaaaa   % aaaa",
"aaaaaaaawa %@  -aaaa",
"aaaaaaaaw @     aaaa",
"aaaaaaaa    *   aaaa",
"rarawar*@@ ,  aaaaaa",
"raawra   @  *awaaaaa",
"awa7a  , @% aawaaaaa",
"aarr% @ *  raaraaaaa",
"6aa :  @  arrawaaaaa",
"aw %  - @raaa1araaaa",
"a<%     7a77aaaaaaaa",
"raa   %wawaarrrraaaa",
"ara6% aaaaaaaaaaaaaa",
"7a7aa1awaaaaaaaaaaaa",
"aaaaaa7aaaaaaaaaaaaa",
"a6aa<aaaaaaaaaaaaaaa"
};
