/* XPM */
const static char *probe[] = {
/* columns rows colors chars-per-pixel */
"24 21 128 2",
"   c black",
".  c #000100",
"X  c #010100",
"o  c #010101",
"O  c #000002",
"+  c #010103",
"@  c #010200",
"#  c #010300",
"$  c #020300",
"%  c #030301",
"&  c #020202",
"*  c gray1",
"=  c #000004",
"-  c #000005",
";  c #010005",
":  c #010006",
">  c #020204",
",  c #030207",
"<  c #030400",
"1  c #030500",
"2  c #040500",
"3  c #040402",
"4  c #040404",
"5  c gray2",
"6  c #040406",
"7  c #050507",
"8  c #06050B",
"9  c #060608",
"0  c #080806",
"q  c #090A05",
"w  c #0B0C07",
"e  c #0C0E03",
"r  c gray3",
"t  c #090909",
"y  c #09090B",
"u  c #0B0B09",
"i  c #0C0D08",
"p  c #0C0C0E",
"a  c #0E0E0E",
"s  c #0D0C11",
"d  c #0E0E10",
"f  c #0F1008",
"g  c #0F100A",
"h  c #10110C",
"j  c #11110F",
"k  c #131313",
"l  c #131315",
"z  c #1B1B19",
"x  c gray10",
"c  c #DFE1D6",
"v  c #DFE0D8",
"b  c #E4E8CF",
"n  c #E6EACF",
"m  c #E3E6D1",
"M  c #E3E6D3",
"N  c #E3E5D7",
"B  c #E3E6D5",
"V  c #E4E7D4",
"C  c #E1E2DD",
"Z  c #E4E6D8",
"A  c #E5E7D9",
"S  c #E4E5DF",
"D  c #E5E7DC",
"F  c #E5E8D3",
"G  c #E6EAD3",
"H  c #E7EBD2",
"J  c #E5E8D5",
"K  c #E6E9D4",
"L  c #E6E9D6",
"P  c #E7EAD5",
"I  c #E7EBD4",
"U  c #E7EAD7",
"Y  c #E6E9D8",
"T  c #E6E8DA",
"R  c #E7E9DB",
"E  c #E7EAD9",
"W  c #E6E8DD",
"Q  c #E7E9DE",
"!  c #E8EBD6",
"~  c #E8ECD1",
"^  c #E8ECD3",
"/  c #E8ECD5",
"(  c #E9EDD4",
")  c #E9ECD7",
"_  c #E9EDD6",
"`  c #EAEED5",
"'  c #EAEED7",
"]  c #EBEFD6",
"[  c #E8EBD8",
"{  c #E8EBDA",
"}  c #E8EADC",
"|  c #E8EADD",
" . c #E9EBDD",
".. c #E9EBDE",
"X. c #E9ECD9",
"o. c #E9ECDB",
"O. c #EAEDD8",
"+. c #EAEDDA",
"@. c #EBEED9",
"#. c #EBEFD8",
"$. c #EBEEDB",
"%. c #EAEDDC",
"&. c #EAECDE",
"*. c #EAECDF",
"=. c #EBEDDF",
"-. c #EBEEDD",
";. c #ECEFDA",
":. c #ECEFDC",
">. c #ECEFDE",
",. c #ECF0D7",
"<. c #ECF0D9",
"1. c #EDF0DD",
"2. c #EDF0DF",
"3. c #EEF1DC",
"4. c #EEF1DE",
"5. c #EFF2DD",
"6. c #EFF3DC",
"7. c #EFF2DF",
"8. c #E5E6E0",
"9. c #E7E8E2",
"0. c #E8E9E1",
"q. c #E8E9E3",
"w. c #EAEBE5",
"e. c #EAECE1",
"r. c #EBEDE2",
"t. c #ECEEE1",
"y. c #ECEDE5",
"u. c #EFF1E3",
/* pixels */
"X.X.X.X.X.X.X.X.( ( ( #.X.=.X.X.( #.m #.U ..X.( ",
"X.X.X.X.X.X.X.X... .=.B =.P  . ...P ] ( X.$.X.P ",
"X.X.X.X.X.X.X.X.U X.X.X.( ] ^ ,. .1.( ( P X./ <.",
"X.X.X.X.X.X.X.X.#.( P X.P X.P P y.N X.X.X.N u.m ",
"X.X.X.X.X.X.X.X.B u.% % 3 l > s % e N ( P #.P 5.",
"X.X.X.X.X.X.X.X.6.B D % > > 8 > t < =.X.U =.X.P ",
"X.X.X.X.X.X.X.X.n / ..e.% 5 % < > t U X.P X.U X.",
"X.X.X.X.X.X.X.X.X.e.v % r % % % > % >.P #.X.X.( ",
"P X.X...P X.( ( w.C % % % % y > % % S N 6./ P X.",
"1.P ( ..X.P 1.N q.g 5 5 > x % % % % e.1.m X.( =.",
"N 1.X.( X.1.A e.% % % y % % i w.% % ..=.X.X.P X.",
"..P ( #.X.N c % % x % > p % ..X.q.< ..P ( ( X.#.",
"X.1.( X.P e.q > t % k % % D X.#.....X.X.X.X.P X.",
"P N X.1.D % g > % % % < e.D X.( X.X.X.X.U P 1.X.",
"<.X.B u.% 5 > > s % i D ..X.( X.( X.( P X.1.P ( ",
"^ / 1.D q % > : : % q.N X.X.U X.X.P X.X...P X.X.",
"X.X.( ( ..< % % 6 S ..( X.X.( X.X.X.X.X.X.X.X.X.",
"X./ X.X.N ..i % S >.( P ( X.#.X.X.X.X.X.X.X.X.X.",
"( X.X.P .. .e. ...X.( #.U X.P <.X.X.X.X.X.X.X.X.",
"X.( U =.X.X.P ( X./ X.X.D e.X.( X.X.X.X.X.X.X.X.",
"X.( X...X.X.P ( X.( X.X.N e.X.( X.X.X.X.X.X.X.X."
};
