/* XPM */
static char *sethome[] = {
/* columns rows colors chars-per-pixel */
"20 20 68 1",
"  c black",
". c #010101",
"X c #020202",
"o c gray1",
"O c #040404",
"+ c gray2",
"@ c #060606",
"# c #070707",
"$ c gray3",
"% c #090909",
"& c gray4",
"* c #0B0B0B",
"= c #0C0C0C",
"- c gray5",
"; c #0E0E0E",
": c gray6",
"> c #101010",
", c gray7",
"< c #131313",
"1 c #151515",
"2 c #161616",
"3 c gray9",
"4 c #181818",
"5 c #191919",
"6 c #1B1B1B",
"7 c #202020",
"8 c gray13",
"9 c LightGray",
"0 c #D5D5D5",
"q c #D7D7D7",
"w c #D8D8D8",
"e c gray85",
"r c #DADADA",
"t c gray86",
"y c gainsboro",
"u c #DDDDDD",
"i c #DFDFDF",
"p c gray88",
"a c #E2E2E2",
"s c gray89",
"d c #E4E4E4",
"f c gray90",
"g c #E6E6E6",
"h c #E7E7E7",
"j c gray91",
"k c #E9E9E9",
"l c #EAEAEA",
"z c gray92",
"x c #ECECEC",
"c c gray93",
"v c #EEEEEE",
"b c #EFEFEF",
"n c gray94",
"m c #F1F1F1",
"M c gray95",
"N c #F3F3F3",
"B c #F4F4F4",
"V c gray96",
"C c #F6F6F6",
"Z c gray97",
"A c #F8F8F8",
"S c #F9F9F9",
"D c gray98",
"F c #FBFBFB",
"G c gray99",
"H c #FDFDFD",
"J c #FEFEFE",
"K c gray100",
/* pixels */
"KbDDKbKNDCKDNlKKCC, ",
"9CDKNDKCDCDKDKNsK   ",
"KDKqKKNNKDKNK DK @2D",
"bKib  sKC@ KK K = sK",
"lKKK =Ks   @K =  KKC",
"KCKK@ C4@KD  7 @bKND",
"bDNC &  ssKC @@ @ DK",
"KKDD   KKbKlK  KDKCK",
"KKsC& NDKKDbKK  DKKN",
"bsK  NDKDbKKsNK@ KbD",
"KK  KNKC    =Kbs &bq",
"b 4CsDiK@DKK&NKKK &K",
"Kl@DNKNK KKC&DsNq@NK",
"sD KNCKN=iNK DsKK Ks",
"KK DCCCC KKK KCNq4Ds",
"Ks@DCKqK@KlK2iKND2lD",
"KC lKKDC KDN=KKsD2KN",
"KC=2  &    7 =,&, sK",
"sKNKKKKDKDNKKlCNDbKN",
"KsKCDqqKNKqKCKlKNKbK"
};
