/* XPM */
static char *stepback[] = {
/* columns rows colors chars-per-pixel */
"24 21 139 2",
"   c #1D1F12",
".  c #1E1F19",
"X  c #1D1D1B",
"o  c gray12",
"O  c #1F2018",
"+  c #1F201A",
"@  c #212413",
"#  c #202214",
"$  c #212316",
"%  c #222514",
"&  c #222417",
"*  c #212318",
"=  c #20211B",
"-  c #252719",
";  c #20211C",
":  c #21211F",
">  c #23241C",
",  c #23241F",
"<  c #25271C",
"1  c #26281A",
"2  c #201E29",
"3  c #202020",
"4  c gray13",
"5  c #222220",
"6  c #232321",
"7  c #232323",
"8  c #242520",
"9  c #252621",
"0  c #242422",
"q  c #232325",
"w  c #222126",
"e  c #232227",
"r  c gray14",
"t  c #252525",
"y  c #252527",
"u  c gray15",
"i  c #212028",
"p  c #23212C",
"a  c #22202D",
"s  c #282828",
"d  c #30302E",
"f  c gray21",
"g  c #393A35",
"h  c #383836",
"j  c #3A3B36",
"k  c #363638",
"l  c #36353B",
"z  c #3A3A3C",
"x  c #3F3F3D",
"c  c #40403E",
"v  c #424146",
"b  c #444444",
"n  c #53544C",
"m  c #4E4E50",
"M  c #555553",
"N  c #797A72",
"B  c #7B7C76",
"V  c #898989",
"C  c #A0A390",
"Z  c #ABACA6",
"A  c #B3B4AC",
"S  c #CACBC5",
"D  c #CED0C5",
"F  c #DFE1D3",
"G  c #E4E8CF",
"H  c #E9EECE",
"J  c #E2E5D2",
"K  c #E3E6D3",
"L  c #E4E7D2",
"P  c #E5E9D2",
"I  c #E5E8D3",
"U  c #E6EAD3",
"Y  c #E5E8D5",
"T  c #E6E9D4",
"R  c #E7EBD4",
"E  c #E7EAD5",
"W  c #E6E9D6",
"Q  c #E7EAD7",
"!  c #E8ECD1",
"~  c #E9EED0",
"^  c #EAEFD1",
"/  c #E8ECD3",
"(  c #EAEED3",
")  c #E8EBD6",
"_  c #E9EDD4",
"`  c #E8ECD5",
"'  c #EAEED5",
"]  c #E9EDD6",
"[  c #E9ECD7",
"{  c #EBEFD6",
"}  c #EAEED7",
"|  c #E5E7D9",
" . c #E4E6DB",
".. c #E6E9D8",
"X. c #E7EAD9",
"o. c #E7E9DB",
"O. c #E6E8DD",
"+. c #E8EBD8",
"@. c #E8EBDA",
"#. c #E9ECD9",
"$. c #EAEDD8",
"%. c #EBEFD8",
"&. c #EBEED9",
"*. c #E9ECDB",
"=. c #EAEDDA",
"-. c #EBEEDB",
";. c #ECEFDA",
":. c #E8EADC",
">. c #E8EADD",
",. c #E9EBDD",
"<. c #E9EBDE",
"1. c #E8EADF",
"2. c #EAEDDC",
"3. c #EBEEDD",
"4. c #EAECDE",
"5. c #EAECDF",
"6. c #EBEDDF",
"7. c #ECEFDC",
"8. c #ECEFDE",
"9. c #ECF0D9",
"0. c #EEF2D9",
"q. c #EDF0DB",
"w. c #EEF2DB",
"e. c #EDF0DD",
"r. c #EFF3DC",
"t. c #EDF0DF",
"y. c #EEF1DE",
"u. c #EFF2DF",
"i. c #E9EAE2",
"p. c #EAEBE3",
"a. c #EBEDE0",
"s. c #EAECE1",
"d. c #EBEDE2",
"f. c #ECEEE0",
"g. c #EDEFE1",
"h. c #E9EAE5",
"j. c #EBECE7",
"k. c #E9E9E9",
"l. c #EFF0E8",
/* pixels */
"[ E ) $.$.$.X.@.O.2.$.E [ 2.$.O.X.$.[ +.$.) ) $.",
"$.$.$.$.E E $.$.2.$.[ [ [ / $.t./ E $.w.U $.$.E ",
"+.+.X.$.q.$.$.E [ E / [ [ / [ U $.E / U $.) ) +.",
"+.8.E $.E E X.$.2.2.f.X.X.2.X.g.E X.2.@.8.+.+.$.",
"$.X.$.X.$.+.$.E q./ U [ $./ E $.E 2.@.2.J X.2./ ",
"E $.$.X.g.O.s.2.U w.U t.[ / w.E $.@.E E g.@.$.@.",
"$.E E g.O - - O , X s 3 3 3 + h.$.X.$.$.U q.@.@.",
"[ $.2.X.1 i.X j.$.@.O.f.$ f.$ 2.@.$.@.@.C Y $.@.",
"2.E @.e.w - 0 @.@.$.$.E u O 0 *.@.*.Z m c f.E *.",
"X.$./ X.w O.q X.( [ / q.+ e.0 @.A n x v x X.q.$.",
"$.@.$.X.y - 3 e.O.d.O.l.2 0 p M f d k l f [ ! / ",
"@.Y / 2.+ O.q E ' ' [ / 0 *.+ F V x z l g X.[ $.",
"@.$.' $.q - q X.E / $.@.+ - q *.i.D B b j *.@.O.",
"2.J w.P + f.3 e.@.@.t.@.3 d.3 2.$.E X.S N E t.O.",
"*.$.G q.0 1 0 O 4 0 + 0 a O i p./ @.2.O.O.' / f.",
"*.$.( ! p.X.k.2./ $./ / f.^ *.H @.$.$.2.@.^ ^ / ",
"@.@.$.@.$.@.$.@.$.@.$.@.$.@.$.@.$.@.$.@.$.@.$.@.",
"@.$.@.$.@.$.@.$.@.$.@.$.@.$.@.$.@.$.@.$.@.$.@.$.",
"$.@.$.@.$.@.$.@.$.@.$.@.$.@.$.@.$.@.$.@.$.@.$.@.",
"@.$.@.$.@.$.@.$.@.$.@.$.@.$.@.$.@.$.@.$.@.$.@.$.",
"@.$.@.$.$.@.$.@.$.@.$.@.@.$.@.$.@.$.@.$.$.@.$.@."
};
