/* XPM */
static char *stepfwd[] = {
/* columns rows colors chars-per-pixel */
"24 21 139 2",
"   c #1D1F12",
".  c #1E1E1C",
"X  c #1F1F1D",
"o  c gray12",
"O  c #1F2113",
"+  c #1F2018",
"@  c #1F201A",
"#  c #212316",
"$  c #202217",
"%  c #222514",
"&  c #252817",
"*  c #20211B",
"=  c #22231B",
"-  c #242619",
";  c #252719",
":  c #20211C",
">  c #20201E",
",  c #22231E",
"<  c #23241F",
"1  c #25271C",
"2  c #26281A",
"3  c #201E29",
"4  c #202020",
"5  c gray13",
"6  c #222220",
"7  c #232321",
"8  c #222222",
"9  c #232323",
"0  c #242520",
"q  c #252621",
"w  c #242422",
"e  c #252523",
"r  c #262722",
"t  c #232227",
"y  c gray14",
"u  c #252525",
"i  c #242426",
"p  c #252527",
"a  c #222129",
"s  c #242328",
"d  c #23212E",
"f  c #25232E",
"g  c #282828",
"h  c #30302E",
"j  c gray21",
"k  c #393A35",
"l  c #383836",
"z  c #3A3B36",
"x  c #363638",
"c  c #36353B",
"v  c #3A3A3C",
"b  c #3F3F3D",
"n  c #40403E",
"m  c #424146",
"M  c #444444",
"N  c #53544C",
"B  c #4E4E50",
"V  c #565654",
"C  c #797A72",
"Z  c #7B7C76",
"A  c #898989",
"S  c #A0A390",
"D  c #ABACA6",
"F  c #B3B4AC",
"G  c #CACBC5",
"H  c #CED0C5",
"J  c #DFE1D3",
"K  c #E9EECE",
"L  c #E3E6D3",
"P  c #E4E7D2",
"I  c #E4E7D6",
"U  c #E7EBD0",
"Y  c #E5E9D2",
"T  c #E5E8D3",
"R  c #E7EBD2",
"E  c #E6EAD3",
"W  c #E5E8D5",
"Q  c #E6E9D4",
"!  c #E7EBD4",
"~  c #E7EAD5",
"^  c #E6E9D6",
"/  c #E7EAD7",
"(  c #E8ECD1",
")  c #E9EED0",
"_  c #EAEFD1",
"`  c #E8ECD3",
"'  c #E8EBD6",
"]  c #E9EDD4",
"[  c #E8ECD5",
"{  c #EBEFD4",
"}  c #EAEED5",
"|  c #E9EDD6",
" . c #E9ECD7",
".. c #EBEFD6",
"X. c #EAEED7",
"o. c #E3E5DA",
"O. c #E5E7D9",
"+. c #E6E9D8",
"@. c #E6E8DA",
"#. c #E7E9DB",
"$. c #E6E8DD",
"%. c #E8EBD8",
"&. c #E8EBDA",
"*. c #E9ECD9",
"=. c #EAEDD8",
"-. c #EBEFD8",
";. c #EBEED9",
":. c #E9ECDB",
">. c #EAEDDA",
",. c #EBEEDB",
"<. c #ECEFDA",
"1. c #E8EADC",
"2. c #E8EADD",
"3. c #E9EBDD",
"4. c #E9EBDE",
"5. c #E8EADF",
"6. c #EAEDDC",
"7. c #EBEEDD",
"8. c #EAECDE",
"9. c #EAECDF",
"0. c #EBEDDF",
"q. c #ECEFDC",
"w. c #EDF1D8",
"e. c #EDF1DA",
"r. c #EDF0DD",
"t. c #EDF0DF",
"y. c #EFF2DF",
"u. c #E9EBE0",
"i. c #E9EAE2",
"p. c #EBEDE0",
"a. c #EBEDE2",
"s. c #ECEEE0",
"d. c #EDEFE1",
"f. c #EAEBE6",
"g. c #EBECE4",
"h. c #EDEFE4",
"j. c #EAEAEA",
"k. c #ECEDE8",
"l. c #EFF0E8",
/* pixels */
";.Q  .;.' ' ;.' 2.;.;.' Q ;.6.$.+.;.6.;.%.;.Q ;.",
"Q ;.;.P e.;.Q  .6.%.E  . .' Q 6.' ;.Q Q ' ;. .;.",
";.Q  .;.Q  .P ;.Q ;. .{ {  . .{ E ;.' t.;.+.+.+.",
";.%.%.q.+.;.+.;.d.+.%.$.+.d.6.$.e.' ' Q Q ;.r.;.",
"+.;.Q L 6.;.6.+. .E ' ;.;.E  .{ +.6.;.;.&.&.+.;.",
"%.;.;.d.+.Q %.;.E e. .Q ;.P e.Q 6.u.+.d.Q &.;.Q ",
"%.%.q.L ;.6.+.+.f.0 y y 5 g . r @ # , O d.+.Y ;.",
"%.6.Q S +.;.%.;.&.% u.# 6.u.&.6.k.@ u.1 +.e.;.' ",
"6.Q 6.b B D 6.&.$.0 O u Q  .;.Q ;.y @ s 6.' ' ;.",
";.e.+.b m b N F +.q 6.@ e. .`  .&.o d.s +.e.&.&.",
"Q ' ;.j c x h j V d 0 3 l.o.u.6.6.5 O p Q Q ;.' ",
";. .+.k c v b A J @ $.0 ' ' {  .;.u u.o ;.e.+.6.",
"5.;.5.z M Z H u.5.s 2 5 ;.e.&.' +.0 # y Q ` +.+.",
"+.r.Q C G $.Q 6.&.@ t.@ +.r.&.' d.o u.0 ' w.&.;.",
"6.(  .5.$.6. .' f.a @ f , , 0 y & o 2 @ { ' &.&.",
"' { ) ' 6.;. .' K 6.{ u.( ' ;.Q +.k.5.k.( U e.&.",
"&.;.&.&.;.;.&.&.;.&.' &.;.&.' ;.&.&.;.&.' &.;.&.",
"&.&.;.' &.' &.;.&.&.;.&.;.' &.;.&.;.&.&.;.&.;.' ",
";.;.&.&.' &.' ;.' ;.&.;.&.&.' &.' &.;.;.&.;.&.&.",
"&.' &.;.;.;.&.&.&.;.&.' &.;.;.&.;.&.&.' &.' &.;.",
"&.&.;.' &.&.;.&.&.&.;.&.;.' &.;.&.;.&.&.;.&.' ;."
};
