/* XPM */
static char *tiles[] = {
/* columns rows colors chars-per-pixel */
"24 21 98 2",
"   c black",
".  c #000002",
"X  c #010103",
"o  c #000004",
"O  c #000005",
"+  c #010005",
"@  c #020204",
"#  c #030305",
"$  c #030207",
"%  c gray2",
"&  c #040406",
"*  c #040507",
"=  c #050507",
"-  c #040308",
";  c #050409",
":  c #08070C",
">  c #08070D",
",  c gray3",
"<  c #090909",
"1  c #09090B",
"2  c #09080D",
"3  c #0A0A0C",
"4  c #0C0C0C",
"5  c #0C0C0E",
"6  c #0D0C11",
"7  c #151517",
"8  c #151419",
"9  c #1B1A1F",
"0  c #201F25",
"q  c #282828",
"w  c #DADBDF",
"e  c #DBDADF",
"r  c #DDDDDD",
"t  c #DCDCDE",
"y  c #DCDDDF",
"u  c #DDDDDF",
"i  c gray87",
"p  c #DFDFDF",
"a  c #DBDAE0",
"s  c #DCDBE0",
"d  c #DCDBE1",
"f  c #DDDBE0",
"g  c #DEDBE2",
"h  c #DCDDE1",
"j  c #DDDCE1",
"k  c #DDDCE2",
"l  c #DEDCE1",
"z  c #DEDDE2",
"x  c #DEDDE3",
"c  c #DFDCE3",
"v  c #DFDDE2",
"b  c #DEDEE0",
"n  c #DFDFE1",
"m  c #DEDFE3",
"M  c #DFDEE3",
"N  c #DEDFE4",
"B  c #DFDEE4",
"V  c #DBE7DB",
"C  c #DDE1E4",
"Z  c #DFE0E4",
"A  c #DEE2E5",
"S  c #E0DEE3",
"D  c #E0DDE4",
"F  c #E0DFE4",
"G  c #E0DFE5",
"H  c #E1DEE5",
"J  c #E1DFE4",
"K  c #E1DEE7",
"L  c #E2DFE6",
"P  c #E5DEE6",
"I  c #E6DFE6",
"U  c #E7DCEA",
"Y  c gray88",
"T  c #E1E1E1",
"R  c #E0E0E2",
"E  c #E1E1E3",
"W  c #E2E2E2",
"Q  c gray89",
"!  c #E0E1E5",
"~  c #E1E0E5",
"^  c #E1E0E6",
"/  c #E1E2E4",
"(  c #E2E1E6",
")  c #E2E1E7",
"_  c #E3E1E6",
"`  c #E2E2E4",
"'  c #E3E3E5",
"]  c #E3E2E7",
"[  c #E4E2E7",
"{  c #E4E4E6",
"}  c #E2E3E8",
"|  c #E3E2E8",
" . c #E4E1E8",
".. c #E4E3E8",
"X. c #E4E3E9",
"o. c #EAE9EE",
"O. c #EAEAEC",
"+. c #EBEBED",
/* pixels */
"F F F F F E F F K N E E F F F F F E N F N F E F ",
"F F F F F E K F F F j M F F F F F E F K F F M M ",
"r r E E r E Y r E E E E j E F E j E E E E j M M ",
"{ E r E 1 ; X X X % X % X X X X 7 X X j N F M E ",
"r r E E % O.E E Y r Q + E E Q E { E 9 ] F g F F ",
"E E E { X E E E E ] { + j { V E j E % E j F F F ",
"E j E r X r ] E t j a ; E a P j E j + c F ] g K ",
"E E E Y % j { j E ] c 0 F F F F E r + E F F P F ",
"E E r E X E j E E j E X r E ' E V F + ] K j ] I ",
"r E j E X E M E r E E X j { j j r ' 3 a ] F F a ",
"{ E M E + X 5 X q X 4 , X 1 % X + X + E F a F E ",
"a E E j + E F N o.j M X E j E j X.j + K N F M N ",
"K a E N + K E ] a K E 8 j E F K a X.6 F F K j A ",
"X.E F K & F F N X.a +.& F F N N E K + F F E N j ",
"a a K E - a F a ] F j + a F K E ] a + F E N F P ",
"] N F N > F F F N N F + F ] a F F ] 8 F a N N P ",
"F ] M M & a ] F F E F + K N ] E E a 6 ] ] j E U ",
"F M j { & 8 + + ; + $ + + + + > > ; + K a ] F r ",
"M F F M ] j E F N N E E F E N F E j F c F F E V ",
"] r M ] M M E E E F E E E E F j N F F N M F F M ",
"r E E r { E r E E E E E E E E j F F F F F F F r "
};
