/* XPM */
static char *tiles[] = {
/* columns rows colors chars-per-pixel */
"24 21 142 2",
"   c black",
".  c #000100",
"X  c #010100",
"o  c #000002",
"O  c #010103",
"+  c #000200",
"@  c #010200",
"#  c #010300",
"$  c #000004",
"%  c #000005",
"&  c #010005",
"*  c #000007",
"=  c #010006",
"-  c #020106",
";  c #020107",
":  c #020204",
">  c #020400",
",  c #030400",
"<  c #030500",
"1  c #030600",
"2  c #040500",
"3  c #040600",
"4  c #050700",
"5  c #060701",
"6  c #060702",
"7  c #040404",
"8  c #050507",
"9  c #020109",
"0  c #030208",
"q  c #04020D",
"w  c #05030E",
"e  c #05040A",
"r  c #05040C",
"t  c #07060C",
"y  c #08070D",
"u  c #08070F",
"i  c #080901",
"p  c #090B00",
"a  c #080904",
"s  c #090907",
"d  c #0A0B05",
"f  c #0D0F04",
"g  c #08080A",
"h  c #0A0A0C",
"j  c #050213",
"k  c #0D0C12",
"l  c #10100E",
"z  c #181A0D",
"x  c gray7",
"c  c #121116",
"v  c #151419",
"b  c #191A14",
"n  c #1D1D1B",
"m  c #28282A",
"M  c #E3E7CE",
"N  c #E7ECCE",
"B  c #E9EECE",
"V  c #E4E7D2",
"C  c #E4E7D4",
"Z  c #E4E7D6",
"A  c #E5E7D9",
"S  c #E6E7DF",
"D  c #E4E8D1",
"F  c #E5E9D0",
"G  c #E5E8D3",
"H  c #E7EBD0",
"J  c #E6EAD3",
"K  c #E7EBD2",
"L  c #E5E8D5",
"P  c #E5E8D7",
"I  c #E6E9D4",
"U  c #E6E9D6",
"Y  c #E7EAD5",
"T  c #E7EBD4",
"R  c #E7EAD7",
"E  c #E6E9D8",
"W  c #E7E9DB",
"Q  c #E7EAD9",
"!  c #E7E9DC",
"~  c #E7E9DE",
"^  c #E8EBD6",
"/  c #E8ECD1",
"(  c #E8ECD3",
")  c #E9EDD2",
"_  c #EAEED3",
"`  c #E8ECD5",
"'  c #E9EDD4",
"]  c #E9ECD7",
"[  c #E9EDD6",
"{  c #EAEED5",
"}  c #EBEFD4",
"|  c #EAEED7",
" . c #EBEFD6",
".. c #E8EBD8",
"X. c #E8EBDA",
"o. c #E8EADC",
"O. c #E8EADD",
"+. c #E9EBDD",
"@. c #E8EADF",
"#. c #E9EBDE",
"$. c #E9ECD9",
"%. c #E9ECDB",
"&. c #EAEDD8",
"*. c #EAEDDA",
"=. c #EBEED9",
"-. c #EBEFD8",
";. c #EBEEDB",
":. c #EAEDDC",
">. c #EAECDE",
",. c #EAECDF",
"<. c #EBEDDF",
"1. c #EBEEDD",
"2. c #ECEFDA",
"3. c #ECEFDC",
"4. c #EBF0D2",
"5. c #ECF0D7",
"6. c #ECF0D9",
"7. c #EDF1D8",
"8. c #EDF0DB",
"9. c #EDF1DA",
"0. c #EEF2D9",
"q. c #EEF2DB",
"w. c #EDF0DD",
"e. c #EDF0DF",
"r. c #EEF1DC",
"t. c #F0F3DE",
"y. c #E4E5E0",
"u. c #E6E7E1",
"i. c #E7E8E0",
"p. c #E8E9E1",
"a. c #E9EBE0",
"s. c #EAEBE3",
"d. c #E9EAE4",
"f. c #EAECE1",
"g. c #EBEDE0",
"h. c #EBEDE2",
"j. c #ECEEE0",
"k. c #ECEEE1",
"l. c #ECEEE3",
"z. c #EDEFE2",
"x. c #ECEDE8",
"c. c #EEF0E2",
/* pixels */
"..^ [ [ Y ;.Y K [ h.;.! [ #.J h.#.[ Y ;.;.Y ....",
";.Y [ ;.;.! #.-.[ R M c.B [ ( ;.R ;.;.J Y ;.Y ;.",
";.Y ;.R h.h.X.#.( #.[ h.[ R  ...#.R ..l.Y #.;.[ ",
"R Y ;.#.i 2 X X X t X w X = X = z X X ! ! J [ J ",
"R #...a.2 x.! X.K R r.X [ V [ ;.R l.b u.r.-.^ ;.",
";.J X.a.X u.l.[ ;.! R X [ #.^ #.;.a.X a.#.M -...",
"[ ^ ;...X l.;.J ( ;.X.h Y X.( ;.( ..X a.;. .V [ ",
"[ ^ ;.#.5 #.Y 4.[ #.X.n ..h...X.[ ;.X a.;.( [ ;.",
"#.Y Y ;.X ;.[ ;.#.Y ;.X [ Y Y #.#.r.= ;.;.J ^ ;.",
"Y [ [ J X R ;.#.h.#.R 8 J ;.;.#.#.X.j [ Y q.J Y ",
"Y -.J ;.9 < 5 X m X l j X 5 5 X < X e [ ;.J -.[ ",
"[ [ ;.r.= h.;.h.c.J ;.X ;.R  .#.;...= ^ #.[ Y #.",
"#.#.R R 9 ;.[ Y J  .;.x K -.J [ ^ #.k ;.;.V ;.^ ",
"X.! l.Z = ;.( [ X.#.h.q #.#.R #.^ [ X ^ ..[ ;...",
";.J #.R 9 ;.J ;.r.M ;.X -.J  .J -.;.= ( ^ [ J ..",
"( [ Y ;.t R ;.R Y ;.#.= ;.;.[ ;.^ ..v ;.^ ^ ;.;.",
"[ ;.X.a.< #.[ ( [ [ #.X c.R ;.( #.#.f X.R [ ;...",
"[ Y ! S e c = = t X = 9 = = = g h < X d.h.Y [ ..",
"[ Y ^ ;.R ;.Y ;.;.Y ;...;.R ;.R N  .Y [ [ K ^ ;.",
"..;.;.^ [ ;.Y [ ..[ ^ Y J ;.J ;.#...l.R ^ [ [ ..",
"R ;.;.Y Y ;.[ [ ;.[ ^ [ J Y ;...#.R l...^ [ [ .."
};
