/* XPM */
static char *tiles[] = {
/* columns rows colors chars-per-pixel */
"20 20 44 1",
"  c black",
". c #010101",
"X c #020202",
"o c gray1",
"O c #040404",
"+ c gray2",
"@ c #060606",
"# c #070707",
"$ c gray3",
"% c #090909",
"& c #0B0B0B",
"* c #0C0C0C",
"= c gray5",
"- c #131313",
"; c #161616",
": c gray9",
"> c #181818",
", c #202020",
"< c #252525",
"1 c gainsboro",
"2 c gray89",
"3 c #E4E4E4",
"4 c #E7E7E7",
"5 c gray91",
"6 c #ECECEC",
"7 c gray93",
"8 c #EEEEEE",
"9 c #EFEFEF",
"0 c gray94",
"q c #F1F1F1",
"w c gray95",
"e c #F3F3F3",
"r c #F4F4F4",
"t c gray96",
"y c #F6F6F6",
"u c gray97",
"i c #F8F8F8",
"p c #F9F9F9",
"a c gray98",
"s c #FBFBFB",
"d c gray99",
"f c #FDFDFD",
"g c #FEFEFE",
"h c gray100",
/* pixels */
"h0hhehhhhphhepphphph",
"0hphhphphhhhhhheh0h0",
"h0$$   #  #    ;  0h",
"hh$5hhpphh hphh20,pe",
"eh hhhphhe hhehhh hh",
"hh hp0hheh hpehhh hp",
"ep phhheh0,7hhphh hp",
"hh phh0hhh ehhhhp hh",
"hh phhhphh hhhhpp#he",
"hp#h0eehhe$hhehhh ph",
"he# = <  =$ $#    h1",
"hp h0h4hhe hhphhh 7h",
"hh pphhhhh-ephhhe=hh",
"eh hhphhe4#hhh0hh hh",
"hh#hhe7hhh hpphhh ph",
"h0#ehhehhh hhehee;7h",
"hh phhhhhp hphh7p=hp",
"he#;  $       $=  ph",
"0h7hhhhhhphphhp0h0he",
"hhphpp0hhh4hhphhehhh"
};
