/* XPM */
static char *toBegin_[] = {
/* columns rows colors chars-per-pixel */
"24 17 91 1",
"  c black",
". c #000100",
"X c #010100",
"o c #010101",
"O c #000200",
"+ c #010200",
"@ c #030301",
"# c #010103",
"$ c #000005",
"% c #020106",
"& c #353535",
"* c #363634",
"= c #373833",
"- c #353439",
"; c #363638",
": c #35343A",
"> c #393939",
", c #3B3B39",
"< c #3E3E3C",
"1 c #3E3E3E",
"2 c gray25",
"3 c #424240",
"4 c #424244",
"5 c #4B4B4D",
"6 c #4E4E4E",
"7 c #565656",
"8 c #7B7C74",
"9 c #7D7D7B",
"0 c gray53",
"q c #9FA193",
"w c #AFAFAD",
"e c #B2B3AD",
"r c #C9CAC4",
"t c #CBCCC4",
"y c #D8D9D4",
"u c #DDDED9",
"i c #E4E7D2",
"p c #E4E7D4",
"a c #E4E7D6",
"s c #E5E9D0",
"d c #E4E8D1",
"f c #E6E9D4",
"g c #E7EBD4",
"h c #E7EAD5",
"j c #E6E9D6",
"k c #E7EAD7",
"l c #E9EDD2",
"z c #E8ECD3",
"x c #E8EBD6",
"c c #E9EDD4",
"v c #E8ECD5",
"b c #EBEFD4",
"n c #EAEED5",
"m c #E9EDD6",
"M c #E9ECD7",
"N c #EBEFD6",
"B c #EAEED7",
"V c #E5E7DC",
"C c #E6E9D8",
"Z c #E7EAD9",
"A c #E7E9DB",
"S c #E7E9DC",
"D c #E8EBD8",
"F c #E8EBDA",
"G c #E9ECD9",
"H c #EAEDD8",
"J c #EBEED9",
"K c #E9ECDB",
"L c #EAEDDA",
"P c #EBEEDB",
"I c #ECEFDA",
"U c #E8EADC",
"Y c #E8EADD",
"T c #E9EBDD",
"R c #E9EBDE",
"E c #E8EADF",
"W c #EAEDDC",
"Q c #EBEEDD",
"! c #EAECDE",
"~ c #EAECDF",
"^ c #EBEDDF",
"/ c #ECF0D9",
"( c #EDF1DA",
") c #EDF0DD",
"_ c #EFF2DD",
"` c #E7E8E0",
"' c #E9EBE0",
"] c #EBEDE2",
"[ c #EDEFE1",
"{ c #EAEBE6",
"} c #EEF1E0",
/* pixels */
"GGGGGGGGBkBvvGTGvvMLMfMh",
"GGGGGGGGvGgBvvLGLLvAJMMM",
"GGGGGGGGLAMMMvLkvGLvkLfk",
"GGGGGGGGWGLLvLGLTkTLkMvL",
"GGGGGGGGXXAkMfLka[kMLMkv",
"GGGGGGGGXXYLMMvLqkTkLvkv",
"GGGGGGGGXXLs)'w53GvvvGv]",
"GGGGGGGGXX']e6121WvL^vv]",
"GGGGGGGGXXy7:;;&&WBGiBLv",
"GGGGGGGG$X{u04;>,]vGGvBM",
"GGGGGGGG$XWvWr93=GGkWBsG",
"GGGGGGGG$XalGGVr8aBvCBBG",
"GGGGGGGGXXLBvG^C'Bs^WGBC",
"GGGGGGGG`WCGGkvBWlbaWWkW",
"GGGGGGGGGGGGGGGGGGGGGGGG",
"GGGGGGGGGGGGGGGGGGGGGGGG",
"GGGGGGGGGGGGGGGGGGGGGGGG",
};
