/* XPM */
static char *twoD[] = {
/* columns rows colors chars-per-pixel */
"24 21 219 2",
"   c #000100",
".  c #000200",
"X  c #010200",
"o  c #000300",
"O  c #010300",
"+  c #020300",
"@  c #020400",
"#  c #030400",
"$  c #030500",
"%  c #040500",
"&  c #040600",
"*  c #050600",
"=  c #050700",
"-  c #060701",
";  c #060800",
":  c #070800",
">  c #070900",
",  c #080901",
"<  c #080A00",
"1  c #090B00",
"2  c #090A02",
"3  c #0A0B03",
"4  c #0A0C00",
"5  c #0B0D00",
"6  c #0A0C01",
"7  c #0C0E01",
"8  c #0D0F01",
"9  c #0D0F04",
"0  c #0E0F07",
"q  c #0E1003",
"w  c #0F1103",
"e  c #0F1104",
"r  c #0E1005",
"t  c #0F100A",
"y  c #111403",
"u  c #111306",
"i  c #121406",
"p  c #101109",
"a  c #111308",
"s  c #12130B",
"d  c #151709",
"f  c #14150D",
"g  c #16180B",
"h  c #16180D",
"j  c #191B0D",
"k  c #1B1D12",
"l  c #1D1F12",
"z  c #232518",
"x  c #CBCDBF",
"c  c #CCCEC1",
"v  c #D1D3C6",
"b  c #D3D6C5",
"n  c #D2D4C7",
"m  c #D4D7C6",
"M  c #D7DAC5",
"N  c #D5D7C9",
"B  c #D1D2CC",
"V  c #D3D4CC",
"C  c #D6D7CF",
"Z  c #D6D9C8",
"A  c #DBDECB",
"S  c #D8DACC",
"D  c #D8DACD",
"F  c #DBDECD",
"G  c #DBDDCF",
"H  c #DCDFCC",
"J  c #DCDFCE",
"K  c #D9DBD0",
"L  c #DBDDD2",
"P  c #DCDED0",
"I  c #DDDFD1",
"U  c #DDDFD2",
"Y  c #DCDED3",
"T  c #DDDFD4",
"R  c #DDDED6",
"E  c #DDE0CD",
"W  c #DEE1CC",
"Q  c #DDE0CF",
"!  c #DFE2CF",
"~  c #DFE2D1",
"^  c #DEE0D2",
"/  c #DEE0D3",
"(  c #DFE1D3",
")  c #DFE1D4",
"_  c #DEE0D5",
"`  c #E0E3CE",
"'  c #E0E3D2",
"]  c #E1E4D1",
"[  c #E3E6D1",
"{  c #E1E4D3",
"}  c #E2E5D2",
"|  c #E3E6D3",
" . c #E0E2D4",
".. c #E0E2D5",
"X. c #E1E3D5",
"o. c #E2E5D4",
"O. c #E3E6D5",
"+. c #E2E4D6",
"@. c #E2E4D7",
"#. c #E3E5D7",
"$. c #E4E7D4",
"%. c #E4E7D6",
"&. c #E5E8D3",
"*. c #E5E8D7",
"=. c #E6E9D6",
"-. c #E7EAD7",
";. c #E9ECD7",
":. c #E0E1D9",
">. c #E1E2DA",
",. c #E2E3DB",
"<. c #E3E5D8",
"1. c #E2E4D9",
"2. c #E4E6D8",
"3. c #E4E6D9",
"4. c #E5E7D9",
"5. c #E5E7DA",
"6. c #E5E7DC",
"7. c #E5E6DE",
"8. c #E7EAD9",
"9. c #E6E8DA",
"0. c #E6E8DB",
"q. c #E7E9DB",
"w. c #E6E8DD",
"e. c #E7E9DE",
"r. c #E8EBDA",
"t. c #E9ECD9",
"y. c #E9ECDB",
"u. c #EAEDDA",
"i. c #EBEEDB",
"p. c #ECEFDA",
"a. c #E8EADC",
"s. c #E8EADD",
"d. c #E9EBDD",
"f. c #E9EBDE",
"g. c #E8EADF",
"h. c #EBEEDD",
"j. c #EAECDE",
"k. c #EAECDF",
"l. c #EBEDDF",
"z. c #ECEFDC",
"x. c #ECEFDE",
"c. c #EDF0DB",
"v. c #EDF0DD",
"b. c #EDF0DF",
"n. c #EEF1DE",
"m. c #EFF2DF",
"M. c #F0F3DE",
"N. c #E7E8E2",
"B. c #EAEBE3",
"V. c #EBEDE0",
"C. c #EAECE1",
"Z. c #EBEDE2",
"A. c #ECEEE0",
"S. c #EDEFE1",
"D. c #EDEFE2",
"F. c #ECEEE3",
"G. c #EBECE4",
"H. c #ECEDE5",
"J. c #EDEEE6",
"K. c #EEEFE7",
"L. c #EEF1E0",
"P. c #EFF2E1",
"I. c #EEF0E2",
"U. c #EEF0E3",
"Y. c #EFF1E3",
"T. c #EFF1E4",
"R. c #EEF0E5",
"E. c #EFF0E8",
"W. c #F0F3E0",
"Q. c #F0F3E2",
"!. c #F1F4E1",
"~. c #F1F4E3",
"^. c #F2F5E2",
"/. c #F3F6E3",
"(. c #F0F2E4",
"). c #F0F2E5",
"_. c #F1F3E5",
"`. c #F2F5E4",
"'. c #F3F6E5",
"]. c #F3F5E7",
"[. c #F4F7E4",
"{. c #F4F7E6",
"}. c #F6F9E4",
"|. c #F7FAE7",
" X c #F1F3E8",
".X c #F1F2EA",
"XX c #F3F5E8",
"oX c #F2F4E9",
"OX c #F4F6E8",
"+X c #F4F6E9",
"@X c #F5F7E9",
"#X c #F5F7EA",
"$X c #F4F6EB",
"%X c #F1F2EC",
"&X c #F2F3ED",
"*X c #F3F4EC",
"=X c #F3F4EE",
"-X c #F5F7EC",
";X c #F6F9E8",
":X c #F6F8EA",
">X c #F8FBE8",
",X c #F9FCEB",
"<X c #F8FAEF",
"1X c #FAFDEC",
"2X c #FAFCEF",
"3X c #F8F9F1",
"4X c #F9FBF0",
"5X c #F9FAF2",
"6X c #FAFCF1",
"7X c #FCFEF0",
"8X c #FCFEF1",
"9X c #FFFFF1",
"0X c #FCFEF3",
"qX c #FEFFF2",
"wX c #FEFFF3",
"eX c #FFFFF3",
"rX c #FBFCF4",
"tX c #FFFFF4",
"yX c #FFFFF6",
/* pixels */
"[ }.;.p.Q.W $.i.o.;Xf.S.X.S.) f.f.Q.5.5.Q.z.r.).",
"M.c.&.` o.L.>Xi.o.i.f.o.5.'.XX8.5.5.Y wXf.H $.H ",
"p.M i.}.8.[ ~ ~ 8.'.8.S.8.@   S.S.f.wXc z.).5.wX",
"c.W h.v.&.i.q.,X8.8.q.1.S.> , 5.f.5.f.h.5.0.+XH ",
"[ '.v.H i.^.X.[ 5.o.5.o.R.7 e L.+X6.Y 3XT 2Xc +X",
"W v.&.L.^.F o.L.5.R.5.C.5.    G.>.N.3X X6.Y -XC.",
"L.i.M '.i.~ tX~ w d u > > e 5   f &   p     0XT ",
"&.'.X.Q.o.'.D &   i > 5   7   5   & p & , t   =X",
"L.L.m v.C.Z 5 @ w ) XXR.XX  > q.G.=XN.=X  @ @ C ",
"h.~ L.'.5.@   , D wXn S.C.  @ E.E.B E.. ,   V tX",
"h.-X8.X.    l 1.o.0Xq.T 0XXXK.>.B.5Xp 3   -X0Xb ",
"~ ).1.5 5 j 5.o.) ) H. X>.) >.%XR >   > ) T C.R.",
"XXY   > & o.C.C.C.0XR.K G.3X_ K.  w > D tXf.C.K ",
"5.F d 7   z > @     h ,   > s   g   ;XS.~ L.).L.",
"q.h.8.d   7   p k   > 3 3   t 9   ).S.) tXb v.8.",
"C.f.X.5.+X1.8.'.h.R.,.XXq.    ) f.[.Y r.L.o.~ h.",
"r.i.r.f.i.q.f.f.).1.f.L.S.    h.i.8.i.8.i.i.8.i.",
"f.r.i.r.8.i.8.i.o.}.~ Z h.y   ~ 8.i.8.i.&.i.i.&.",
"i.i.r.r.h.8.h.8.v.8.8.wX~ @   ,Xi.i.8.i.8.i.i.8.",
"r.r.f.i.8.h.8.h.o.R.8.W v.).8.i.&.i.i.&.i.i.&.i.",
"8.h.8.h.h.8.h.8.h.h.8.h.o.h.v.) i.i.&.i.&.i.i.8."
};
