/* XPM */
static char *twoD[] = {
/* columns rows colors chars-per-pixel */
"24 21 88 1",
"  c #000001",
". c #090804",
"X c #060608",
"o c #0C0B0A",
"O c #060117",
"+ c #0D081E",
"@ c #151515",
"# c #1E1E12",
"$ c #1C1C1A",
"% c #20201E",
"& c #150F2B",
"* c #1E163B",
"= c #211F20",
"- c #241D3C",
"; c #2A2B25",
": c #222129",
"> c #302E2F",
", c #353533",
"< c #3F3D3E",
"1 c #494A3C",
"2 c #2D2647",
"3 c #332C4A",
"4 c #372F54",
"5 c #4D4D4E",
"6 c #525252",
"7 c #6A6A6C",
"8 c #8E8E8C",
"9 c #8E8E90",
"0 c #A3A496",
"q c #A4A3A4",
"w c #A9AAA5",
"e c #A7A6AB",
"r c #AEACAC",
"t c #B0AFAB",
"y c #ADABB0",
"u c gray69",
"i c #B4B3B8",
"p c #BDBDBB",
"a c #C2C1C6",
"s c #CCCDC6",
"d c #C5C4C9",
"f c #D2D1CE",
"g c #D7D8C8",
"h c #DDDECE",
"j c #D8D6D7",
"k c #D5D2DB",
"l c #D9D7DA",
"z c #DFE2C7",
"x c #DFE1D3",
"c c #E8EDC5",
"v c #E3E6C9",
"b c #EAEDCD",
"n c #EDF0CF",
"m c #E4E7D3",
"M c #E7E9D3",
"N c #E9ECD4",
"B c #E5E6DA",
"V c #E7E8DA",
"C c #E9EBDB",
"Z c #EDF0D5",
"A c #EEF0DA",
"S c #F2F5DD",
"D c #DDD9E7",
"F c #E1DFE8",
"G c #E3DDF7",
"H c #E2DBFD",
"J c #E5E4E4",
"K c #EBEBE2",
"L c #E5E3E9",
"P c #EDEBEC",
"I c #F0EFEA",
"U c #EFF1E3",
"Y c #F2F4E2",
"T c #F9FBE6",
"R c #F2F4EB",
"E c #F7F8EC",
"W c #FCFDED",
"Q c #E8E4F2",
"! c #EAE9F1",
"~ c #EFE8FF",
"^ c #F0EEF1",
"/ c #F2EBFF",
"( c #F4F3F3",
") c #F8F6F7",
"_ c #FCFDF4",
"` c #F5F2FA",
"' c #F8F7FC",
"] c #FEFEFD",
/* pixels */
"cbVJCCNNCCCZbbKKVCCNCCCN",
"bbKKKUAAKCNbcbCKCCNNNNNN",
"nbJKKVNNCCVNbbKVVCVVCVVN",
"bNJLVBmmJKVNbZJJKCCVKCCC",
"NNJIIKZSPPYCZKIPKKUCUCKK",
"bNP`]_W__)_WTW''________",
"NVI]]___]]]___]]]]]__]]]",
"NN^]]_W_]]]__]'']__]_]]]",
"SVF]]__V%  r_J+OX  w]]]]",
"Nh']I]h#q]jofj3G)]R,9]]'",
"NVP')]g1]!]6rL-/]]]p ]D]",
"ZUJ)]_TY]]L>rk2~^_]L5a]]",
"NVK]]WW_]]r<)F3H]]R]6e]!",
"vSP]]WT_)y P)Q*/]_)_7i]]",
"vSJ^_WSWt l]]D4H]E_(@a]~",
"ShI]R__0.`]`]F&/_](s5`]]",
"mVR__]s;f]]]]J:!](]$u]]]",
"YVV]_R8    @qJ%  o q]]]!",
"BKP___]]]]])]])]]]J]]L]]",
"mVA_]R)]]^]]]^]]]L])])]]",
"ERxY_]]]]]])P]]]]]P]]]]("
};
