/* XPM */
static char *twoD[] = {
/* columns rows colors chars-per-pixel */
"24 21 166 2",
"   c #000100",
".  c #000200",
"X  c #010200",
"o  c #010300",
"O  c #020300",
"+  c #030400",
"@  c #040600",
"#  c #050700",
"$  c #060700",
"%  c #060800",
"&  c #070800",
"*  c #070900",
"=  c #080A00",
"-  c #090B00",
";  c #090A02",
":  c #0A0C00",
">  c #0B0D00",
",  c #0C0E01",
"<  c #0B0C04",
"1  c #0B0C06",
"2  c #0D0E08",
"3  c #0E1003",
"4  c #0F1103",
"5  c #101205",
"6  c #111306",
"7  c #101207",
"8  c #121407",
"9  c #101109",
"0  c #111308",
"q  c #12130B",
"w  c #131508",
"e  c #121409",
"r  c #141608",
"t  c #15170A",
"y  c #151610",
"u  c #1F2018",
"i  c #333527",
"p  c #CBCDC2",
"a  c #D1D3C6",
"s  c #D3D5CA",
"d  c #D5D7C9",
"f  c #D5D7CA",
"g  c #D6D8CA",
"h  c #D7D9CE",
"j  c #D9DCCB",
"k  c #D8DACC",
"l  c #D9DBCD",
"z  c #D9DBCE",
"x  c #DADCCF",
"c  c #DBDDCF",
"v  c #DADBD3",
"b  c #DBDDD2",
"n  c #DCDED0",
"m  c #DCDED1",
"M  c #DBDCD4",
"N  c #DDDED6",
"B  c #DEE1D0",
"V  c #DEE0D2",
"C  c #DEE0D3",
"Z  c #DFE1D3",
"A  c #DFE1D4",
"S  c #DFE1D6",
"D  c #DFE0DA",
"F  c #E0E3D2",
"G  c #E1E4D3",
"H  c #E0E2D4",
"J  c #E0E2D5",
"K  c #E1E3D5",
"L  c #E1E3D6",
"P  c #E0E2D7",
"I  c #E3E6D5",
"U  c #E2E4D6",
"Y  c #E2E4D7",
"T  c #E4E7D6",
"R  c #E5E8D7",
"E  c #E9ECD7",
"W  c #E2E3DB",
"Q  c #E3E5D8",
"!  c #E2E4D9",
"~  c #E3E5DA",
"^  c #E4E6D8",
"/  c #E5E7D9",
"(  c #E5E7DA",
")  c #E3E4DC",
"_  c #E4E5DD",
"`  c #E6E7DF",
"'  c #E6E9D8",
"]  c #E7EAD9",
"[  c #E6E8DA",
"{  c #E6E8DB",
"}  c #E7E9DB",
"|  c #E7E9DC",
" . c #E6E8DD",
".. c #E7E9DE",
"X. c #E8EBDA",
"o. c #E9ECD9",
"O. c #E9ECDB",
"+. c #E8EADC",
"@. c #E9EBDD",
"#. c #E9EBDE",
"$. c #E8EADF",
"%. c #EAEDDC",
"&. c #EBEEDD",
"*. c #EAECDE",
"=. c #EAECDF",
"-. c #EBEDDF",
";. c #ECEFDE",
":. c #E9EBE0",
">. c #EAEBE3",
",. c #EBEDE0",
"<. c #EBEDE2",
"1. c #ECEEE0",
"2. c #ECEEE1",
"3. c #EDEFE1",
"4. c #EDEFE2",
"5. c #ECEEE3",
"6. c #E9EAE4",
"7. c #EBECE4",
"8. c #EBECE6",
"9. c #EDEFE4",
"0. c #EDEEE6",
"q. c #EEF1E0",
"w. c #EEF0E2",
"e. c #EEF0E3",
"r. c #EFF1E3",
"t. c #EEF0E5",
"y. c #EFF1E6",
"u. c #EFF0E8",
"i. c #EFF0EA",
"p. c #F0F3E2",
"a. c #F1F4E3",
"s. c #F0F2E4",
"d. c #F0F2E5",
"f. c #F1F3E5",
"g. c #F1F3E6",
"h. c #F0F2E7",
"j. c #F3F6E5",
"k. c #F2F4E6",
"l. c #F2F4E7",
"z. c #F3F5E7",
"x. c #F0F1E9",
"c. c #F1F3E8",
"v. c #F2F3EB",
"b. c #F2F4E9",
"n. c #F4F6E8",
"m. c #F5F7E9",
"M. c #F1F2EC",
"N. c #F5F7EC",
"B. c #F5F6EE",
"V. c #F6F7EF",
"C. c #F6F9E8",
"Z. c #F6F8EA",
"A. c #F7F9EB",
"S. c #F7F9EC",
"D. c #F8FBEA",
"F. c #F9FCEB",
"G. c #F9FBEE",
"H. c #F8FAEF",
"J. c #FAFCEE",
"K. c #FAFCEF",
"L. c #F8F9F1",
"P. c #FBFDF0",
"I. c #FBFDF2",
"U. c #FCFEF0",
"Y. c #FFFFF4",
"T. c #FFFFF6",
/* pixels */
"E E E E o.o.o.o.] p.r.l ] +.3.#.<.] #.3.] Z.T ;.",
"E E E E o.o.o.o.O.F t.] N./ ;.H 3.| O.3.B T R r.",
"E E o.o.o.o.O.O.;.a.| H x X X #./ A H r.N.3.g.m ",
"E E o.o.o.o.O.O.I B g.J.3.X = g.g.U.G.r.H l g.;.",
"o.o.o.o.o.o.O.O.b.] ] A m : 3 a b | W _ c.a.3.| ",
"o.o.o.o.o.o.o.o.] Q g.U.Q X # b.M.B._ <.c.0.p G.",
"o.o.o.O.O.O.#.#.l i X X 6 X X X X 2 1 0 X X y 0.",
"o.o.O.O.O.O.#.#.: X 6 : X X : X 1 X X y X o X 0.",
"o.+.F q.#.I / : * a #.#.u.X * | 8.8.i.8.X X I.W ",
"o.D.] G <.<.X = f T.b | <.X X 0.u.N M.X X 8.W g.",
"r.l | N.r.X t Q I <.:.U.h X = N V.M X 0 3.g.c.Q ",
"/ r.a.x o 6 O.A H c.<.s T.B.:.c.W X X T.D H t.3.",
"Z.H g.3 o x O.<.L.A :.:.8.M M c.# # I.m #.g.g Z.",
"B I : = * e X : X X 0 # X q q X X A c.3.r.r.O.H ",
"#.a.= X X e X e 0 * X * X X # = / a.f I O.+.I F.",
"g.+.m G.a.v U.H Q <.Q 8.:.| 0.Q O.] b.j.O.T C.x ",
"+.o.O.O.O.#.#.#.#.#.#.#.#.#.#.#.o.o.O.o.o.o.o.o.",
"O.o.O.O.O.O.o.o.O.O.o.O.o.o.O.O.o.o.o.o.o.o.o.o.",
"O.O.O.O.O.O.O.O.O.O.O.O.O.O.O.O.o.o.o.o.o.o.o.o.",
"O.O.O.O.O.O.O.O.O.O.O.O.O.O.O.O.o.o.o.o.o.o.o.o.",
"O.O.O.O.O.O.O.O.O.O.O.O.O.O.O.O.o.o.o.o.o.o.o.o."
};
