/* XPM */
static char *twoD[] = {
/* columns rows colors chars-per-pixel */
"24 21 68 1",
"  c #010201",
". c #070802",
"X c #090B02",
"o c #060608",
"O c #08070C",
"+ c #0D0D0A",
"@ c #12120C",
"# c #0E0E10",
"$ c #151512",
"% c #1C1D15",
"& c #1D1E19",
"* c #222222",
"= c #54564B",
"- c #57594E",
"; c #5D5E56",
": c #63655A",
"> c #656660",
", c #6D6E68",
"< c #6F7068",
"1 c #72746A",
"2 c #7B7C74",
"3 c #80807E",
"4 c #858681",
"5 c #878882",
"6 c #8A8B85",
"7 c #8F908B",
"8 c #96988D",
"9 c #959690",
"0 c #999B93",
"q c #A3A49F",
"w c #A4A5A1",
"e c #A8A9A4",
"r c #BDBEB9",
"t c #C7C9BC",
"y c #CACDBC",
"u c #C5C5C5",
"i c #CDCFC4",
"p c #CED0C2",
"a c #D2D5C5",
"s c #D4D5CB",
"d c #D7D9CB",
"f c #D9DBCC",
"g c #D7D8D0",
"h c #DBDCD4",
"j c #DDDDDC",
"k c #DDE0CF",
"l c #DFE1D3",
"z c #DFE0D8",
"x c #E2E5D4",
"c c #E6E9D5",
"v c #E9ECD6",
"b c #E4E5DB",
"n c #E6E9D9",
"m c #E9ECDB",
"M c #EDF0DF",
"N c #E6E7E5",
"B c #EBECE2",
"V c #EDEDEA",
"C c #EEF0E3",
"Z c #F1F4E4",
"A c #F5F8E7",
"S c #F3F4EB",
"D c #F6F9EA",
"F c #F9FCED",
"G c #F4F4F1",
"H c #F7F8F2",
"J c #FCFDF4",
"K c #FFFFFB",
/* pixels */
"mmncbmmMxnZZDfdmzBbSbJhZ",
"mmnnnnmmfFcipJJSnDbblxpB",
"mmmmmmnnmBBaJ .ShBhbJJBS",
"vmMmmmcbmxbFJ  JNSBjsibh",
"vvvvvMmmBbsgS..JBjBGBJKg",
"vvcvvmmBBBKJK oJKVJKKKHH",
"vvccvmZZJ2.  $O   +   $r",
"vvcxcmSJ;$ o  ##o   @. h",
"cxDvbxJ: .3VKo KVKGKg$ K",
"MMZaBJ=@ 7KuKO KjhKq  wV",
"fcCbJ-  >KwVK OKVJ4.o9KN",
"ZDxC1% 6KuKjuKKNH0 +5GGb",
"msK0X hJHGGVKKNKe  1JzsZ",
"BJ,  &    $ *   .X<JbJsS",
"VK   +  O  $ $#. 8JsJifJ",
"SgKJKGJKSKKJK  HJSxJxBFd",
"nnmBnNmmaFZyJX.Ammmmmmmm",
"nmnmnmmnAyfAF XFvmmvmvmm",
"mmnnnmnmMAAyAFJdmmmmmmmv",
"mmBmmmmmFkZJkycmmvvmvvmm",
"mBmmmmmmmaxAlmDCmmvmmmvm"
};
