/* XPM */
static char *vapor_icon___[] = {
/* columns rows colors chars-per-pixel */
"32 32 240 2",
"   c #3A6B70",
".  c #CE5C03",
"X  c #DE7701",
"o  c #DE7A0B",
"O  c #E76704",
"+  c #EB6403",
"@  c #ED6809",
"#  c #F16600",
"$  c #F07300",
"%  c #CD722C",
"&  c #DC7729",
"*  c #DB7137",
"=  c #EB7C2A",
"-  c #D77D4B",
";  c #7FC514",
":  c #75DA3E",
">  c #71CE41",
",  c #B09802",
"<  c #B29F12",
"1  c #B1A600",
"2  c #A4B203",
"3  c #A8BB00",
"4  c #BBBB05",
"5  c #A8B414",
"6  c #D78112",
"7  c #DE911F",
"8  c #E88F01",
"9  c #F98702",
"0  c #F98B00",
"q  c #E09500",
"w  c #E79108",
"e  c #E79A0E",
"r  c #F19601",
"t  c #F39C00",
"y  c #E78314",
"u  c #F39710",
"i  c #CBA409",
"p  c #C2AB0F",
"a  c #CFBD02",
"s  c #CEB71C",
"d  c #DCBF19",
"f  c #E4A307",
"g  c #E8AC00",
"h  c #FFA103",
"j  c #F4A902",
"k  c #E2B706",
"l  c #ECB502",
"z  c #EFBB00",
"x  c #F2B100",
"c  c #F8B502",
"v  c #FEBF00",
"b  c #EFA916",
"n  c #F2A718",
"m  c #F3B417",
"M  c #D48331",
"N  c #E48E23",
"B  c #EA9425",
"V  c #E98C3C",
"C  c #E5913E",
"Z  c #F29F37",
"A  c #E2A224",
"S  c #8BC20F",
"D  c #96DE01",
"F  c #82CB1C",
"G  c #92CA1F",
"H  c #AFDB00",
"J  c #B5D601",
"K  c #BDD702",
"L  c #BADE02",
"P  c #B6C810",
"I  c #8BE000",
"U  c #87E10D",
"Y  c #93E101",
"T  c #9DF003",
"R  c #B3E603",
"E  c #B8E003",
"W  c #B7C031",
"Q  c #B7C13E",
"!  c #CBCE01",
"~  c #CCD502",
"^  c #CADF00",
"/  c #CED20B",
"(  c #D7D800",
")  c #D9DF01",
"_  c #D7C11D",
"`  c #E1CC00",
"'  c #EAC900",
"]  c #E7CC0B",
"[  c #F1C703",
"{  c #F9CA00",
"}  c #E6D100",
"|  c #EAD001",
" . c #E3DE00",
".. c #E9DA01",
"X. c #FCD702",
"o. c #F3C510",
"O. c #E5D319",
"+. c #CCE203",
"@. c #C9E900",
"#. c #D7E401",
"$. c #DBE400",
"%. c #DCC430",
"&. c #E1C13A",
"*. c #FEC736",
"=. c #DE8740",
"-. c #DC8352",
";. c #D1815E",
":. c #DF8B5F",
">. c #DE9E56",
",. c #E38643",
"<. c #E58F44",
"1. c #ED9845",
"2. c #EC8C50",
"3. c #E99454",
"4. c #EC9E54",
"5. c #E79758",
"6. c #C6BE4F",
"7. c #F4AD41",
"8. c #E5A150",
"9. c #DB8D66",
"0. c #DB9675",
"q. c #E38E65",
"w. c #E58B6B",
"e. c #E19364",
"r. c #EB9361",
"t. c #E69A76",
"y. c #EF9D78",
"u. c #D1AE6C",
"i. c #ECA567",
"p. c #E2AA6D",
"a. c #ECAC6E",
"s. c #F8A964",
"d. c #E3B361",
"f. c #F6BD6E",
"g. c #E8A477",
"h. c #EAA178",
"j. c #E8AE7E",
"k. c #F2AB7D",
"l. c #F5BA76",
"z. c #DFC556",
"x. c #E2D64E",
"c. c #E8C954",
"v. c #EBD951",
"b. c #F3CF61",
"n. c #E3D161",
"m. c #FAD469",
"M. c #F2D86A",
"N. c #FBC77C",
"B. c #FBCD78",
"V. c #FCE57B",
"C. c #2E4AAB",
"Z. c #68B4C2",
"A. c #DABB8C",
"S. c #EFA686",
"D. c #F1AC8B",
"F. c #EBA691",
"G. c #EDAE9C",
"H. c #EBB792",
"J. c #EFB09E",
"K. c #E2BE9E",
"L. c #F3B191",
"P. c #F3BC9E",
"I. c #EFB4A2",
"U. c #EDBAA5",
"Y. c #EFB7A8",
"T. c #ECBAAA",
"R. c #F3B5A2",
"E. c #F0BAA0",
"W. c #F0BBAB",
"Q. c #F8B9B4",
"!. c #BED293",
"~. c #C3CB8F",
"^. c #D5C592",
"/. c #CCD79F",
"(. c #EEC38E",
"). c #F9C184",
"_. c #F0CA8B",
"`. c #E8DD8B",
"'. c #F0C193",
"]. c #F4C19C",
"[. c #F3E396",
"{. c #DFCFAE",
"}. c #C5D8A1",
"|. c #C9D9AA",
" X c #F1C4A5",
".X c #F1CAA6",
"XX c #FBCEA7",
"oX c #F3C0AF",
"OX c #F1C8AC",
"+X c #E0D2AF",
"@X c #FAD8A9",
"#X c #EFC6B2",
"$X c #FBCEB1",
"%X c #F2C2BA",
"&X c #F5C9BB",
"*X c #F9CFBF",
"=X c #EFDEB2",
"-X c #FFD3BC",
";X c #EAE7A4",
":X c #F6E3BB",
">X c #BCD9E1",
",X c #FACCC7",
"<X c #F3C9CA",
"1X c #EFD9C9",
"2X c #F5D1C6",
"3X c #FBD6C5",
"4X c #F6D2CB",
"5X c #FBD6CE",
"6X c #FEDDCE",
"7X c #F7D5D4",
"8X c #FCD4D3",
"9X c #F7DCD3",
"0X c #FCDCD4",
"qX c #FBD3DB",
"wX c #FBDDDA",
"eX c #E9EACB",
"rX c #F4E5C4",
"tX c #E4F7C9",
"yX c #F5E3D2",
"uX c #F7E6DF",
"iX c #FDE1DC",
"pX c #FEE8DD",
"aX c #F5F0D2",
"sX c #FAF9DA",
"dX c #FDE5E2",
"fX c #FDEBE5",
"gX c #FCE2EC",
"hX c #F5EDEA",
"jX c #FEECEA",
"kX c #FAF0E7",
"lX c #F6F6EA",
"zX c #FDF2EC",
"xX c #FEEEF0",
"cX c #FEEFFD",
"vX c #F7F6F4",
"bX c #FEF3F3",
"nX c #F5FDF4",
"mX c #FCFAF5",
"MX c #FFF4FA",
"NX c #FFFFFE",
/* pixels */
"NXNXNXNXNXNXNXNXNXNXNXNXNXNXNXNXNXNXNXNXNXNXNXNXNXNXNXNXNXNXNXNX",
"NXNXNXNXNXNXNXNXNXNXNXNXNXNXNXNXNXNXNXNXNXNXNXNXNXNXNXNXNXNXNXNX",
"NXNXNXNXNXNXNXNXNXNXNXNXNXNXNXNXNXNXNXNXNXNXNXNXNXNXNXNXNXNXNXNX",
"mXzXmXNXNXNXNXNXNXMXNXNXNXNXNXNXNXNXNXNXNXNXNXNXNXzX@XtXnXNXNXNX",
"`.c.N.H.uXNXNXNXNXMXNXNXNXNXNXNXNXNXNXNXNXNXNXNXNXA.i : Z.>XnXNX",
"eXp x 8 M  X:XyXNXNXNXNXNXNXNXNXNXNXNXNXNXNXNXNXvX< a 2   C.: sX",
"NXhX_ { r N y 6 5.l.4.h.T.4XwXdXdXdXiX9XiXuXjXbX^.3 4 , 1 3 ' V.",
"NXNX=Xz w C C 1.o i. Xk.r.-.- -.e.S.J.T.U.U.E.G.s @.L ( X.*.@XhX",
"NXNXvX] l Z XX3XL.<.3.G.W.W.F.0.9.:.t.I.4XdX<X5.` #...{ f.jXNXNX",
"NXNXNXx.' 7.-X5XdXdXP.y.w.F.R.Q.,X<X5X3X&X9XqXQ R +.[ ).mXNXNXNX",
"NXNXNX;X` a.dXfXwXjXMXMXwXfXiX4XiXfX9X&XD.5X+XU T  .B.mXNXNXNXNX",
"NXNXNXaX} n P.bXbXdXiXiXiXfXjXjX0X5X5XiX0XoXW T #.m.NXNXNXNXNXNX",
"NXNXNXlX} b s.iXbXbXbXdXiXwX7XwXwXwXwXjXhXp.! $.M.MXNXNXNXNXNXNX",
"NXmXNXmXO.A -X$XfXbXbXjXfXfXiXjXfXfXjXbXcX6.#.n.NXNXNXNXNXNXNXNX",
"NXNXNXNXv.f 2XiX3XdXfXbXbXjXdXdXjXbXbXNX1X/ P vXNXNXNXNXNXNXNXNX",
"NXNXNXNX[.g H.fX6X0XfXfXbXMXbXzXxXxXbXcXz.J /.NXNXNXNXNXNXNXNXNX",
"NXNXNXNXaXz 8.fXpXiXiXfXzXbXMXNXNXmXMXOX~ G mXNXNXNXNXNXNXNXNXNX",
"NXNXNXNXmXo.e 4XfXpXiXfXjXzXbXbXMXMXgX&.D |.NXNXNXNXNXNXNXNXNXNX",
"NXNXNXNXNXb.j j.jXfXfXfXfXbXjXbXbXMX.XK ; NXNXNXNXNXNXNXNXNXNXNX",
"NXNXNXNXNXrXc B 8XfXfXzXjXbXbXbXbXgX%.I }.NXNXNXNXNXNXNXNXNXNXNX",
"NXNXNXNXNXMXm t g.jXzXfXzXbXbXbXMX(.L ; mXNXNXNXNXNXNXNXNXNXNXNX",
"NXNXNXNXNXNX_.h y %XfXzXzXbXbXbXwX_ Y !.NXNXNXNXNXNXNXNXNXNXNXNX",
"NXNXNXNXNXNXlXu 0 ,.8XjXxXbXmXcXd.^ S vXNXNXNXNXNXNXNXNXNXNXNXNX",
"NXNXNXNXNXNXNX.X9 $ q.wXjXjXbXU.k H ~.NXNXNXNXNXNXNXNXNXNXNXNXNX",
"NXNXNXNXNXNXNXNX1.$ O w.%X8XT.7 ) 5 vXNXNXNXNXNXNXNXNXNXNXNXNXNX",
"NXNXNXNXNXNXNXNXzX= + @ * ;.% x a {.NXNXNXNXNXNXNXNXNXNXNXNXNXNX",
"NXNXNXNXNXNXNXNXNXfX2.@ + . X q u.NXNXNXNXNXNXNXNXNXNXNXNXNXNXNX",
"NXNXNXNXNXNXNXNXNXNXvX#Xe.& M K.MXNXNXmXNXNXNXNXNXNXNXNXNXNXNXNX",
"NXNXNXNXNXNXNXNXNXNXNXNXkX1X1XNXNXNXNXNXNXNXNXNXNXNXNXNXNXNXNXNX",
"NXNXNXNXNXNXNXNXNXNXNXNXNXNXNXNXNXNXNXNXNXNXNXNXNXNXNXNXNXNXNXNX",
"NXNXNXNXNXNXNXNXNXNXNXNXNXNXNXNXNXNXNXNXNXNXNXNXNXNXNXNXNXNXNXNX",
"NXNXNXNXNXNXNXNXNXNXNXNXNXNXNXNXNXNXNXNXNXNXNXNXNXNXNXNXNXNXNXNX"
};
