/* XPM */
static char *wheel[] = {
/* columns rows colors chars-per-pixel */
"20 20 46 1",
"  c black",
". c #010101",
"X c #020202",
"o c gray1",
"O c #040404",
"+ c gray2",
"@ c #060606",
"# c #070707",
"$ c gray3",
"% c #090909",
"& c gray4",
"* c #0B0B0B",
"= c #0C0C0C",
"- c #0E0E0E",
"; c gray6",
": c #101010",
"> c #111111",
", c gray7",
"< c gray8",
"1 c #151515",
"2 c #191919",
"3 c gray86",
"4 c #E2E2E2",
"5 c gray89",
"6 c #E6E6E6",
"7 c #E9E9E9",
"8 c #EAEAEA",
"9 c #ECECEC",
"0 c #EEEEEE",
"q c #EFEFEF",
"w c gray94",
"e c #F1F1F1",
"r c gray95",
"t c #F3F3F3",
"y c #F4F4F4",
"u c gray96",
"i c #F6F6F6",
"p c gray97",
"a c #F8F8F8",
"s c #F9F9F9",
"d c gray98",
"f c #FBFBFB",
"g c gray99",
"h c #FDFDFD",
"j c #FEFEFE",
"k c gray100",
/* pixels */
"kkkdkkpkkkdkkkdkkkpk",
"d8kpkkrkk ;prkdkpkkp",
"dk Okk8kk  kk5k8% kk",
"kd :8d%  O  O%pk :rk",
"kkkd    k:;d    k8kk",
"kpdkOO dd  kk O<pkkk",
"kkd%  % k  k%O  Ok8k",
"pkk ;k O  O  OkO kkr",
"dkp kkk O %  kkkOkdk",
"k  ;       ;      %p",
"k    O %%% 2  :O   k",
"8kk kdpO    Okrk kkk",
"kkk  kO  ;OO %kO kdd",
"8kk   O k  k:   :8kk",
"kr8k  Odd%:pk % kdp8",
"dk; k   k  k O k Okk",
"kpO kp%   ;   dk Odk",
"kkkkkkkdkO kkrkkk3kr",
"dkkkkdkkk Opkkdkkkkk",
"kkkkddkkk5kkrdkk4kpk"
};
