/* XPM */
const static char *wheel[] = {
/* columns rows colors chars-per-pixel */
"24 21 195 2",
"   c black",
".  c #010100",
"X  c #010101",
"o  c #000002",
"O  c #010103",
"+  c #010200",
"@  c #020200",
"#  c #020202",
"$  c gray1",
"%  c #010005",
"&  c #020106",
"*  c #020204",
"=  c #030305",
"-  c #040500",
";  c #040404",
":  c gray2",
">  c #040406",
",  c #050507",
"<  c #060606",
"1  c #070707",
"2  c #070709",
"3  c #080806",
"4  c gray3",
"5  c #090909",
"6  c gray4",
"7  c #0B0B0B",
"8  c gray5",
"9  c #0E0E0E",
"0  c gray6",
"q  c #0F0F11",
"w  c #101010",
"e  c #111111",
"r  c #131218",
"t  c #1F1F21",
"y  c #202215",
"u  c #222417",
"i  c #232517",
"p  c #212318",
"a  c #21221A",
"s  c #22231B",
"d  c #20211C",
"f  c #20201E",
"g  c #21221C",
"h  c #21221D",
"j  c #23241E",
"k  c #23241F",
"l  c #242619",
"z  c #24261B",
"x  c #24251D",
"c  c #24251F",
"v  c #25271C",
"b  c #25261E",
"n  c #26271F",
"m  c #26281B",
"M  c #26281D",
"N  c #27291C",
"B  c #202020",
"V  c #202022",
"C  c #212123",
"Z  c #222220",
"A  c #232321",
"S  c #212025",
"D  c #252523",
"F  c #262721",
"G  c gray14",
"H  c #252527",
"J  c #262624",
"K  c gray15",
"L  c #272727",
"P  c #282921",
"I  c #282923",
"U  c #292B20",
"Y  c #282924",
"T  c #292927",
"R  c #292A24",
"E  c #292A25",
"W  c #2A2B26",
"Q  c #2C2E23",
"!  c #2D2F22",
"~  c #2D2E26",
"^  c #2E2F27",
"/  c #282828",
"(  c #2C2D28",
")  c #2D2E29",
"_  c #2F2F31",
"`  c #2E3023",
"'  c #2F3124",
"]  c #32332B",
"[  c #31322C",
"{  c #343432",
"}  c #353535",
"|  c #3A3C31",
" . c #3D3F31",
".. c #3B3B39",
"X. c #3A3A3C",
"o. c #444540",
"O. c #444446",
"+. c #D5D5D7",
"@. c #DBDBD9",
"#. c #DADADA",
"$. c #DBDBDD",
"%. c gainsboro",
"&. c #DDDDDF",
"*. c #DFDFDD",
"=. c gray87",
"-. c #DFDFDF",
";. c #DBDAE0",
":. c #DCDBE1",
">. c #DEDDE2",
",. c #DEDEE0",
"<. c #E4E8CD",
"1. c #E6EBCD",
"2. c #E1E3D5",
"3. c #E3E6D3",
"4. c #E4E7D2",
"5. c #E4E7D6",
"6. c #E4E6D8",
"7. c #E5E7DC",
"8. c #E5E9D0",
"9. c #E5E8D3",
"0. c #E6EAD3",
"q. c #E7EBD2",
"w. c #E5E8D5",
"e. c #E5E8D7",
"r. c #E6E9D4",
"t. c #E6E9D6",
"y. c #E7EAD5",
"u. c #E7EAD7",
"i. c #E6E9D8",
"p. c #E6E8DB",
"a. c #E7E9DB",
"s. c #E7EAD9",
"d. c #E7E9DC",
"f. c #E7E9DE",
"g. c #E8EBD6",
"h. c #E8ECD3",
"j. c #E8ECD5",
"k. c #E9EDD4",
"l. c #E9ECD7",
"z. c #E9EDD6",
"x. c #EAEED5",
"c. c #EAEED7",
"v. c #EBEFD6",
"b. c #E8EBD8",
"n. c #E8EBDA",
"m. c #E8EADC",
"M. c #E8EADD",
"N. c #E9EBDD",
"B. c #E8EADF",
"V. c #E9EBDE",
"C. c #E9ECD9",
"Z. c #E9ECDB",
"A. c #EAEDD8",
"S. c #EAEDDA",
"D. c #EBEED9",
"F. c #EBEFD8",
"G. c #EBEEDB",
"H. c #EAEDDC",
"J. c #EAECDE",
"K. c #EAECDF",
"L. c #EBEDDF",
"P. c #EBEEDD",
"I. c #ECEFDA",
"U. c #ECEFDC",
"Y. c #ECEFDE",
"T. c #ECF0D7",
"R. c #ECF0D9",
"E. c #EDF0DB",
"W. c #EDF1DA",
"Q. c #EDF0DD",
"!. c #EDF0DF",
"~. c #EEF1DE",
"^. c gray88",
"/. c #E1E1E1",
"(. c #E0E0E2",
"). c #E3E3E1",
"_. c #E2E2E2",
"`. c gray89",
"'. c #E1E0E6",
"]. c #E2E1E6",
"[. c #E4E4E4",
"{. c #E4E4E6",
"}. c #E5E4E9",
"|. c #E8E9E1",
" X c #E9EAE2",
".X c #EAEBE3",
"XX c #EAECE1",
"oX c #EBEDE0",
"OX c #EBEDE2",
"+X c #ECEEE0",
"@X c #ECEEE1",
"#X c #EDEFE1",
"$X c #ECEDE5",
"%X c #EDEEE6",
"&X c #EEEFE7",
/* pixels */
"H.b.b.u.D.u.c.D.H.5.g.D.u.D.D.f.D.u.g.b.D.u.D.f.",
"b.u.U.g.s.s.D.4.g.F.D.4.c.g.g.D.4.D.D.D.u.H.b.g.",
"c.D.s.+Xs.b.D.c.D.g.s.i  .b.D.c.b.D.D.f.f.s.u.F.",
"q.D.s.oXN Q s.D.H.7.%Xg Y B.f.b.D.U.Q l f.D.F.q.",
"c.u.U.f.b | oXf.] ) V _ t G T ] +Xs.b | f.s.c.v.",
"c.g.D.b.+XB.a k Z X >.r r '.X Z b s oXf.H.D.g.u.",
"c.D.D.3.H.oX( : % %.{.X : +.(.% : o.7.Q.3.D.q.b.",
"b.b.u.F.H.U J % 2 X *.- X ).7 : 2 r Q b.D.D.D.H.",
"c.D.c.D.oXA q '.X : X X : X X ; >.X F f.D.D.g.g.",
"4.D.u.f.7.U >.>.-.: X X : X X %.}.%.Q B.H.b.g.D.",
"D.c.H.i F ..X % X X : X X 9 X ; % X g b ` s.u.c.",
"u.u.H.N b A X % X : 7 7 : e X X 9 7 g b a H.F.c.",
"c.F.5.f..Xk `.%.%.: X X X X : `.`.#.] %Xf.b.b.g.",
"u.4.Q.u.7.Q X (.: X X 9 7 X X : %.T ^ 2.~.u.g.H.",
"f.q.c.F.g.i T % X : #.X X -.9 X X T f.D.q.F.b.H.",
"b.D.c.<.F.f.D S 7 `.`.9 9 `.{.X X.g b.v.1.v.D.b.",
"c.B.c.q.} T c.b G X `.X X %.X / D c.g / D.c.7.c.",
"c.7.D.g.T s F.f.{ Y t G O.C J Z f.D.b T c.c.f.c.",
"D.b.q.D.H.7.F.D.c.g.f.N l s.D.g.D.g.6.+Xg.c.D.u.",
"g.c.c.g.f.D.u.c.q.~.f.b U +Xb.c.c.c.b.H.g.c.g.c.",
"u.c.c.c.D.H.u.q.g.D.6.B.%Xb.u.c.u.D.b.b.g.c.c.c."
};
