/* XPM */
static char *wheel[] = {
/* columns rows colors chars-per-pixel */
"24 21 82 1",
"  c black",
". c #010101",
"X c #000002",
"o c #010103",
"O c #020202",
"+ c gray1",
"@ c #000004",
"# c #010005",
"$ c #020106",
"% c #020204",
"& c #030305",
"* c #040404",
"= c gray2",
"- c #040406",
"; c #050507",
": c #060606",
"> c #050409",
", c #06050A",
"< c #060608",
"1 c gray3",
"2 c #090909",
"3 c #08080A",
"4 c #09090B",
"5 c gray4",
"6 c #0A0A0C",
"7 c gray5",
"8 c #0D0D0F",
"9 c #0E0E0E",
"0 c gray6",
"q c #0F0F11",
"w c #101010",
"e c #131313",
"r c gray8",
"t c #141416",
"y c #D8D7DC",
"u c #D9D9DB",
"i c #DADADA",
"p c gray86",
"a c #DAD9DE",
"s c #DADADC",
"d c #DBDBDD",
"f c gainsboro",
"g c #DDDDDD",
"h c #DCDCDE",
"j c #DDDDDF",
"k c gray87",
"l c #DFDFDF",
"z c #DCDBE0",
"x c #DDDCE1",
"c c #DEDDE2",
"v c #DEDEE0",
"b c #DFDFE1",
"n c #DFDEE3",
"m c #DFDEE4",
"M c #E0DFE4",
"N c #E0DFE5",
"B c #E0E0DE",
"V c gray88",
"C c #E1E1E1",
"Z c #E0E0E2",
"A c #E1E1E3",
"S c #E2E2E0",
"D c #E2E2E2",
"F c gray89",
"G c #E1E0E5",
"H c #E1E0E6",
"J c #E2E1E6",
"K c #E2E2E4",
"L c #E3E3E5",
"P c #E3E2E7",
"I c #E4E4E4",
"U c #E4E4E6",
"Y c #E5E5E7",
"T c #E3E2E8",
"R c #E4E3E8",
"E c #E6E5EB",
"W c #E8E7EC",
"Q c #E9E9EB",
"! c #E9E8ED",
"~ c #EBEBED",
"^ c #ECECEE",
"/ c #EDEDEF",
/* pixels */
"MMMnlHnNNlMnMMMMHlHnlHNN",
"MHnHHlHNNHnMMMlMHlnNNnHH",
"BlHFFMllMMBo0lIMBMMBlHlg",
"MMnH%,HHQHMooHMHMQ1oNNll",
"MnMMO9/j5:o1ooO6MBo0nHlF",
"MMlMnl%%oolrrg*oooB^HTul",
"FMHlML**ogMo*pBo*eBHnnTH",
"inMMF**o2oBOoF2:oo:nQuIl",
"HnIgLowHo:oo*oo*lOOlHEgL",
"MHnMg*hgMooo*oopFBOlEuHM",
"MMnooqooooOoo7oOoooO;HnH",
"BFHoooo*o2:2Oeooe*o:%nHn",
"MlQFgoFgBOoooo:Flp5yNNlL",
"FFlMB:oB*oo0**o*M*:LHnll",
"hHQhMo*o**pooB0OoOluNnMF",
"MnEn~Moo1lM59BFo9oLLj^FM",
"MlHH6;H%oolool*%oIoOHHyI",
"Mnnl,ogM5oOotooonlo1nnML",
"MLnHnNHMMMMooMMlMlFiHHMg",
"lNnnnNNlnHLo:nFlFFglHllF",
"NNNNlNNNHlnLlLhLglFFnNHg"
};
